<svg width="462" height="429" viewBox="0 0 462 429" fill="none" xmlns="http://www.w3.org/2000/svg">
<path d="M338.651 72.0371H104.923C90.3542 72.0371 78.5439 83.8944 78.5439 98.521H365.03C365.03 83.8944 353.22 72.0371 338.651 72.0371Z" fill="#0181FE"/>
<path d="M78.5439 97.7988H365.03V316.861C365.03 326.6 361.177 335.941 354.317 342.828C347.457 349.715 338.154 353.584 328.453 353.584H115.122C105.421 353.584 96.1169 349.715 89.2573 342.828C82.3976 335.941 78.5439 326.6 78.5439 316.861V97.7988Z" fill="#CCE6FF"/>
<path d="M315.786 125.468H127.882C123.969 125.468 120.797 128.649 120.797 132.574C120.797 136.498 123.969 139.68 127.882 139.68H315.786C319.699 139.68 322.871 136.498 322.871 132.574C322.871 128.649 319.699 125.468 315.786 125.468Z" fill="#99CDFF"/>
<path d="M315.786 185.85H127.882C123.969 185.85 120.797 189.031 120.797 192.956C120.797 196.88 123.969 200.062 127.882 200.062H315.786C319.699 200.062 322.871 196.88 322.871 192.956C322.871 189.031 319.699 185.85 315.786 185.85Z" fill="#99CDFF"/>
<path d="M315.786 246.229H127.882C123.969 246.229 120.797 249.411 120.797 253.336C120.797 257.26 123.969 260.442 127.882 260.442H315.786C319.699 260.442 322.871 257.26 322.871 253.336C322.871 249.411 319.699 246.229 315.786 246.229Z" fill="#99CDFF"/>
<path d="M315.786 306.612H127.882C123.969 306.612 120.797 309.794 120.797 313.718C120.797 317.643 123.969 320.824 127.882 320.824H315.786C319.699 320.824 322.871 317.643 322.871 313.718C322.871 309.794 319.699 306.612 315.786 306.612Z" fill="#99CDFF"/>
<g filter="url(#filter0_d_499_6481)">
<path d="M126.61 233.278H26.5544C18.5162 233.278 12 239.821 12 247.891V391.474C12 399.544 18.5162 406.086 26.5544 406.086H126.61C134.648 406.086 141.164 399.544 141.164 391.474V247.891C141.164 239.821 134.648 233.278 126.61 233.278Z" fill="#99CDFF"/>
</g>
<g filter="url(#filter1_d_499_6481)">
<path d="M411.436 9H300.921C295.771 9 291.596 13.1914 291.596 18.3618V70.5135C291.596 75.6839 295.771 79.8753 300.921 79.8753H411.436C416.586 79.8753 420.76 75.6839 420.76 70.5135V18.3618C420.76 13.1914 416.586 9 411.436 9Z" fill="#CCE6FF"/>
</g>
<path d="M115.445 305.107H37.7195C35.1022 305.107 32.9805 307.238 32.9805 309.865V309.881C32.9805 312.508 35.1022 314.639 37.7195 314.639H115.445C118.062 314.639 120.184 312.508 120.184 309.881V309.865C120.184 307.238 118.062 305.107 115.445 305.107Z" fill="#CCE6FF"/>
<path d="M115.489 372.176H38.4312C35.8364 372.176 33.7329 374.24 33.7329 376.785V376.8C33.7329 379.346 35.8364 381.41 38.4312 381.41H115.489C118.083 381.41 120.187 379.346 120.187 376.8V376.785C120.187 374.24 118.083 372.176 115.489 372.176Z" fill="#CCE6FF"/>
<path d="M115.489 337.086H38.4312C35.8364 337.086 33.7329 339.15 33.7329 341.695V341.71C33.7329 344.256 35.8364 346.32 38.4312 346.32H115.489C118.083 346.32 120.187 344.256 120.187 341.71V341.695C120.187 339.15 118.083 337.086 115.489 337.086Z" fill="#CCE6FF"/>
<path d="M66.1382 255.453H43.4248C38.3936 255.453 34.3149 259.548 34.3149 264.599V270.928C34.3149 275.979 38.3936 280.074 43.4248 280.074H66.1382C71.1695 280.074 75.2481 275.979 75.2481 270.928V264.599C75.2481 259.548 71.1695 255.453 66.1382 255.453Z" fill="#67B3FE"/>
<path d="M318.872 55.1919C324.793 55.1919 329.592 50.3732 329.592 44.429C329.592 38.4847 324.793 33.666 318.872 33.666C312.951 33.666 308.152 38.4847 308.152 44.429C308.152 50.3732 312.951 55.1919 318.872 55.1919Z" fill="#0167CB"/>
<path d="M357.182 55.1919C363.103 55.1919 367.902 50.3732 367.902 44.429C367.902 38.4847 363.103 33.666 357.182 33.666C351.262 33.666 346.462 38.4847 346.462 44.429C346.462 50.3732 351.262 55.1919 357.182 55.1919Z" fill="#0167CB"/>
<path d="M395.493 55.1919C401.414 55.1919 406.213 50.3732 406.213 44.429C406.213 38.4847 401.414 33.666 395.493 33.666C389.573 33.666 384.773 38.4847 384.773 44.429C384.773 50.3732 389.573 55.1919 395.493 55.1919Z" fill="#0167CB"/>
<path d="M366.426 311.902L339.275 341.954L415.805 411.648L442.955 381.596L366.426 311.902Z" fill="#0181FE"/>
<path fill-rule="evenodd" clip-rule="evenodd" d="M395.119 262.162C395.119 325.031 344.356 375.996 281.736 375.996C219.116 375.996 168.353 325.031 168.353 262.162C168.353 199.293 219.116 148.327 281.736 148.327C344.356 148.327 395.119 199.293 395.119 262.162ZM377.727 262.163C377.727 315.389 334.751 358.537 281.736 358.537C228.721 358.537 185.745 315.389 185.745 262.163C185.745 208.937 228.721 165.789 281.736 165.789C334.751 165.789 377.727 208.937 377.727 262.163Z" fill="#0181FE"/>
<g filter="url(#filter2_b_499_6481)">
<path d="M281.737 358.536C334.751 358.536 377.728 315.388 377.728 262.162C377.728 208.936 334.751 165.788 281.737 165.788C228.722 165.788 185.746 208.936 185.746 262.162C185.746 315.388 228.722 358.536 281.737 358.536Z" fill="#CCE6FF"/>
</g>
<path d="M304.803 262.161L332.255 234.538C334.827 231.805 336.236 228.173 336.183 224.414C336.13 220.654 334.619 217.064 331.971 214.406C329.323 211.747 325.747 210.23 322.003 210.177C318.258 210.123 314.641 211.538 311.919 214.12L284.405 241.744L256.953 214.12C255.632 212.717 254.044 211.593 252.283 210.817C250.522 210.04 248.624 209.625 246.7 209.598C244.777 209.571 242.868 209.931 241.086 210.657C239.303 211.384 237.684 212.461 236.324 213.827C234.964 215.192 233.891 216.818 233.167 218.607C232.444 220.397 232.085 222.313 232.112 224.244C232.14 226.175 232.552 228.081 233.326 229.849C234.1 231.617 235.218 233.211 236.617 234.538L264.115 262.161L236.617 289.784C235.218 291.111 234.1 292.705 233.326 294.473C232.552 296.241 232.14 298.147 232.112 300.078C232.085 302.009 232.444 303.925 233.167 305.715C233.891 307.504 234.964 309.129 236.324 310.495C237.684 311.86 239.303 312.938 241.086 313.665C242.868 314.391 244.777 314.751 246.7 314.724C248.624 314.696 250.522 314.282 252.283 313.505C254.044 312.729 255.632 311.605 256.953 310.202L284.466 282.578L311.98 310.202C314.728 312.631 318.295 313.918 321.955 313.799C325.614 313.68 329.091 312.164 331.676 309.561C334.261 306.957 335.761 303.462 335.868 299.788C335.976 296.113 334.684 292.536 332.255 289.784L304.803 262.161Z" fill="#D14242"/>
<path d="M415.799 411.651L442.95 381.6L447.039 385.324C451.007 388.937 453.383 393.985 453.644 399.357C453.904 404.729 452.029 409.985 448.43 413.968V413.968C444.831 417.952 439.803 420.337 434.452 420.599C429.102 420.86 423.867 418.977 419.899 415.364L415.81 411.64L415.799 411.651Z" fill="#67B3FE"/>
<defs>
<filter id="filter0_d_499_6481" x="0" y="225.278" width="159.164" height="202.808" filterUnits="userSpaceOnUse" color-interpolation-filters="sRGB">
<feFlood flood-opacity="0" result="BackgroundImageFix"/>
<feColorMatrix in="SourceAlpha" type="matrix" values="0 0 0 0 0 0 0 0 0 0 0 0 0 0 0 0 0 0 127 0" result="hardAlpha"/>
<feOffset dx="3" dy="7"/>
<feGaussianBlur stdDeviation="7.5"/>
<feComposite in2="hardAlpha" operator="out"/>
<feColorMatrix type="matrix" values="0 0 0 0 0.104618 0 0 0 0 0.465612 0 0 0 0 0.545833 0 0 0 0.15 0"/>
<feBlend mode="normal" in2="BackgroundImageFix" result="effect1_dropShadow_499_6481"/>
<feBlend mode="normal" in="SourceGraphic" in2="effect1_dropShadow_499_6481" result="shape"/>
</filter>
<filter id="filter1_d_499_6481" x="284.596" y="0" width="155.164" height="96.875" filterUnits="userSpaceOnUse" color-interpolation-filters="sRGB">
<feFlood flood-opacity="0" result="BackgroundImageFix"/>
<feColorMatrix in="SourceAlpha" type="matrix" values="0 0 0 0 0 0 0 0 0 0 0 0 0 0 0 0 0 0 127 0" result="hardAlpha"/>
<feOffset dx="6" dy="4"/>
<feGaussianBlur stdDeviation="6.5"/>
<feComposite in2="hardAlpha" operator="out"/>
<feColorMatrix type="matrix" values="0 0 0 0 0.104618 0 0 0 0 0.465612 0 0 0 0 0.545833 0 0 0 0.09 0"/>
<feBlend mode="normal" in2="BackgroundImageFix" result="effect1_dropShadow_499_6481"/>
<feBlend mode="normal" in="SourceGraphic" in2="effect1_dropShadow_499_6481" result="shape"/>
</filter>
<filter id="filter2_b_499_6481" x="169.07" y="149.113" width="225.333" height="226.097" filterUnits="userSpaceOnUse" color-interpolation-filters="sRGB">
<feFlood flood-opacity="0" result="BackgroundImageFix"/>
<feGaussianBlur in="BackgroundImage" stdDeviation="8.33757"/>
<feComposite in2="SourceAlpha" operator="in" result="effect1_backgroundBlur_499_6481"/>
<feBlend mode="normal" in="SourceGraphic" in2="effect1_backgroundBlur_499_6481" result="shape"/>
</filter>
</defs>
</svg>
