<svg width="682" height="564" viewBox="0 0 682 564" fill="none" xmlns="http://www.w3.org/2000/svg">
<path d="M654.156 3.75342H27.8438C14.5399 3.75342 3.75488 14.534 3.75488 27.8325V536.168C3.75488 549.466 14.5399 560.247 27.8438 560.247H654.156C667.46 560.247 678.245 549.466 678.245 536.168V27.8325C678.245 14.534 667.46 3.75342 654.156 3.75342Z" fill="#CCE6FF"/>
<path fill-rule="evenodd" clip-rule="evenodd" d="M27.8438 7.50666C16.6136 7.50666 7.50974 16.6068 7.50974 27.8324V536.168C7.50974 547.393 16.6136 556.493 27.8438 556.493H654.156C665.386 556.493 674.49 547.393 674.49 536.168V27.8324C674.49 16.6068 665.386 7.50666 654.156 7.50666H27.8438ZM0 27.8324C0 12.461 12.4661 0 27.8438 0H654.156C669.534 0 682 12.461 682 27.8324V536.168C682 551.539 669.534 564 654.156 564H27.8438C12.4661 564 0 551.539 0 536.168V27.8324Z" fill="#67B3FE"/>
<path d="M167.431 306.041C158.924 310.44 159.242 328.156 160.464 336.465L176.233 348.562C192.856 346.606 228.818 339.544 239.674 326.935C253.243 311.172 239.306 282.948 205.936 282.581C179.239 282.288 169.143 298.098 167.431 306.041Z" fill="black"/>
<path fill-rule="evenodd" clip-rule="evenodd" d="M295.836 555.472H236.212L238.593 505.954L272.647 502.994L295.836 555.472Z" fill="#EDAD92"/>
<path fill-rule="evenodd" clip-rule="evenodd" d="M246.984 555.473H94.0021V500.036L75.2485 482.276L71.301 479.124C79.1349 457.59 97.2586 411.933 114.235 404.83C131.211 397.727 163.091 393.319 176.909 392.004L207.506 399.404L239.917 416.008C244.453 418.331 247.916 422.317 249.577 427.132L276.102 503.981L246.984 521.74V555.473Z" fill="#0181FE"/>
<path fill-rule="evenodd" clip-rule="evenodd" d="M260.465 513.52L247.171 521.626V441.928L260.465 513.52ZM118.226 555.472H131.626L152.773 464.245L131.23 509.663H127.313L106.945 550.774L118.226 555.472Z" fill="#0167CB"/>
<path fill-rule="evenodd" clip-rule="evenodd" d="M245.6 521.74V441.826H249.355V521.74H245.6ZM153.499 462.807C154.444 463.233 154.866 464.344 154.44 465.289L133.403 511.96L128.694 509.606C127.766 509.143 127.39 508.016 127.854 507.089C128.318 506.162 129.446 505.786 130.373 506.249L131.586 506.855L151.016 463.747C151.442 462.802 152.554 462.381 153.499 462.807Z" fill="black"/>
<path fill-rule="evenodd" clip-rule="evenodd" d="M213.583 402.517L214.415 419.136C214.086 425.055 212.441 436.894 199.61 437.387C186.779 437.881 175.428 434.921 169.013 419.136C165.336 410.086 164.141 400.329 163.94 393.528C169.028 392.837 173.513 392.327 176.909 392.004L207.505 399.404L213.583 402.517Z" fill="#0167CB"/>
<path fill-rule="evenodd" clip-rule="evenodd" d="M124.744 555.473H40.5044C48.6924 535.499 65.547 501.309 75.2484 482.277L129.533 507.928L108.313 550.352L124.744 555.473Z" fill="#EDAD92"/>
<path d="M168.519 392.99V352.54H173.947L209.973 382.138V419.628C209.644 423.903 207.999 431.468 199.61 432.453C172.653 435.624 168.026 406.638 168.519 392.99Z" fill="#EDAD92"/>
<path fill-rule="evenodd" clip-rule="evenodd" d="M204.255 377.439C191.368 367.591 174.772 355.149 170.147 352.54H169.098C175.608 389.664 196.744 401.208 209.973 404.259V382.138L204.255 377.439Z" fill="#A26956"/>
<path d="M209.003 391.604C234.622 395.873 241.382 347.139 239.964 320.105C220.319 327.789 195.836 325.441 185.516 322.239C184.662 329.923 180.178 338.958 178.043 342.515C171.637 331.844 160.961 329.71 158.827 338.247C156.264 352.76 164.876 357.1 169.502 357.455C170.57 364.925 178.898 386.588 209.003 391.604Z" fill="#EDAD92"/>
<path d="M206.872 349.507C205.596 349.507 204.562 348.06 204.562 346.274C204.562 344.489 205.596 343.042 206.872 343.042C208.148 343.042 209.182 344.489 209.182 346.274C209.182 348.06 208.148 349.507 206.872 349.507Z" fill="black"/>
<path d="M229.049 349.507C227.773 349.507 226.738 348.06 226.738 346.274C226.738 344.489 227.773 343.042 229.049 343.042C230.324 343.042 231.359 344.489 231.359 346.274C231.359 348.06 230.324 349.507 229.049 349.507Z" fill="black"/>
<path d="M206.872 331.957C210.201 331.957 212.096 332.696 213.048 333.406C213.493 333.738 213.199 334.266 212.644 334.266H201.359C200.864 334.266 200.55 333.813 200.91 333.474C201.685 332.744 203.436 331.957 206.872 331.957Z" fill="black"/>
<path d="M231.817 331.957C235.147 331.957 237.043 332.696 237.998 333.406C238.445 333.738 238.147 334.266 237.591 334.266H226.308C225.813 334.266 225.499 333.813 225.86 333.474C226.635 332.744 228.385 331.957 231.817 331.957Z" fill="black"/>
<path d="M224.655 360.189L221.663 349.222C221.442 348.414 220.276 348.47 220.134 349.296L218.14 360.927C218.051 361.447 218.492 361.906 219.016 361.836L224.002 361.171C224.472 361.108 224.779 360.646 224.655 360.189Z" fill="#A26956"/>
<path d="M208.62 366.688L223.272 368.362C223.668 368.407 223.969 368.741 223.934 369.138C223.674 372.016 221.78 376.512 215.65 375.83C209.606 375.159 207.934 370.372 207.794 367.423C207.773 366.974 208.173 366.637 208.62 366.688Z" fill="#FDF9F8"/>
<path d="M1.07825 27.8321C1.07825 13.056 13.0612 1.07764 27.8437 1.07764H654.156C668.944 1.07764 680.922 13.056 680.922 27.8321V63.9507H1.07825V27.8321Z" fill="#67B3FE"/>
<path d="M53.2709 45.2227C60.662 45.2227 66.6536 39.2335 66.6536 31.8455C66.6536 24.4575 60.662 18.4683 53.2709 18.4683C45.8798 18.4683 39.8882 24.4575 39.8882 31.8455C39.8882 39.2335 45.8798 45.2227 53.2709 45.2227Z" fill="white"/>
<path d="M98.7724 45.2227C106.163 45.2227 112.155 39.2335 112.155 31.8455C112.155 24.4575 106.163 18.4683 98.7724 18.4683C91.3813 18.4683 85.3896 24.4575 85.3896 31.8455C85.3896 39.2335 91.3813 45.2227 98.7724 45.2227Z" fill="white"/>
<path d="M144.274 45.2227C151.665 45.2227 157.656 39.2335 157.656 31.8455C157.656 24.4575 151.665 18.4683 144.274 18.4683C136.883 18.4683 130.891 24.4575 130.891 31.8455C130.891 39.2335 136.883 45.2227 144.274 45.2227Z" fill="white"/>
<path d="M252.674 509.412C265.239 509.412 275.425 499.231 275.425 486.671C275.425 474.111 265.239 463.93 252.674 463.93C240.109 463.93 229.923 474.111 229.923 486.671C229.923 499.231 240.109 509.412 252.674 509.412Z" fill="white"/>
<path d="M341 532.155C366.13 532.155 386.501 511.791 386.501 486.672C386.501 461.553 366.13 441.189 341 441.189C315.87 441.189 295.499 461.553 295.499 486.672C295.499 511.791 315.87 532.155 341 532.155Z" fill="white"/>
<path d="M429.326 509.412C441.891 509.412 452.077 499.231 452.077 486.671C452.077 474.111 441.891 463.93 429.326 463.93C416.761 463.93 406.575 474.111 406.575 486.671C406.575 499.231 416.761 509.412 429.326 509.412Z" fill="white"/>
<path d="M98.7048 139.951C98.7048 128.55 107.951 119.308 119.357 119.308H601.858C613.263 119.308 622.509 128.55 622.509 139.951V200.004C622.509 211.405 613.263 220.647 601.858 220.647H119.357C107.951 220.647 98.7048 211.405 98.7048 200.004V139.951Z" fill="white"/>
<path d="M305.223 329.494C305.223 318.093 314.469 308.851 325.875 308.851H613.122C624.528 308.851 633.774 318.093 633.774 329.494V363.274C633.774 374.675 624.528 383.917 613.122 383.917H325.875C314.469 383.917 305.223 374.675 305.223 363.274V329.494Z" fill="white"/>
<path d="M332.467 352.25C331.726 352.25 331.013 352.145 330.329 351.937C329.657 351.716 329.13 351.444 328.747 351.12L329.304 350.146C329.686 350.448 330.167 350.697 330.746 350.894C331.326 351.079 331.928 351.172 332.554 351.172C333.388 351.172 334.003 351.044 334.397 350.789C334.802 350.523 335.005 350.152 335.005 349.677C335.005 349.341 334.895 349.08 334.675 348.895C334.455 348.698 334.176 348.553 333.84 348.46C333.504 348.356 333.058 348.257 332.502 348.165C331.76 348.026 331.164 347.887 330.712 347.747C330.26 347.597 329.871 347.348 329.547 347C329.234 346.652 329.078 346.171 329.078 345.557C329.078 344.792 329.396 344.167 330.034 343.68C330.671 343.193 331.558 342.95 332.693 342.95C333.284 342.95 333.875 343.031 334.466 343.193C335.057 343.344 335.544 343.547 335.926 343.802L335.387 344.792C334.634 344.271 333.736 344.01 332.693 344.01C331.905 344.01 331.308 344.149 330.903 344.427C330.509 344.706 330.312 345.071 330.312 345.523C330.312 345.87 330.422 346.148 330.642 346.357C330.874 346.565 331.158 346.722 331.494 346.826C331.83 346.919 332.293 347.017 332.884 347.122C333.614 347.261 334.2 347.4 334.64 347.539C335.08 347.678 335.457 347.915 335.77 348.252C336.083 348.588 336.239 349.051 336.239 349.642C336.239 350.442 335.903 351.079 335.231 351.554C334.57 352.018 333.649 352.25 332.467 352.25ZM346.482 347.973H338.834C338.903 348.924 339.268 349.694 339.929 350.285C340.589 350.865 341.424 351.154 342.432 351.154C343 351.154 343.521 351.056 343.996 350.859C344.471 350.65 344.883 350.349 345.23 349.955L345.926 350.755C345.52 351.241 345.01 351.612 344.396 351.867C343.793 352.122 343.127 352.25 342.397 352.25C341.458 352.25 340.624 352.053 339.894 351.659C339.175 351.253 338.613 350.697 338.208 349.99C337.802 349.283 337.599 348.483 337.599 347.591C337.599 346.699 337.791 345.899 338.173 345.192C338.567 344.485 339.1 343.935 339.772 343.541C340.456 343.147 341.221 342.95 342.067 342.95C342.913 342.95 343.672 343.147 344.344 343.541C345.016 343.935 345.543 344.485 345.926 345.192C346.308 345.888 346.499 346.687 346.499 347.591L346.482 347.973ZM342.067 344.01C341.186 344.01 340.444 344.294 339.842 344.862C339.251 345.418 338.915 346.148 338.834 347.052H345.317C345.236 346.148 344.894 345.418 344.292 344.862C343.701 344.294 342.959 344.01 342.067 344.01ZM357.477 343.019V351.05C357.477 352.603 357.094 353.75 356.329 354.492C355.576 355.245 354.435 355.622 352.905 355.622C352.059 355.622 351.254 355.494 350.489 355.239C349.736 354.996 349.121 354.654 348.646 354.214L349.272 353.275C349.712 353.669 350.245 353.976 350.871 354.196C351.509 354.417 352.175 354.527 352.87 354.527C354.029 354.527 354.881 354.254 355.425 353.71C355.97 353.177 356.242 352.342 356.242 351.207V350.042C355.86 350.621 355.356 351.062 354.73 351.363C354.116 351.664 353.432 351.815 352.679 351.815C351.821 351.815 351.039 351.63 350.332 351.259C349.637 350.876 349.087 350.349 348.681 349.677C348.287 348.993 348.09 348.223 348.09 347.365C348.09 346.508 348.287 345.743 348.681 345.071C349.087 344.398 349.637 343.877 350.332 343.506C351.028 343.135 351.81 342.95 352.679 342.95C353.455 342.95 354.156 343.106 354.782 343.419C355.408 343.732 355.912 344.184 356.295 344.775V343.019H357.477ZM352.801 350.72C353.461 350.72 354.058 350.581 354.591 350.303C355.124 350.013 355.535 349.613 355.825 349.103C356.126 348.593 356.277 348.014 356.277 347.365C356.277 346.716 356.126 346.142 355.825 345.644C355.535 345.134 355.124 344.74 354.591 344.462C354.07 344.172 353.473 344.028 352.801 344.028C352.14 344.028 351.543 344.167 351.01 344.445C350.489 344.723 350.077 345.117 349.776 345.627C349.486 346.137 349.342 346.716 349.342 347.365C349.342 348.014 349.486 348.593 349.776 349.103C350.077 349.613 350.489 350.013 351.01 350.303C351.543 350.581 352.14 350.72 352.801 350.72ZM368.889 347.973H361.241C361.31 348.924 361.675 349.694 362.336 350.285C362.996 350.865 363.831 351.154 364.839 351.154C365.407 351.154 365.928 351.056 366.403 350.859C366.878 350.65 367.29 350.349 367.637 349.955L368.333 350.755C367.927 351.241 367.417 351.612 366.803 351.867C366.2 352.122 365.534 352.25 364.804 352.25C363.865 352.25 363.031 352.053 362.301 351.659C361.582 351.253 361.02 350.697 360.615 349.99C360.209 349.283 360.006 348.483 360.006 347.591C360.006 346.699 360.198 345.899 360.58 345.192C360.974 344.485 361.507 343.935 362.179 343.541C362.863 343.147 363.628 342.95 364.474 342.95C365.32 342.95 366.079 343.147 366.751 343.541C367.423 343.935 367.95 344.485 368.333 345.192C368.715 345.888 368.906 346.687 368.906 347.591L368.889 347.973ZM364.474 344.01C363.593 344.01 362.851 344.294 362.249 344.862C361.658 345.418 361.322 346.148 361.241 347.052H367.724C367.643 346.148 367.301 345.418 366.699 344.862C366.108 344.294 365.366 344.01 364.474 344.01ZM372.6 344.81C372.89 344.196 373.319 343.732 373.887 343.419C374.466 343.106 375.179 342.95 376.025 342.95V344.149L375.729 344.132C374.767 344.132 374.014 344.427 373.469 345.018C372.925 345.609 372.652 346.438 372.652 347.504V352.163H371.418V343.019H372.6V344.81ZM381.441 342.95C382.634 342.95 383.55 343.251 384.187 343.854C384.824 344.445 385.143 345.326 385.143 346.496V352.163H383.961V350.737C383.683 351.212 383.272 351.583 382.727 351.85C382.194 352.116 381.556 352.25 380.815 352.25C379.795 352.25 378.984 352.006 378.381 351.519C377.779 351.033 377.477 350.39 377.477 349.59C377.477 348.814 377.756 348.188 378.312 347.713C378.88 347.238 379.778 347 381.006 347H383.909V346.444C383.909 345.656 383.689 345.059 383.248 344.653C382.808 344.236 382.165 344.028 381.319 344.028C380.74 344.028 380.183 344.126 379.65 344.323C379.117 344.509 378.659 344.769 378.277 345.105L377.721 344.184C378.184 343.79 378.741 343.489 379.389 343.28C380.038 343.06 380.722 342.95 381.441 342.95ZM381.006 351.276C381.701 351.276 382.298 351.12 382.796 350.807C383.295 350.482 383.666 350.019 383.909 349.416V347.921H381.041C379.476 347.921 378.694 348.466 378.694 349.555C378.694 350.088 378.897 350.511 379.303 350.824C379.708 351.125 380.276 351.276 381.006 351.276ZM401.388 339.265V352.163H400.206V350.355C399.835 350.969 399.343 351.438 398.728 351.763C398.126 352.087 397.442 352.25 396.677 352.25C395.82 352.25 395.043 352.053 394.348 351.659C393.653 351.265 393.108 350.714 392.714 350.007C392.32 349.3 392.123 348.495 392.123 347.591C392.123 346.687 392.32 345.882 392.714 345.175C393.108 344.468 393.653 343.923 394.348 343.541C395.043 343.147 395.82 342.95 396.677 342.95C397.419 342.95 398.085 343.106 398.676 343.419C399.279 343.721 399.771 344.167 400.154 344.758V339.265H401.388ZM396.782 351.154C397.419 351.154 397.993 351.01 398.503 350.72C399.024 350.419 399.43 349.996 399.719 349.451C400.021 348.906 400.171 348.286 400.171 347.591C400.171 346.896 400.021 346.276 399.719 345.731C399.43 345.186 399.024 344.769 398.503 344.48C397.993 344.178 397.419 344.028 396.782 344.028C396.133 344.028 395.548 344.178 395.026 344.48C394.516 344.769 394.111 345.186 393.809 345.731C393.52 346.276 393.375 346.896 393.375 347.591C393.375 348.286 393.52 348.906 393.809 349.451C394.111 349.996 394.516 350.419 395.026 350.72C395.548 351.01 396.133 351.154 396.782 351.154ZM404.825 343.019H406.059V352.163H404.825V343.019ZM405.451 341.02C405.196 341.02 404.982 340.934 404.808 340.76C404.634 340.586 404.547 340.377 404.547 340.134C404.547 339.902 404.634 339.699 404.808 339.526C404.982 339.352 405.196 339.265 405.451 339.265C405.706 339.265 405.92 339.352 406.094 339.526C406.268 339.688 406.355 339.885 406.355 340.117C406.355 340.372 406.268 340.586 406.094 340.76C405.92 340.934 405.706 341.02 405.451 341.02ZM410.675 344.81C410.965 344.196 411.394 343.732 411.962 343.419C412.541 343.106 413.254 342.95 414.1 342.95V344.149L413.804 344.132C412.842 344.132 412.089 344.427 411.544 345.018C411 345.609 410.727 346.438 410.727 347.504V352.163H409.493V343.019H410.675V344.81ZM424.21 347.973H416.562C416.632 348.924 416.997 349.694 417.657 350.285C418.318 350.865 419.152 351.154 420.16 351.154C420.728 351.154 421.25 351.056 421.725 350.859C422.2 350.65 422.611 350.349 422.959 349.955L423.654 350.755C423.249 351.241 422.739 351.612 422.125 351.867C421.522 352.122 420.856 352.25 420.126 352.25C419.187 352.25 418.353 352.053 417.622 351.659C416.904 351.253 416.342 350.697 415.936 349.99C415.531 349.283 415.328 348.483 415.328 347.591C415.328 346.699 415.519 345.899 415.902 345.192C416.296 344.485 416.829 343.935 417.501 343.541C418.185 343.147 418.949 342.95 419.795 342.95C420.641 342.95 421.4 343.147 422.072 343.541C422.744 343.935 423.272 344.485 423.654 345.192C424.037 345.888 424.228 346.687 424.228 347.591L424.21 347.973ZM419.795 344.01C418.915 344.01 418.173 344.294 417.57 344.862C416.979 345.418 416.643 346.148 416.562 347.052H423.046C422.965 346.148 422.623 345.418 422.02 344.862C421.429 344.294 420.688 344.01 419.795 344.01ZM434.253 343.019L430.186 352.163H428.917L424.867 343.019H426.153L429.577 350.807L433.036 343.019H434.253ZM435.991 343.019H437.225V352.163H435.991V343.019ZM436.617 341.02C436.362 341.02 436.148 340.934 435.974 340.76C435.8 340.586 435.713 340.377 435.713 340.134C435.713 339.902 435.8 339.699 435.974 339.526C436.148 339.352 436.362 339.265 436.617 339.265C436.872 339.265 437.086 339.352 437.26 339.526C437.434 339.688 437.521 339.885 437.521 340.117C437.521 340.372 437.434 340.586 437.26 340.76C437.086 340.934 436.872 341.02 436.617 341.02ZM443.11 352.25C442.369 352.25 441.656 352.145 440.972 351.937C440.3 351.716 439.773 351.444 439.39 351.12L439.947 350.146C440.329 350.448 440.81 350.697 441.389 350.894C441.969 351.079 442.571 351.172 443.197 351.172C444.032 351.172 444.646 351.044 445.04 350.789C445.445 350.523 445.648 350.152 445.648 349.677C445.648 349.341 445.538 349.08 445.318 348.895C445.098 348.698 444.82 348.553 444.483 348.46C444.147 348.356 443.701 348.257 443.145 348.165C442.403 348.026 441.807 347.887 441.355 347.747C440.903 347.597 440.514 347.348 440.19 347C439.877 346.652 439.721 346.171 439.721 345.557C439.721 344.792 440.039 344.167 440.677 343.68C441.314 343.193 442.201 342.95 443.336 342.95C443.927 342.95 444.518 343.031 445.109 343.193C445.7 343.344 446.187 343.547 446.569 343.802L446.03 344.792C445.277 344.271 444.379 344.01 443.336 344.01C442.548 344.01 441.951 344.149 441.546 344.427C441.152 344.706 440.955 345.071 440.955 345.523C440.955 345.87 441.065 346.148 441.285 346.357C441.517 346.565 441.801 346.722 442.137 346.826C442.473 346.919 442.936 347.017 443.527 347.122C444.257 347.261 444.843 347.4 445.283 347.539C445.723 347.678 446.1 347.915 446.413 348.252C446.726 348.588 446.882 349.051 446.882 349.642C446.882 350.442 446.546 351.079 445.874 351.554C445.214 352.018 444.292 352.25 443.11 352.25ZM449.164 343.019H450.398V352.163H449.164V343.019ZM449.79 341.02C449.535 341.02 449.32 340.934 449.146 340.76C448.973 340.586 448.886 340.377 448.886 340.134C448.886 339.902 448.973 339.699 449.146 339.526C449.32 339.352 449.535 339.265 449.79 339.265C450.045 339.265 450.259 339.352 450.433 339.526C450.607 339.688 450.693 339.885 450.693 340.117C450.693 340.372 450.607 340.586 450.433 340.76C450.259 340.934 450.045 341.02 449.79 341.02ZM463.092 342.95C463.949 342.95 464.726 343.147 465.421 343.541C466.116 343.923 466.661 344.468 467.055 345.175C467.449 345.882 467.646 346.687 467.646 347.591C467.646 348.506 467.449 349.318 467.055 350.025C466.661 350.731 466.116 351.282 465.421 351.676C464.737 352.058 463.961 352.25 463.092 352.25C462.35 352.25 461.678 352.099 461.075 351.798C460.484 351.485 459.998 351.033 459.615 350.442V355.535H458.381V343.019H459.563V344.827C459.934 344.225 460.421 343.761 461.023 343.437C461.638 343.112 462.327 342.95 463.092 342.95ZM463.005 351.154C463.642 351.154 464.222 351.01 464.743 350.72C465.265 350.419 465.67 349.996 465.96 349.451C466.261 348.906 466.412 348.286 466.412 347.591C466.412 346.896 466.261 346.282 465.96 345.748C465.67 345.204 465.265 344.781 464.743 344.48C464.222 344.178 463.642 344.028 463.005 344.028C462.356 344.028 461.771 344.178 461.249 344.48C460.739 344.781 460.334 345.204 460.033 345.748C459.743 346.282 459.598 346.896 459.598 347.591C459.598 348.286 459.743 348.906 460.033 349.451C460.334 349.996 460.739 350.419 461.249 350.72C461.771 351.01 462.356 351.154 463.005 351.154ZM473.309 342.95C474.503 342.95 475.418 343.251 476.056 343.854C476.693 344.445 477.012 345.326 477.012 346.496V352.163H475.83V350.737C475.552 351.212 475.14 351.583 474.596 351.85C474.063 352.116 473.425 352.25 472.684 352.25C471.664 352.25 470.853 352.006 470.25 351.519C469.647 351.033 469.346 350.39 469.346 349.59C469.346 348.814 469.624 348.188 470.18 347.713C470.748 347.238 471.646 347 472.875 347H475.778V346.444C475.778 345.656 475.557 345.059 475.117 344.653C474.677 344.236 474.034 344.028 473.188 344.028C472.608 344.028 472.052 344.126 471.519 344.323C470.986 344.509 470.528 344.769 470.146 345.105L469.589 344.184C470.053 343.79 470.609 343.489 471.258 343.28C471.907 343.06 472.591 342.95 473.309 342.95ZM472.875 351.276C473.57 351.276 474.167 351.12 474.665 350.807C475.163 350.482 475.534 350.019 475.778 349.416V347.921H472.91C471.345 347.921 470.563 348.466 470.563 349.555C470.563 350.088 470.766 350.511 471.171 350.824C471.577 351.125 472.145 351.276 472.875 351.276ZM483.753 347.574L481.598 349.555V352.163H480.364V339.265H481.598V348.008L487.056 343.019H488.586L484.675 346.757L488.951 352.163H487.438L483.753 347.574ZM491.112 350.355C491.379 350.355 491.599 350.448 491.773 350.633C491.947 350.807 492.034 351.027 492.034 351.293C492.034 351.433 492.01 351.583 491.964 351.745C491.929 351.908 491.871 352.093 491.79 352.302L491.06 354.7H490.226L490.817 352.18C490.631 352.122 490.481 352.018 490.365 351.867C490.249 351.705 490.191 351.514 490.191 351.293C490.191 351.027 490.278 350.807 490.452 350.633C490.626 350.448 490.846 350.355 491.112 350.355ZM504.021 351.606C503.789 351.815 503.5 351.977 503.152 352.093C502.816 352.197 502.462 352.25 502.092 352.25C501.234 352.25 500.574 352.018 500.11 351.554C499.646 351.091 499.415 350.436 499.415 349.59V344.062H497.781V343.019H499.415V341.02H500.649V343.019H503.43V344.062H500.649V349.52C500.649 350.065 500.782 350.482 501.049 350.772C501.327 351.05 501.721 351.189 502.231 351.189C502.486 351.189 502.729 351.149 502.961 351.068C503.204 350.986 503.413 350.871 503.586 350.72L504.021 351.606ZM513.906 347.973H506.258C506.328 348.924 506.693 349.694 507.353 350.285C508.014 350.865 508.848 351.154 509.856 351.154C510.424 351.154 510.946 351.056 511.421 350.859C511.896 350.65 512.307 350.349 512.655 349.955L513.35 350.755C512.944 351.241 512.435 351.612 511.82 351.867C511.218 352.122 510.552 352.25 509.821 352.25C508.883 352.25 508.048 352.053 507.318 351.659C506.6 351.253 506.038 350.697 505.632 349.99C505.227 349.283 505.024 348.483 505.024 347.591C505.024 346.699 505.215 345.899 505.598 345.192C505.992 344.485 506.525 343.935 507.197 343.541C507.88 343.147 508.645 342.95 509.491 342.95C510.337 342.95 511.096 343.147 511.768 343.541C512.44 343.935 512.968 344.485 513.35 345.192C513.732 345.888 513.924 346.687 513.924 347.591L513.906 347.973ZM509.491 344.01C508.61 344.01 507.869 344.294 507.266 344.862C506.675 345.418 506.339 346.148 506.258 347.052H512.742C512.661 346.148 512.319 345.418 511.716 344.862C511.125 344.294 510.383 344.01 509.491 344.01ZM517.618 344.81C517.907 344.196 518.336 343.732 518.904 343.419C519.483 343.106 520.196 342.95 521.042 342.95V344.149L520.747 344.132C519.785 344.132 519.031 344.427 518.487 345.018C517.942 345.609 517.67 346.438 517.67 347.504V352.163H516.436V343.019H517.618V344.81ZM523.277 343.019H524.511V352.163H523.277V343.019ZM523.902 341.02C523.647 341.02 523.433 340.934 523.259 340.76C523.085 340.586 522.999 340.377 522.999 340.134C522.999 339.902 523.085 339.699 523.259 339.526C523.433 339.352 523.647 339.265 523.902 339.265C524.157 339.265 524.372 339.352 524.546 339.526C524.719 339.688 524.806 339.885 524.806 340.117C524.806 340.372 524.719 340.586 524.546 340.76C524.372 340.934 524.157 341.02 523.902 341.02ZM539.348 342.95C540.495 342.95 541.393 343.28 542.042 343.941C542.702 344.601 543.033 345.575 543.033 346.861V352.163H541.799V346.983C541.799 346.032 541.567 345.308 541.103 344.81C540.651 344.312 540.008 344.062 539.174 344.062C538.224 344.062 537.476 344.358 536.931 344.949C536.387 345.528 536.115 346.334 536.115 347.365V352.163H534.88V346.983C534.88 346.032 534.649 345.308 534.185 344.81C533.733 344.312 533.084 344.062 532.238 344.062C531.3 344.062 530.552 344.358 529.996 344.949C529.451 345.528 529.179 346.334 529.179 347.365V352.163H527.945V343.019H529.127V344.688C529.451 344.132 529.903 343.703 530.483 343.402C531.062 343.101 531.728 342.95 532.482 342.95C533.246 342.95 533.907 343.112 534.463 343.437C535.031 343.761 535.454 344.242 535.732 344.879C536.068 344.277 536.549 343.807 537.175 343.471C537.812 343.124 538.536 342.95 539.348 342.95ZM549.578 342.95C550.772 342.95 551.687 343.251 552.324 343.854C552.962 344.445 553.28 345.326 553.28 346.496V352.163H552.098V350.737C551.82 351.212 551.409 351.583 550.864 351.85C550.331 352.116 549.694 352.25 548.952 352.25C547.932 352.25 547.121 352.006 546.519 351.519C545.916 351.033 545.615 350.39 545.615 349.59C545.615 348.814 545.893 348.188 546.449 347.713C547.017 347.238 547.915 347 549.143 347H552.046V346.444C552.046 345.656 551.826 345.059 551.386 344.653C550.945 344.236 550.302 344.028 549.456 344.028C548.877 344.028 548.321 344.126 547.788 344.323C547.255 344.509 546.797 344.769 546.414 345.105L545.858 344.184C546.322 343.79 546.878 343.489 547.527 343.28C548.176 343.06 548.86 342.95 549.578 342.95ZM549.143 351.276C549.839 351.276 550.436 351.12 550.934 350.807C551.432 350.482 551.803 350.019 552.046 349.416V347.921H549.178C547.614 347.921 546.832 348.466 546.832 349.555C546.832 350.088 547.034 350.511 547.44 350.824C547.846 351.125 548.413 351.276 549.143 351.276ZM564.571 347.574L562.416 349.555V352.163H561.182V339.265H562.416V348.008L567.874 343.019H569.404L565.493 346.757L569.769 352.163H568.256L564.571 347.574ZM574.65 342.95C575.844 342.95 576.759 343.251 577.396 343.854C578.034 344.445 578.353 345.326 578.353 346.496V352.163H577.171V350.737C576.892 351.212 576.481 351.583 575.936 351.85C575.403 352.116 574.766 352.25 574.024 352.25C573.005 352.25 572.193 352.006 571.591 351.519C570.988 351.033 570.687 350.39 570.687 349.59C570.687 348.814 570.965 348.188 571.521 347.713C572.089 347.238 572.987 347 574.215 347H577.118V346.444C577.118 345.656 576.898 345.059 576.458 344.653C576.017 344.236 575.374 344.028 574.528 344.028C573.949 344.028 573.393 344.126 572.86 344.323C572.327 344.509 571.869 344.769 571.486 345.105L570.93 344.184C571.394 343.79 571.95 343.489 572.599 343.28C573.248 343.06 573.932 342.95 574.65 342.95ZM574.215 351.276C574.911 351.276 575.508 351.12 576.006 350.807C576.504 350.482 576.875 350.019 577.118 349.416V347.921H574.25C572.686 347.921 571.904 348.466 571.904 349.555C571.904 350.088 572.106 350.511 572.512 350.824C572.918 351.125 573.485 351.276 574.215 351.276ZM584.156 352.25C583.414 352.25 582.701 352.145 582.017 351.937C581.345 351.716 580.818 351.444 580.436 351.12L580.992 350.146C581.374 350.448 581.855 350.697 582.435 350.894C583.014 351.079 583.617 351.172 584.242 351.172C585.077 351.172 585.691 351.044 586.085 350.789C586.491 350.523 586.693 350.152 586.693 349.677C586.693 349.341 586.583 349.08 586.363 348.895C586.143 348.698 585.865 348.553 585.529 348.46C585.193 348.356 584.747 348.257 584.19 348.165C583.449 348.026 582.852 347.887 582.4 347.747C581.948 347.597 581.56 347.348 581.235 347C580.922 346.652 580.766 346.171 580.766 345.557C580.766 344.792 581.085 344.167 581.722 343.68C582.359 343.193 583.246 342.95 584.381 342.95C584.972 342.95 585.564 343.031 586.155 343.193C586.746 343.344 587.232 343.547 587.615 343.802L587.076 344.792C586.323 344.271 585.424 344.01 584.381 344.01C583.593 344.01 582.997 344.149 582.591 344.427C582.197 344.706 582 345.071 582 345.523C582 345.87 582.11 346.148 582.33 346.357C582.562 346.565 582.846 346.722 583.182 346.826C583.518 346.919 583.982 347.017 584.573 347.122C585.303 347.261 585.888 347.4 586.328 347.539C586.769 347.678 587.145 347.915 587.458 348.252C587.771 348.588 587.928 349.051 587.928 349.642C587.928 350.442 587.591 351.079 586.919 351.554C586.259 352.018 585.338 352.25 584.156 352.25ZM590.209 343.019H591.443V352.163H590.209V343.019ZM590.835 341.02C590.58 341.02 590.366 340.934 590.192 340.76C590.018 340.586 589.931 340.377 589.931 340.134C589.931 339.902 590.018 339.699 590.192 339.526C590.366 339.352 590.58 339.265 590.835 339.265C591.09 339.265 591.304 339.352 591.478 339.526C591.652 339.688 591.739 339.885 591.739 340.117C591.739 340.372 591.652 340.586 591.478 340.76C591.304 340.934 591.09 341.02 590.835 341.02ZM599.536 342.95C600.683 342.95 601.593 343.286 602.265 343.958C602.948 344.619 603.29 345.586 603.29 346.861V352.163H602.056V346.983C602.056 346.032 601.819 345.308 601.343 344.81C600.868 344.312 600.19 344.062 599.31 344.062C598.325 344.062 597.543 344.358 596.963 344.949C596.395 345.528 596.111 346.334 596.111 347.365V352.163H594.877V339.265H596.111V344.619C596.447 344.086 596.911 343.674 597.502 343.384C598.093 343.095 598.771 342.95 599.536 342.95ZM606.763 352.25C606.508 352.25 606.287 352.157 606.102 351.971C605.928 351.786 605.841 351.56 605.841 351.293C605.841 351.027 605.928 350.807 606.102 350.633C606.287 350.448 606.508 350.355 606.763 350.355C607.017 350.355 607.238 350.448 607.423 350.633C607.608 350.807 607.701 351.027 607.701 351.293C607.701 351.56 607.608 351.786 607.423 351.971C607.238 352.157 607.017 352.25 606.763 352.25Z" fill="black"/>
<path d="M191.638 259.119V216.894H208.535L191.638 259.119Z" fill="white"/>
<path d="M134.755 153.023C135.72 153.233 136.462 153.653 136.979 154.282C137.511 154.897 137.776 155.694 137.776 156.672C137.776 157.931 137.308 158.902 136.371 159.587C135.448 160.258 134.077 160.594 132.259 160.594H125.503V145.914H131.839C133.476 145.914 134.741 146.243 135.636 146.9C136.545 147.557 137 148.487 137 149.689C137 150.5 136.797 151.192 136.392 151.765C136 152.324 135.455 152.744 134.755 153.023ZM127.056 147.194V152.52H131.734C132.923 152.52 133.839 152.297 134.483 151.849C135.126 151.388 135.448 150.724 135.448 149.857C135.448 148.99 135.126 148.333 134.483 147.886C133.839 147.424 132.923 147.194 131.734 147.194H127.056ZM132.238 159.315C133.552 159.315 134.545 159.091 135.217 158.644C135.888 158.196 136.224 157.497 136.224 156.547C136.224 154.715 134.895 153.799 132.238 153.799H127.056V159.315H132.238Z" fill="black"/>
<path d="M150.53 156.672H142.348L140.585 160.594H138.97L145.683 145.914H147.215L153.928 160.594H152.292L150.53 156.672ZM149.963 155.414L146.439 147.529L142.914 155.414H149.963Z" fill="black"/>
<path d="M165.609 153.023C166.574 153.233 167.316 153.653 167.833 154.282C168.365 154.897 168.63 155.694 168.63 156.672C168.63 157.931 168.162 158.902 167.225 159.587C166.302 160.258 164.931 160.594 163.113 160.594H156.358V145.914H162.693C164.33 145.914 165.595 146.243 166.491 146.9C167.4 147.557 167.854 148.487 167.854 149.689C167.854 150.5 167.651 151.192 167.246 151.765C166.854 152.324 166.309 152.744 165.609 153.023ZM157.91 147.194V152.52H162.588C163.777 152.52 164.693 152.297 165.337 151.849C165.98 151.388 166.302 150.724 166.302 149.857C166.302 148.99 165.98 148.333 165.337 147.886C164.693 147.424 163.777 147.194 162.588 147.194H157.91ZM163.092 159.315C164.407 159.315 165.4 159.091 166.071 158.644C166.742 158.196 167.078 157.497 167.078 156.547C167.078 154.715 165.749 153.799 163.092 153.799H157.91V159.315H163.092Z" fill="black"/>
<path d="M180.434 145.914V160.594H178.923V147.257H175.462V145.914H180.434Z" fill="black"/>
<path d="M196.106 149.479C197.141 149.479 198.078 149.717 198.918 150.192C199.757 150.654 200.414 151.311 200.89 152.164C201.365 153.016 201.603 153.988 201.603 155.079C201.603 156.169 201.365 157.141 200.89 157.994C200.414 158.846 199.757 159.51 198.918 159.986C198.078 160.461 197.141 160.699 196.106 160.699C195.183 160.699 194.351 160.503 193.61 160.112C192.883 159.72 192.295 159.154 191.848 158.413V160.594H190.421V145.034H191.91V151.66C192.372 150.947 192.959 150.409 193.673 150.046C194.4 149.668 195.211 149.479 196.106 149.479ZM196.001 159.378C196.771 159.378 197.47 159.203 198.099 158.853C198.729 158.49 199.218 157.98 199.568 157.322C199.932 156.665 200.113 155.917 200.113 155.079C200.113 154.24 199.932 153.492 199.568 152.835C199.218 152.178 198.729 151.674 198.099 151.325C197.47 150.961 196.771 150.78 196.001 150.78C195.218 150.78 194.512 150.961 193.883 151.325C193.267 151.674 192.778 152.178 192.414 152.835C192.064 153.492 191.89 154.24 191.89 155.079C191.89 155.917 192.064 156.665 192.414 157.322C192.778 157.98 193.267 158.49 193.883 158.853C194.512 159.203 195.218 159.378 196.001 159.378Z" fill="black"/>
<path d="M204.639 149.563H206.129V160.594H204.639V149.563ZM205.395 147.152C205.087 147.152 204.828 147.047 204.618 146.837C204.409 146.627 204.304 146.376 204.304 146.082C204.304 145.803 204.409 145.558 204.618 145.348C204.828 145.139 205.087 145.034 205.395 145.034C205.702 145.034 205.961 145.139 206.171 145.348C206.381 145.544 206.485 145.782 206.485 146.061C206.485 146.369 206.381 146.627 206.171 146.837C205.961 147.047 205.702 147.152 205.395 147.152Z" fill="black"/>
<path d="M213.231 160.699C212.336 160.699 211.476 160.573 210.651 160.321C209.84 160.056 209.203 159.727 208.742 159.336L209.413 158.161C209.875 158.525 210.455 158.825 211.155 159.063C211.854 159.287 212.581 159.399 213.336 159.399C214.343 159.399 215.085 159.245 215.56 158.937C216.05 158.616 216.294 158.168 216.294 157.595C216.294 157.19 216.162 156.875 215.896 156.651C215.63 156.414 215.294 156.239 214.889 156.127C214.483 156.001 213.945 155.882 213.273 155.771C212.378 155.603 211.658 155.435 211.113 155.267C210.567 155.086 210.099 154.785 209.707 154.366C209.329 153.946 209.14 153.366 209.14 152.625C209.14 151.702 209.525 150.947 210.294 150.36C211.064 149.773 212.134 149.479 213.504 149.479C214.217 149.479 214.931 149.577 215.644 149.773C216.357 149.955 216.945 150.199 217.406 150.507L216.756 151.702C215.847 151.073 214.763 150.759 213.504 150.759C212.553 150.759 211.833 150.926 211.343 151.262C210.868 151.597 210.63 152.038 210.63 152.583C210.63 153.003 210.763 153.338 211.029 153.59C211.308 153.841 211.651 154.03 212.057 154.156C212.462 154.268 213.022 154.387 213.735 154.512C214.616 154.68 215.322 154.848 215.854 155.016C216.385 155.183 216.84 155.47 217.217 155.875C217.595 156.281 217.784 156.84 217.784 157.553C217.784 158.518 217.378 159.287 216.567 159.86C215.77 160.419 214.658 160.699 213.231 160.699Z" fill="black"/>
<path d="M224.398 149.479C225.838 149.479 226.943 149.843 227.713 150.57C228.482 151.283 228.866 152.345 228.866 153.757V160.594H227.44V158.874C227.104 159.447 226.608 159.895 225.95 160.216C225.307 160.538 224.538 160.699 223.643 160.699C222.412 160.699 221.433 160.405 220.705 159.818C219.978 159.231 219.615 158.455 219.615 157.49C219.615 156.554 219.95 155.799 220.622 155.225C221.307 154.652 222.391 154.366 223.873 154.366H227.377V153.695C227.377 152.744 227.111 152.024 226.58 151.535C226.048 151.031 225.272 150.78 224.251 150.78C223.552 150.78 222.88 150.898 222.237 151.136C221.594 151.36 221.041 151.674 220.58 152.08L219.908 150.968C220.468 150.493 221.139 150.13 221.922 149.878C222.705 149.612 223.531 149.479 224.398 149.479ZM223.873 159.524C224.712 159.524 225.433 159.336 226.034 158.958C226.636 158.567 227.083 158.007 227.377 157.281V155.477H223.915C222.027 155.477 221.083 156.134 221.083 157.448C221.083 158.091 221.328 158.602 221.817 158.979C222.307 159.343 222.992 159.524 223.873 159.524Z" fill="black"/>
<path d="M248.473 145.034V160.594H247.046V158.413C246.599 159.154 246.004 159.72 245.263 160.112C244.536 160.503 243.71 160.699 242.787 160.699C241.752 160.699 240.815 160.461 239.976 159.986C239.137 159.51 238.48 158.846 238.004 157.994C237.529 157.141 237.291 156.169 237.291 155.079C237.291 153.988 237.529 153.016 238.004 152.164C238.48 151.311 239.137 150.654 239.976 150.192C240.815 149.717 241.752 149.479 242.787 149.479C243.682 149.479 244.487 149.668 245.2 150.046C245.927 150.409 246.522 150.947 246.983 151.66V145.034H248.473ZM242.913 159.378C243.682 159.378 244.375 159.203 244.99 158.853C245.62 158.49 246.109 157.98 246.459 157.322C246.822 156.665 247.004 155.917 247.004 155.079C247.004 154.24 246.822 153.492 246.459 152.835C246.109 152.178 245.62 151.674 244.99 151.325C244.375 150.961 243.682 150.78 242.913 150.78C242.13 150.78 241.424 150.961 240.794 151.325C240.179 151.674 239.689 152.178 239.326 152.835C238.976 153.492 238.801 154.24 238.801 155.079C238.801 155.917 238.976 156.665 239.326 157.322C239.689 157.98 240.179 158.49 240.794 158.853C241.424 159.203 242.13 159.378 242.913 159.378Z" fill="black"/>
<path d="M252.621 149.563H254.111V160.594H252.621V149.563ZM253.376 147.152C253.069 147.152 252.81 147.047 252.6 146.837C252.39 146.627 252.285 146.376 252.285 146.082C252.285 145.803 252.39 145.558 252.6 145.348C252.81 145.139 253.069 145.034 253.376 145.034C253.684 145.034 253.943 145.139 254.153 145.348C254.362 145.544 254.467 145.782 254.467 146.061C254.467 146.369 254.362 146.627 254.153 146.837C253.943 147.047 253.684 147.152 253.376 147.152Z" fill="black"/>
<path d="M262.829 160.699C261.738 160.699 260.759 160.461 259.892 159.986C259.038 159.51 258.367 158.846 257.878 157.994C257.388 157.127 257.143 156.155 257.143 155.079C257.143 154.002 257.388 153.037 257.878 152.185C258.367 151.332 259.038 150.668 259.892 150.192C260.759 149.717 261.738 149.479 262.829 149.479C263.78 149.479 264.626 149.668 265.367 150.046C266.122 150.409 266.717 150.947 267.15 151.66L266.038 152.415C265.675 151.87 265.213 151.465 264.654 151.199C264.094 150.919 263.486 150.78 262.829 150.78C262.031 150.78 261.311 150.961 260.668 151.325C260.038 151.674 259.542 152.178 259.178 152.835C258.829 153.492 258.654 154.24 258.654 155.079C258.654 155.931 258.829 156.686 259.178 157.343C259.542 157.987 260.038 158.49 260.668 158.853C261.311 159.203 262.031 159.378 262.829 159.378C263.486 159.378 264.094 159.245 264.654 158.979C265.213 158.714 265.675 158.308 266.038 157.763L267.15 158.518C266.717 159.231 266.122 159.776 265.367 160.153C264.612 160.517 263.766 160.699 262.829 160.699Z" fill="black"/>
<path d="M279.501 155.54H270.27C270.354 156.686 270.794 157.616 271.591 158.329C272.389 159.028 273.396 159.378 274.612 159.378C275.298 159.378 275.927 159.259 276.501 159.021C277.074 158.769 277.57 158.406 277.99 157.931L278.829 158.895C278.34 159.482 277.724 159.93 276.983 160.237C276.256 160.545 275.452 160.699 274.57 160.699C273.438 160.699 272.431 160.461 271.549 159.986C270.682 159.496 270.004 158.825 269.514 157.973C269.025 157.12 268.78 156.155 268.78 155.079C268.78 154.002 269.011 153.037 269.472 152.185C269.948 151.332 270.591 150.668 271.403 150.192C272.228 149.717 273.151 149.479 274.172 149.479C275.193 149.479 276.109 149.717 276.92 150.192C277.731 150.668 278.368 151.332 278.829 152.185C279.291 153.023 279.521 153.988 279.521 155.079L279.501 155.54ZM274.172 150.759C273.109 150.759 272.214 151.101 271.486 151.786C270.773 152.457 270.368 153.338 270.27 154.429H278.095C277.997 153.338 277.584 152.457 276.857 151.786C276.144 151.101 275.249 150.759 274.172 150.759Z" fill="black"/>
<path d="M286.644 155.058L284.043 157.448V160.594H282.553V145.034H284.043V155.582L290.63 149.563H292.477L287.756 154.072L292.917 160.594H291.092L286.644 155.058Z" fill="black"/>
<path d="M300.644 145.034H302.133V160.594H300.644V145.034Z" fill="black"/>
<path d="M310.138 149.479C311.579 149.479 312.684 149.843 313.453 150.57C314.222 151.283 314.607 152.345 314.607 153.757V160.594H313.18V158.874C312.844 159.447 312.348 159.895 311.691 160.216C311.047 160.538 310.278 160.699 309.383 160.699C308.152 160.699 307.173 160.405 306.446 159.818C305.718 159.231 305.355 158.455 305.355 157.49C305.355 156.554 305.69 155.799 306.362 155.225C307.047 154.652 308.131 154.366 309.614 154.366H313.117V153.695C313.117 152.744 312.851 152.024 312.32 151.535C311.788 151.031 311.012 150.78 309.991 150.78C309.292 150.78 308.621 150.898 307.977 151.136C307.334 151.36 306.781 151.674 306.32 152.08L305.648 150.968C306.208 150.493 306.879 150.13 307.662 149.878C308.446 149.612 309.271 149.479 310.138 149.479ZM309.614 159.524C310.453 159.524 311.173 159.336 311.774 158.958C312.376 158.567 312.823 158.007 313.117 157.281V155.477H309.656C307.767 155.477 306.823 156.134 306.823 157.448C306.823 158.091 307.068 158.602 307.558 158.979C308.047 159.343 308.732 159.524 309.614 159.524Z" fill="black"/>
<path d="M328.91 149.563V159.252C328.91 161.125 328.449 162.509 327.526 163.404C326.616 164.313 325.239 164.767 323.393 164.767C322.372 164.767 321.4 164.613 320.477 164.306C319.567 164.012 318.826 163.6 318.253 163.068L319.008 161.936C319.539 162.411 320.183 162.782 320.938 163.047C321.707 163.313 322.512 163.446 323.351 163.446C324.749 163.446 325.777 163.117 326.435 162.46C327.092 161.817 327.421 160.811 327.421 159.44V158.035C326.959 158.734 326.351 159.266 325.595 159.629C324.854 159.993 324.029 160.174 323.12 160.174C322.085 160.174 321.141 159.951 320.288 159.503C319.449 159.042 318.784 158.406 318.295 157.595C317.819 156.77 317.581 155.841 317.581 154.806C317.581 153.771 317.819 152.849 318.295 152.038C318.784 151.227 319.449 150.598 320.288 150.151C321.127 149.703 322.071 149.479 323.12 149.479C324.057 149.479 324.903 149.668 325.658 150.046C326.414 150.423 327.022 150.968 327.484 151.681V149.563H328.91ZM323.267 158.853C324.064 158.853 324.784 158.686 325.428 158.35C326.071 158.001 326.568 157.518 326.917 156.903C327.281 156.288 327.463 155.589 327.463 154.806C327.463 154.023 327.281 153.331 326.917 152.73C326.568 152.115 326.071 151.639 325.428 151.304C324.798 150.954 324.078 150.78 323.267 150.78C322.47 150.78 321.749 150.947 321.106 151.283C320.477 151.618 319.98 152.094 319.616 152.709C319.267 153.324 319.092 154.023 319.092 154.806C319.092 155.589 319.267 156.288 319.616 156.903C319.98 157.518 320.477 158.001 321.106 158.35C321.749 158.686 322.47 158.853 323.267 158.853Z" fill="black"/>
<path d="M333.076 149.563H334.565V160.594H333.076V149.563ZM333.831 147.152C333.523 147.152 333.264 147.047 333.055 146.837C332.845 146.627 332.74 146.376 332.74 146.082C332.74 145.803 332.845 145.558 333.055 145.348C333.264 145.139 333.523 145.034 333.831 145.034C334.138 145.034 334.397 145.139 334.607 145.348C334.817 145.544 334.922 145.782 334.922 146.061C334.922 146.369 334.817 146.627 334.607 146.837C334.397 147.047 334.138 147.152 333.831 147.152Z" fill="black"/>
<path d="M353.473 149.563L347.956 161.915C347.508 162.95 346.99 163.684 346.403 164.117C345.816 164.55 345.109 164.767 344.284 164.767C343.753 164.767 343.256 164.683 342.795 164.515C342.333 164.348 341.935 164.096 341.599 163.76L342.291 162.649C342.851 163.208 343.522 163.488 344.305 163.488C344.809 163.488 345.235 163.348 345.585 163.068C345.949 162.789 346.284 162.313 346.592 161.642L347.074 160.573L342.144 149.563H343.697L347.851 158.937L352.005 149.563H353.473Z" fill="black"/>
<path d="M359.103 149.479C360.544 149.479 361.649 149.843 362.418 150.57C363.187 151.283 363.572 152.345 363.572 153.757V160.594H362.145V158.874C361.81 159.447 361.313 159.895 360.656 160.216C360.012 160.538 359.243 160.699 358.348 160.699C357.117 160.699 356.138 160.405 355.411 159.818C354.684 159.231 354.32 158.455 354.32 157.49C354.32 156.554 354.656 155.799 355.327 155.225C356.012 154.652 357.096 154.366 358.579 154.366H362.082V153.695C362.082 152.744 361.817 152.024 361.285 151.535C360.754 151.031 359.977 150.78 358.956 150.78C358.257 150.78 357.586 150.898 356.942 151.136C356.299 151.36 355.747 151.674 355.285 152.08L354.614 150.968C355.173 150.493 355.844 150.13 356.628 149.878C357.411 149.612 358.236 149.479 359.103 149.479ZM358.579 159.524C359.418 159.524 360.138 159.336 360.74 158.958C361.341 158.567 361.789 158.007 362.082 157.281V155.477H358.621C356.733 155.477 355.788 156.134 355.788 157.448C355.788 158.091 356.033 158.602 356.523 158.979C357.012 159.343 357.698 159.524 358.579 159.524Z" fill="black"/>
<path d="M378.794 149.479C379.828 149.479 380.766 149.717 381.605 150.192C382.444 150.654 383.101 151.311 383.577 152.164C384.052 153.016 384.29 153.988 384.29 155.079C384.29 156.169 384.052 157.141 383.577 157.994C383.101 158.846 382.444 159.51 381.605 159.986C380.766 160.461 379.828 160.699 378.794 160.699C377.87 160.699 377.038 160.503 376.297 160.112C375.57 159.72 374.982 159.154 374.535 158.413V160.594H373.108V145.034H374.598V151.66C375.059 150.947 375.647 150.409 376.36 150.046C377.087 149.668 377.898 149.479 378.794 149.479ZM378.689 159.378C379.458 159.378 380.157 159.203 380.787 158.853C381.416 158.49 381.905 157.98 382.255 157.322C382.619 156.665 382.801 155.917 382.801 155.079C382.801 154.24 382.619 153.492 382.255 152.835C381.905 152.178 381.416 151.674 380.787 151.325C380.157 150.961 379.458 150.78 378.689 150.78C377.905 150.78 377.199 150.961 376.57 151.325C375.954 151.674 375.465 152.178 375.101 152.835C374.752 153.492 374.577 154.24 374.577 155.079C374.577 155.917 374.752 156.665 375.101 157.322C375.465 157.98 375.954 158.49 376.57 158.853C377.199 159.203 377.905 159.378 378.689 159.378Z" fill="black"/>
<path d="M391.125 149.479C392.566 149.479 393.671 149.843 394.44 150.57C395.209 151.283 395.594 152.345 395.594 153.757V160.594H394.167V158.874C393.831 159.447 393.335 159.895 392.678 160.216C392.034 160.538 391.265 160.699 390.37 160.699C389.139 160.699 388.16 160.405 387.433 159.818C386.706 159.231 386.342 158.455 386.342 157.49C386.342 156.554 386.678 155.799 387.349 155.225C388.034 154.652 389.118 154.366 390.601 154.366H394.104V153.695C394.104 152.744 393.839 152.024 393.307 151.535C392.776 151.031 391.999 150.78 390.978 150.78C390.279 150.78 389.608 150.898 388.964 151.136C388.321 151.36 387.769 151.674 387.307 152.08L386.636 150.968C387.195 150.493 387.866 150.13 388.65 149.878C389.433 149.612 390.258 149.479 391.125 149.479ZM390.601 159.524C391.44 159.524 392.16 159.336 392.762 158.958C393.363 158.567 393.811 158.007 394.104 157.281V155.477H390.643C388.755 155.477 387.81 156.134 387.81 157.448C387.81 158.091 388.055 158.602 388.545 158.979C389.034 159.343 389.72 159.524 390.601 159.524Z" fill="black"/>
<path d="M409.897 149.563V159.252C409.897 161.125 409.436 162.509 408.513 163.404C407.604 164.313 406.226 164.767 404.38 164.767C403.359 164.767 402.387 164.613 401.464 164.306C400.555 164.012 399.813 163.6 399.24 163.068L399.995 161.936C400.527 162.411 401.17 162.782 401.925 163.047C402.694 163.313 403.499 163.446 404.338 163.446C405.736 163.446 406.764 163.117 407.422 162.46C408.079 161.817 408.408 160.811 408.408 159.44V158.035C407.946 158.734 407.338 159.266 406.583 159.629C405.841 159.993 405.016 160.174 404.107 160.174C403.072 160.174 402.128 159.951 401.275 159.503C400.436 159.042 399.771 158.406 399.282 157.595C398.806 156.77 398.569 155.841 398.569 154.806C398.569 153.771 398.806 152.849 399.282 152.038C399.771 151.227 400.436 150.598 401.275 150.151C402.114 149.703 403.058 149.479 404.107 149.479C405.044 149.479 405.89 149.668 406.646 150.046C407.401 150.423 408.009 150.968 408.471 151.681V149.563H409.897ZM404.254 158.853C405.051 158.853 405.771 158.686 406.415 158.35C407.058 158.001 407.555 157.518 407.904 156.903C408.268 156.288 408.45 155.589 408.45 154.806C408.45 154.023 408.268 153.331 407.904 152.73C407.555 152.115 407.058 151.639 406.415 151.304C405.785 150.954 405.065 150.78 404.254 150.78C403.457 150.78 402.736 150.947 402.093 151.283C401.464 151.618 400.967 152.094 400.604 152.709C400.254 153.324 400.079 154.023 400.079 154.806C400.079 155.589 400.254 156.288 400.604 156.903C400.967 157.518 401.464 158.001 402.093 158.35C402.736 158.686 403.457 158.853 404.254 158.853Z" fill="black"/>
<path d="M414.063 149.563H415.552V160.594H414.063V149.563ZM414.818 147.152C414.51 147.152 414.251 147.047 414.042 146.837C413.832 146.627 413.727 146.376 413.727 146.082C413.727 145.803 413.832 145.558 414.042 145.348C414.251 145.139 414.51 145.034 414.818 145.034C415.126 145.034 415.384 145.139 415.594 145.348C415.804 145.544 415.909 145.782 415.909 146.061C415.909 146.369 415.804 146.627 415.594 146.837C415.384 147.047 415.126 147.152 414.818 147.152Z" fill="black"/>
<path d="M423.557 149.479C424.997 149.479 426.102 149.843 426.872 150.57C427.641 151.283 428.025 152.345 428.025 153.757V160.594H426.599V158.874C426.263 159.447 425.767 159.895 425.109 160.216C424.466 160.538 423.697 160.699 422.802 160.699C421.571 160.699 420.592 160.405 419.865 159.818C419.137 159.231 418.774 158.455 418.774 157.49C418.774 156.554 419.109 155.799 419.781 155.225C420.466 154.652 421.55 154.366 423.032 154.366H426.536V153.695C426.536 152.744 426.27 152.024 425.739 151.535C425.207 151.031 424.431 150.78 423.41 150.78C422.711 150.78 422.039 150.898 421.396 151.136C420.753 151.36 420.2 151.674 419.739 152.08L419.067 150.968C419.627 150.493 420.298 150.13 421.081 149.878C421.865 149.612 422.69 149.479 423.557 149.479ZM423.032 159.524C423.872 159.524 424.592 159.336 425.193 158.958C425.795 158.567 426.242 158.007 426.536 157.281V155.477H423.074C421.186 155.477 420.242 156.134 420.242 157.448C420.242 158.091 420.487 158.602 420.976 158.979C421.466 159.343 422.151 159.524 423.032 159.524Z" fill="black"/>
<path d="M437.694 149.479C439.078 149.479 440.176 149.885 440.987 150.696C441.813 151.493 442.225 152.66 442.225 154.198V160.594H440.736V154.345C440.736 153.198 440.449 152.324 439.875 151.723C439.302 151.122 438.484 150.822 437.421 150.822C436.232 150.822 435.288 151.178 434.589 151.891C433.903 152.59 433.561 153.562 433.561 154.806V160.594H432.071V149.563H433.498V151.597C433.903 150.926 434.463 150.409 435.176 150.046C435.903 149.668 436.743 149.479 437.694 149.479Z" fill="black"/>
<path d="M461.033 149.563L455.515 161.915C455.067 162.95 454.55 163.684 453.963 164.117C453.375 164.55 452.669 164.767 451.844 164.767C451.312 164.767 450.816 164.683 450.354 164.515C449.893 164.348 449.494 164.096 449.158 163.76L449.851 162.649C450.41 163.208 451.081 163.488 451.865 163.488C452.368 163.488 452.795 163.348 453.144 163.068C453.508 162.789 453.844 162.313 454.151 161.642L454.634 160.573L449.704 149.563H451.256L455.41 158.937L459.564 149.563H461.033Z" fill="black"/>
<path d="M466.663 149.479C468.103 149.479 469.208 149.843 469.977 150.57C470.747 151.283 471.131 152.345 471.131 153.757V160.594H469.705V158.874C469.369 159.447 468.872 159.895 468.215 160.216C467.572 160.538 466.802 160.699 465.907 160.699C464.677 160.699 463.698 160.405 462.97 159.818C462.243 159.231 461.879 158.455 461.879 157.49C461.879 156.554 462.215 155.799 462.886 155.225C463.572 154.652 464.656 154.366 466.138 154.366H469.642V153.695C469.642 152.744 469.376 152.024 468.844 151.535C468.313 151.031 467.537 150.78 466.516 150.78C465.816 150.78 465.145 150.898 464.502 151.136C463.858 151.36 463.306 151.674 462.844 152.08L462.173 150.968C462.733 150.493 463.404 150.13 464.187 149.878C464.97 149.612 465.796 149.479 466.663 149.479ZM466.138 159.524C466.977 159.524 467.698 159.336 468.299 158.958C468.9 158.567 469.348 158.007 469.642 157.281V155.477H466.18C464.292 155.477 463.348 156.134 463.348 157.448C463.348 158.091 463.593 158.602 464.082 158.979C464.572 159.343 465.257 159.524 466.138 159.524Z" fill="black"/>
<path d="M480.799 149.479C482.184 149.479 483.282 149.885 484.093 150.696C484.918 151.493 485.331 152.66 485.331 154.198V160.594H483.841V154.345C483.841 153.198 483.555 152.324 482.981 151.723C482.408 151.122 481.59 150.822 480.527 150.822C479.338 150.822 478.394 151.178 477.694 151.891C477.009 152.59 476.666 153.562 476.666 154.806V160.594H475.177V149.563H476.604V151.597C477.009 150.926 477.569 150.409 478.282 150.046C479.009 149.668 479.848 149.479 480.799 149.479Z" fill="black"/>
<path d="M499.633 149.563V159.252C499.633 161.125 499.171 162.509 498.248 163.404C497.339 164.313 495.961 164.767 494.115 164.767C493.094 164.767 492.122 164.613 491.199 164.306C490.29 164.012 489.549 163.6 488.975 163.068L489.73 161.936C490.262 162.411 490.905 162.782 491.661 163.047C492.43 163.313 493.234 163.446 494.073 163.446C495.472 163.446 496.5 163.117 497.157 162.46C497.814 161.817 498.143 160.811 498.143 159.44V158.035C497.682 158.734 497.073 159.266 496.318 159.629C495.577 159.993 494.751 160.174 493.842 160.174C492.807 160.174 491.863 159.951 491.01 159.503C490.171 159.042 489.507 158.406 489.017 157.595C488.542 156.77 488.304 155.841 488.304 154.806C488.304 153.771 488.542 152.849 489.017 152.038C489.507 151.227 490.171 150.598 491.01 150.151C491.849 149.703 492.793 149.479 493.842 149.479C494.779 149.479 495.626 149.668 496.381 150.046C497.136 150.423 497.745 150.968 498.206 151.681V149.563H499.633ZM493.989 158.853C494.786 158.853 495.507 158.686 496.15 158.35C496.793 158.001 497.29 157.518 497.64 156.903C498.003 156.288 498.185 155.589 498.185 154.806C498.185 154.023 498.003 153.331 497.64 152.73C497.29 152.115 496.793 151.639 496.15 151.304C495.521 150.954 494.8 150.78 493.989 150.78C493.192 150.78 492.472 150.947 491.828 151.283C491.199 151.618 490.702 152.094 490.339 152.709C489.989 153.324 489.814 154.023 489.814 154.806C489.814 155.589 489.989 156.288 490.339 156.903C490.702 157.518 491.199 158.001 491.828 158.35C492.472 158.686 493.192 158.853 493.989 158.853Z" fill="black"/>
<path d="M519.359 145.034V160.594H517.932V158.413C517.485 159.154 516.89 159.72 516.149 160.112C515.422 160.503 514.596 160.699 513.673 160.699C512.638 160.699 511.701 160.461 510.862 159.986C510.023 159.51 509.366 158.846 508.89 157.994C508.415 157.141 508.177 156.169 508.177 155.079C508.177 153.988 508.415 153.016 508.89 152.164C509.366 151.311 510.023 150.654 510.862 150.192C511.701 149.717 512.638 149.479 513.673 149.479C514.568 149.479 515.373 149.668 516.086 150.046C516.813 150.409 517.408 150.947 517.869 151.66V145.034H519.359ZM513.799 159.378C514.568 159.378 515.261 159.203 515.876 158.853C516.505 158.49 516.995 157.98 517.345 157.322C517.708 156.665 517.89 155.917 517.89 155.079C517.89 154.24 517.708 153.492 517.345 152.835C516.995 152.178 516.505 151.674 515.876 151.325C515.261 150.961 514.568 150.78 513.799 150.78C513.016 150.78 512.31 150.961 511.68 151.325C511.065 151.674 510.575 152.178 510.212 152.835C509.862 153.492 509.687 154.24 509.687 155.079C509.687 155.917 509.862 156.665 510.212 157.322C510.575 157.98 511.065 158.49 511.68 158.853C512.31 159.203 513.016 159.378 513.799 159.378Z" fill="black"/>
<path d="M523.507 149.563H524.996V160.594H523.507V149.563ZM524.262 147.152C523.955 147.152 523.696 147.047 523.486 146.837C523.276 146.627 523.171 146.376 523.171 146.082C523.171 145.803 523.276 145.558 523.486 145.348C523.696 145.139 523.955 145.034 524.262 145.034C524.57 145.034 524.829 145.139 525.038 145.348C525.248 145.544 525.353 145.782 525.353 146.061C525.353 146.369 525.248 146.627 525.038 146.837C524.829 147.047 524.57 147.152 524.262 147.152Z" fill="black"/>
<path d="M534.952 159.923C534.673 160.174 534.323 160.37 533.903 160.51C533.498 160.636 533.071 160.699 532.624 160.699C531.589 160.699 530.791 160.419 530.232 159.86C529.673 159.301 529.393 158.511 529.393 157.49V150.822H527.421V149.563H529.393V147.152H530.882V149.563H534.239V150.822H530.882V157.406C530.882 158.063 531.043 158.567 531.365 158.916C531.701 159.252 532.176 159.42 532.791 159.42C533.099 159.42 533.393 159.371 533.673 159.273C533.966 159.175 534.218 159.035 534.428 158.853L534.952 159.923Z" fill="black"/>
<path d="M541.524 149.479C542.965 149.479 544.07 149.843 544.839 150.57C545.608 151.283 545.993 152.345 545.993 153.757V160.594H544.566V158.874C544.23 159.447 543.734 159.895 543.077 160.216C542.433 160.538 541.664 160.699 540.769 160.699C539.538 160.699 538.559 160.405 537.832 159.818C537.104 159.231 536.741 158.455 536.741 157.49C536.741 156.554 537.076 155.799 537.748 155.225C538.433 154.652 539.517 154.366 541 154.366H544.503V153.695C544.503 152.744 544.237 152.024 543.706 151.535C543.174 151.031 542.398 150.78 541.377 150.78C540.678 150.78 540.007 150.898 539.363 151.136C538.72 151.36 538.167 151.674 537.706 152.08L537.034 150.968C537.594 150.493 538.265 150.13 539.048 149.878C539.832 149.612 540.657 149.479 541.524 149.479ZM541 159.524C541.839 159.524 542.559 159.336 543.16 158.958C543.762 158.567 544.209 158.007 544.503 157.281V155.477H541.042C539.153 155.477 538.209 156.134 538.209 157.448C538.209 158.091 538.454 158.602 538.944 158.979C539.433 159.343 540.118 159.524 541 159.524Z" fill="black"/>
<path d="M555.661 149.479C557.045 149.479 558.143 149.885 558.955 150.696C559.78 151.493 560.192 152.66 560.192 154.198V160.594H558.703V154.345C558.703 153.198 558.416 152.324 557.843 151.723C557.269 151.122 556.451 150.822 555.388 150.822C554.199 150.822 553.255 151.178 552.556 151.891C551.871 152.59 551.528 153.562 551.528 154.806V160.594H550.038V149.563H551.465V151.597C551.871 150.926 552.43 150.409 553.143 150.046C553.871 149.668 554.71 149.479 555.661 149.479Z" fill="black"/>
<path d="M574.347 145.034V160.594H572.921V158.413C572.473 159.154 571.879 159.72 571.137 160.112C570.41 160.503 569.585 160.699 568.662 160.699C567.627 160.699 566.69 160.461 565.851 159.986C565.011 159.51 564.354 158.846 563.879 157.994C563.403 157.141 563.165 156.169 563.165 155.079C563.165 153.988 563.403 153.016 563.879 152.164C564.354 151.311 565.011 150.654 565.851 150.192C566.69 149.717 567.627 149.479 568.662 149.479C569.557 149.479 570.361 149.668 571.074 150.046C571.802 150.409 572.396 150.947 572.858 151.66V145.034H574.347ZM568.788 159.378C569.557 159.378 570.249 159.203 570.865 158.853C571.494 158.49 571.984 157.98 572.333 157.322C572.697 156.665 572.879 155.917 572.879 155.079C572.879 154.24 572.697 153.492 572.333 152.835C571.984 152.178 571.494 151.674 570.865 151.325C570.249 150.961 569.557 150.78 568.788 150.78C568.004 150.78 567.298 150.961 566.669 151.325C566.053 151.674 565.564 152.178 565.2 152.835C564.851 153.492 564.676 154.24 564.676 155.079C564.676 155.917 564.851 156.665 565.2 157.322C565.564 157.98 566.053 158.49 566.669 158.853C567.298 159.203 568.004 159.378 568.788 159.378Z" fill="black"/>
<path d="M582.356 149.479C583.796 149.479 584.901 149.843 585.67 150.57C586.44 151.283 586.824 152.345 586.824 153.757V160.594H585.398V158.874C585.062 159.447 584.565 159.895 583.908 160.216C583.265 160.538 582.496 160.699 581.6 160.699C580.37 160.699 579.391 160.405 578.663 159.818C577.936 159.231 577.572 158.455 577.572 157.49C577.572 156.554 577.908 155.799 578.579 155.225C579.265 154.652 580.349 154.366 581.831 154.366H585.335V153.695C585.335 152.744 585.069 152.024 584.538 151.535C584.006 151.031 583.23 150.78 582.209 150.78C581.509 150.78 580.838 150.898 580.195 151.136C579.551 151.36 578.999 151.674 578.537 152.08L577.866 150.968C578.426 150.493 579.097 150.13 579.88 149.878C580.663 149.612 581.489 149.479 582.356 149.479ZM581.831 159.524C582.67 159.524 583.391 159.336 583.992 158.958C584.593 158.567 585.041 158.007 585.335 157.281V155.477H581.873C579.985 155.477 579.041 156.134 579.041 157.448C579.041 158.091 579.286 158.602 579.775 158.979C580.265 159.343 580.95 159.524 581.831 159.524Z" fill="black"/>
<path d="M590.87 149.563H592.359V160.594H590.87V149.563ZM591.625 147.152C591.318 147.152 591.059 147.047 590.849 146.837C590.639 146.627 590.534 146.376 590.534 146.082C590.534 145.803 590.639 145.558 590.849 145.348C591.059 145.139 591.318 145.034 591.625 145.034C591.933 145.034 592.192 145.139 592.401 145.348C592.611 145.544 592.716 145.782 592.716 146.061C592.716 146.369 592.611 146.627 592.401 146.837C592.192 147.047 591.933 147.152 591.625 147.152Z" fill="black"/>
<path d="M138.951 183.259C140.336 183.259 141.42 183.658 142.203 184.455C143 185.252 143.399 186.426 143.399 187.978V194.374H141.909V188.125C141.909 186.978 141.629 186.104 141.07 185.503C140.525 184.902 139.748 184.602 138.741 184.602C137.594 184.602 136.692 184.958 136.035 185.671C135.378 186.37 135.049 187.342 135.049 188.586V194.374H133.559V188.125C133.559 186.978 133.28 186.104 132.72 185.503C132.175 184.902 131.392 184.602 130.371 184.602C129.238 184.602 128.336 184.958 127.664 185.671C127.007 186.37 126.678 187.342 126.678 188.586V194.374H125.189V183.343H126.615V185.356C127.007 184.685 127.552 184.168 128.252 183.805C128.951 183.441 129.755 183.259 130.664 183.259C131.587 183.259 132.385 183.455 133.056 183.847C133.741 184.238 134.252 184.818 134.587 185.587C134.993 184.86 135.573 184.294 136.329 183.889C137.098 183.469 137.972 183.259 138.951 183.259Z" fill="black"/>
<path d="M157.088 189.32H147.857C147.941 190.466 148.381 191.396 149.178 192.109C149.976 192.808 150.983 193.158 152.199 193.158C152.885 193.158 153.514 193.039 154.088 192.801C154.661 192.549 155.158 192.186 155.577 191.711L156.416 192.675C155.927 193.262 155.311 193.71 154.57 194.017C153.843 194.325 153.039 194.479 152.158 194.479C151.025 194.479 150.018 194.241 149.136 193.766C148.269 193.276 147.591 192.605 147.102 191.752C146.612 190.9 146.367 189.935 146.367 188.859C146.367 187.782 146.598 186.817 147.06 185.965C147.535 185.112 148.178 184.448 148.99 183.972C149.815 183.497 150.738 183.259 151.759 183.259C152.78 183.259 153.696 183.497 154.507 183.972C155.318 184.448 155.955 185.112 156.416 185.965C156.878 186.803 157.109 187.768 157.109 188.859L157.088 189.32ZM151.759 184.539C150.696 184.539 149.801 184.881 149.074 185.566C148.36 186.237 147.955 187.118 147.857 188.208H155.682C155.584 187.118 155.172 186.237 154.444 185.566C153.731 184.881 152.836 184.539 151.759 184.539Z" fill="black"/>
<path d="M161.567 185.503C161.917 184.762 162.434 184.203 163.119 183.826C163.819 183.448 164.679 183.259 165.7 183.259V184.706L165.343 184.685C164.182 184.685 163.273 185.042 162.616 185.755C161.959 186.468 161.63 187.468 161.63 188.754V194.374H160.14V183.343H161.567V185.503Z" fill="black"/>
<path d="M172.237 183.259C173.677 183.259 174.782 183.623 175.551 184.35C176.321 185.063 176.705 186.125 176.705 187.537V194.374H175.279V192.654C174.943 193.227 174.446 193.675 173.789 193.996C173.146 194.318 172.376 194.479 171.481 194.479C170.251 194.479 169.272 194.185 168.544 193.598C167.817 193.011 167.453 192.235 167.453 191.27C167.453 190.333 167.789 189.579 168.46 189.005C169.146 188.432 170.23 188.146 171.712 188.146H175.216V187.474C175.216 186.524 174.95 185.804 174.418 185.315C173.887 184.811 173.111 184.56 172.09 184.56C171.39 184.56 170.719 184.678 170.076 184.916C169.432 185.14 168.88 185.454 168.418 185.86L167.747 184.748C168.306 184.273 168.978 183.909 169.761 183.658C170.544 183.392 171.369 183.259 172.237 183.259ZM171.712 193.304C172.551 193.304 173.272 193.116 173.873 192.738C174.474 192.347 174.922 191.787 175.216 191.06V189.257H171.754C169.866 189.257 168.922 189.914 168.922 191.228C168.922 191.871 169.167 192.382 169.656 192.759C170.146 193.123 170.831 193.304 171.712 193.304Z" fill="black"/>
<path d="M186.373 183.259C187.758 183.259 188.856 183.665 189.667 184.476C190.492 185.273 190.905 186.44 190.905 187.978V194.374H189.415V188.125C189.415 186.978 189.129 186.104 188.555 185.503C187.982 184.902 187.164 184.602 186.101 184.602C184.912 184.602 183.968 184.958 183.268 185.671C182.583 186.37 182.24 187.342 182.24 188.586V194.374H180.751V178.814H182.24V185.273C182.646 184.629 183.205 184.133 183.919 183.784C184.632 183.434 185.45 183.259 186.373 183.259Z" fill="black"/>
<path d="M195.117 192.193C195.438 192.193 195.704 192.305 195.914 192.528C196.124 192.738 196.228 193.004 196.228 193.325C196.228 193.493 196.2 193.675 196.145 193.871C196.103 194.066 196.033 194.29 195.935 194.542L195.054 197.436H194.047L194.76 194.395C194.536 194.325 194.354 194.199 194.214 194.017C194.075 193.822 194.005 193.591 194.005 193.325C194.005 193.004 194.11 192.738 194.319 192.528C194.529 192.305 194.795 192.193 195.117 192.193Z" fill="black"/>
<path d="M207.843 194.479C206.948 194.479 206.088 194.353 205.263 194.101C204.452 193.836 203.815 193.507 203.354 193.116L204.025 191.941C204.487 192.305 205.067 192.605 205.766 192.843C206.466 193.067 207.193 193.178 207.948 193.178C208.955 193.178 209.696 193.025 210.172 192.717C210.661 192.396 210.906 191.948 210.906 191.375C210.906 190.97 210.773 190.655 210.508 190.431C210.242 190.194 209.906 190.019 209.501 189.907C209.095 189.781 208.557 189.662 207.885 189.551C206.99 189.383 206.27 189.215 205.724 189.047C205.179 188.866 204.71 188.565 204.319 188.146C203.941 187.726 203.752 187.146 203.752 186.405C203.752 185.482 204.137 184.727 204.906 184.14C205.675 183.553 206.745 183.259 208.116 183.259C208.829 183.259 209.543 183.357 210.256 183.553C210.969 183.735 211.557 183.979 212.018 184.287L211.368 185.482C210.459 184.853 209.375 184.539 208.116 184.539C207.165 184.539 206.445 184.706 205.955 185.042C205.48 185.377 205.242 185.818 205.242 186.363C205.242 186.782 205.375 187.118 205.64 187.37C205.92 187.621 206.263 187.81 206.668 187.936C207.074 188.048 207.633 188.167 208.347 188.292C209.228 188.46 209.934 188.628 210.466 188.796C210.997 188.963 211.452 189.25 211.829 189.655C212.207 190.061 212.396 190.62 212.396 191.333C212.396 192.298 211.99 193.067 211.179 193.64C210.382 194.199 209.27 194.479 207.843 194.479Z" fill="black"/>
<path d="M224.758 189.32H215.527C215.611 190.466 216.052 191.396 216.849 192.109C217.646 192.808 218.653 193.158 219.87 193.158C220.555 193.158 221.184 193.039 221.758 192.801C222.331 192.549 222.828 192.186 223.247 191.711L224.087 192.675C223.597 193.262 222.982 193.71 222.24 194.017C221.513 194.325 220.709 194.479 219.828 194.479C218.695 194.479 217.688 194.241 216.807 193.766C215.94 193.276 215.261 192.605 214.772 191.752C214.282 190.9 214.038 189.935 214.038 188.859C214.038 187.782 214.268 186.817 214.73 185.965C215.205 185.112 215.849 184.448 216.66 183.972C217.485 183.497 218.408 183.259 219.429 183.259C220.45 183.259 221.366 183.497 222.177 183.972C222.989 184.448 223.625 185.112 224.087 185.965C224.548 186.803 224.779 187.768 224.779 188.859L224.758 189.32ZM219.429 184.539C218.366 184.539 217.471 184.881 216.744 185.566C216.031 186.237 215.625 187.118 215.527 188.208H223.352C223.254 187.118 222.842 186.237 222.115 185.566C221.401 184.881 220.506 184.539 219.429 184.539Z" fill="black"/>
<path d="M241.573 183.259C242.958 183.259 244.042 183.658 244.825 184.455C245.622 185.252 246.021 186.426 246.021 187.978V194.374H244.531V188.125C244.531 186.978 244.251 186.104 243.692 185.503C243.146 184.902 242.37 184.602 241.363 184.602C240.216 184.602 239.314 184.958 238.657 185.671C238 186.37 237.671 187.342 237.671 188.586V194.374H236.181V188.125C236.181 186.978 235.902 186.104 235.342 185.503C234.797 184.902 234.014 184.602 232.993 184.602C231.86 184.602 230.958 184.958 230.286 185.671C229.629 186.37 229.3 187.342 229.3 188.586V194.374H227.811V183.343H229.237V185.356C229.629 184.685 230.174 184.168 230.874 183.805C231.573 183.441 232.377 183.259 233.286 183.259C234.209 183.259 235.007 183.455 235.678 183.847C236.363 184.238 236.874 184.818 237.209 185.587C237.615 184.86 238.195 184.294 238.951 183.889C239.72 183.469 240.594 183.259 241.573 183.259Z" fill="black"/>
<path d="M253.92 183.259C255.361 183.259 256.466 183.623 257.235 184.35C258.004 185.063 258.389 186.125 258.389 187.537V194.374H256.962V192.654C256.627 193.227 256.13 193.675 255.473 193.996C254.829 194.318 254.06 194.479 253.165 194.479C251.934 194.479 250.955 194.185 250.228 193.598C249.501 193.011 249.137 192.235 249.137 191.27C249.137 190.333 249.473 189.579 250.144 189.005C250.829 188.432 251.913 188.146 253.396 188.146H256.899V187.474C256.899 186.524 256.634 185.804 256.102 185.315C255.571 184.811 254.794 184.56 253.773 184.56C253.074 184.56 252.403 184.678 251.759 184.916C251.116 185.14 250.564 185.454 250.102 185.86L249.431 184.748C249.99 184.273 250.662 183.909 251.445 183.658C252.228 183.392 253.053 183.259 253.92 183.259ZM253.396 193.304C254.235 193.304 254.955 193.116 255.557 192.738C256.158 192.347 256.606 191.787 256.899 191.06V189.257H253.438C251.55 189.257 250.606 189.914 250.606 191.228C250.606 191.871 250.85 192.382 251.34 192.759C251.829 193.123 252.515 193.304 253.396 193.304Z" fill="black"/>
<path d="M268.057 183.259C269.442 183.259 270.54 183.665 271.351 184.476C272.176 185.273 272.589 186.44 272.589 187.978V194.374H271.099V188.125C271.099 186.978 270.812 186.104 270.239 185.503C269.665 184.902 268.847 184.602 267.784 184.602C266.595 184.602 265.651 184.958 264.952 185.671C264.267 186.37 263.924 187.342 263.924 188.586V194.374H262.435V183.343H263.861V185.377C264.267 184.706 264.826 184.189 265.54 183.826C266.267 183.448 267.106 183.259 268.057 183.259Z" fill="black"/>
<path d="M286.89 183.343V193.032C286.89 194.905 286.429 196.289 285.506 197.184C284.597 198.093 283.219 198.547 281.373 198.547C280.352 198.547 279.38 198.393 278.457 198.086C277.548 197.792 276.806 197.38 276.233 196.848L276.988 195.716C277.52 196.191 278.163 196.562 278.918 196.827C279.687 197.093 280.492 197.226 281.331 197.226C282.729 197.226 283.757 196.897 284.415 196.24C285.072 195.597 285.401 194.591 285.401 193.22V191.815C284.939 192.514 284.331 193.046 283.576 193.409C282.834 193.773 282.009 193.954 281.1 193.954C280.065 193.954 279.121 193.731 278.268 193.283C277.429 192.822 276.764 192.186 276.275 191.375C275.799 190.55 275.562 189.62 275.562 188.586C275.562 187.551 275.799 186.629 276.275 185.818C276.764 185.007 277.429 184.378 278.268 183.93C279.107 183.483 280.051 183.259 281.1 183.259C282.037 183.259 282.883 183.448 283.639 183.826C284.394 184.203 285.002 184.748 285.464 185.461V183.343H286.89ZM281.247 192.633C282.044 192.633 282.764 192.465 283.408 192.13C284.051 191.78 284.548 191.298 284.897 190.683C285.261 190.068 285.443 189.369 285.443 188.586C285.443 187.803 285.261 187.111 284.897 186.51C284.548 185.895 284.051 185.419 283.408 185.084C282.778 184.734 282.058 184.56 281.247 184.56C280.45 184.56 279.729 184.727 279.086 185.063C278.457 185.398 277.96 185.874 277.596 186.489C277.247 187.104 277.072 187.803 277.072 188.586C277.072 189.369 277.247 190.068 277.596 190.683C277.96 191.298 278.457 191.78 279.086 192.13C279.729 192.465 280.45 192.633 281.247 192.633Z" fill="black"/>
<path d="M294.916 183.259C296.356 183.259 297.461 183.623 298.231 184.35C299 185.063 299.384 186.125 299.384 187.537V194.374H297.958V192.654C297.622 193.227 297.126 193.675 296.468 193.996C295.825 194.318 295.056 194.479 294.161 194.479C292.93 194.479 291.951 194.185 291.223 193.598C290.496 193.011 290.133 192.235 290.133 191.27C290.133 190.333 290.468 189.579 291.14 189.005C291.825 188.432 292.909 188.146 294.391 188.146H297.895V187.474C297.895 186.524 297.629 185.804 297.098 185.315C296.566 184.811 295.79 184.56 294.769 184.56C294.07 184.56 293.398 184.678 292.755 184.916C292.112 185.14 291.559 185.454 291.098 185.86L290.426 184.748C290.986 184.273 291.657 183.909 292.44 183.658C293.223 183.392 294.049 183.259 294.916 183.259ZM294.391 193.304C295.231 193.304 295.951 193.116 296.552 192.738C297.154 192.347 297.601 191.787 297.895 191.06V189.257H294.433C292.545 189.257 291.601 189.914 291.601 191.228C291.601 191.871 291.846 192.382 292.335 192.759C292.825 193.123 293.51 193.304 294.391 193.304Z" fill="black"/>
<path d="M309.241 193.703C308.962 193.954 308.612 194.15 308.192 194.29C307.787 194.416 307.36 194.479 306.913 194.479C305.878 194.479 305.08 194.199 304.521 193.64C303.962 193.081 303.682 192.291 303.682 191.27V184.602H301.71V183.343H303.682V180.932H305.171V183.343H308.528V184.602H305.171V191.186C305.171 191.843 305.332 192.347 305.654 192.696C305.99 193.032 306.465 193.199 307.08 193.199C307.388 193.199 307.682 193.151 307.962 193.053C308.255 192.955 308.507 192.815 308.717 192.633L309.241 193.703Z" fill="black"/>
<path d="M318.87 185.503C319.22 184.762 319.737 184.203 320.423 183.826C321.122 183.448 321.982 183.259 323.003 183.259V184.706L322.646 184.685C321.486 184.685 320.576 185.042 319.919 185.755C319.262 186.468 318.933 187.468 318.933 188.754V194.374H317.444V183.343H318.87V185.503Z" fill="black"/>
<path d="M335.206 189.32H325.975C326.059 190.466 326.5 191.396 327.297 192.109C328.094 192.808 329.101 193.158 330.318 193.158C331.003 193.158 331.633 193.039 332.206 192.801C332.779 192.549 333.276 192.186 333.696 191.711L334.535 192.675C334.045 193.262 333.43 193.71 332.689 194.017C331.961 194.325 331.157 194.479 330.276 194.479C329.143 194.479 328.136 194.241 327.255 193.766C326.388 193.276 325.709 192.605 325.22 191.752C324.73 190.9 324.486 189.935 324.486 188.859C324.486 187.782 324.716 186.817 325.178 185.965C325.654 185.112 326.297 184.448 327.108 183.972C327.933 183.497 328.856 183.259 329.877 183.259C330.898 183.259 331.814 183.497 332.626 183.972C333.437 184.448 334.073 185.112 334.535 185.965C334.996 186.803 335.227 187.768 335.227 188.859L335.206 189.32ZM329.877 184.539C328.814 184.539 327.919 184.881 327.192 185.566C326.479 186.237 326.073 187.118 325.975 188.208H333.8C333.703 187.118 333.29 186.237 332.563 185.566C331.849 184.881 330.954 184.539 329.877 184.539Z" fill="black"/>
<path d="M347.327 183.343L342.418 194.374H340.886L335.998 183.343H337.551L341.683 192.738L345.858 183.343H347.327Z" fill="black"/>
<path d="M349.425 183.343H350.914V194.374H349.425V183.343ZM350.18 180.932C349.872 180.932 349.613 180.827 349.404 180.617C349.194 180.407 349.089 180.156 349.089 179.862C349.089 179.583 349.194 179.338 349.404 179.128C349.613 178.918 349.872 178.814 350.18 178.814C350.488 178.814 350.746 178.918 350.956 179.128C351.166 179.324 351.271 179.562 351.271 179.841C351.271 180.149 351.166 180.407 350.956 180.617C350.746 180.827 350.488 180.932 350.18 180.932Z" fill="black"/>
<path d="M358.017 194.479C357.122 194.479 356.261 194.353 355.436 194.101C354.625 193.836 353.989 193.507 353.527 193.116L354.199 191.941C354.66 192.305 355.24 192.605 355.94 192.843C356.639 193.067 357.366 193.178 358.122 193.178C359.129 193.178 359.87 193.025 360.345 192.717C360.835 192.396 361.08 191.948 361.08 191.375C361.08 190.97 360.947 190.655 360.681 190.431C360.415 190.194 360.08 190.019 359.674 189.907C359.268 189.781 358.73 189.662 358.059 189.551C357.164 189.383 356.443 189.215 355.898 189.047C355.352 188.866 354.884 188.565 354.492 188.146C354.115 187.726 353.926 187.146 353.926 186.405C353.926 185.482 354.31 184.727 355.08 184.14C355.849 183.553 356.919 183.259 358.289 183.259C359.003 183.259 359.716 183.357 360.429 183.553C361.143 183.735 361.73 183.979 362.192 184.287L361.541 185.482C360.632 184.853 359.548 184.539 358.289 184.539C357.338 184.539 356.618 184.706 356.129 185.042C355.653 185.377 355.415 185.818 355.415 186.363C355.415 186.782 355.548 187.118 355.814 187.37C356.094 187.621 356.436 187.81 356.842 187.936C357.247 188.048 357.807 188.167 358.52 188.292C359.401 188.46 360.108 188.628 360.639 188.796C361.171 188.963 361.625 189.25 362.003 189.655C362.38 190.061 362.569 190.62 362.569 191.333C362.569 192.298 362.164 193.067 361.352 193.64C360.555 194.199 359.443 194.479 358.017 194.479Z" fill="black"/>
<path d="M365.323 183.343H366.812V194.374H365.323V183.343ZM366.078 180.932C365.77 180.932 365.512 180.827 365.302 180.617C365.092 180.407 364.987 180.156 364.987 179.862C364.987 179.583 365.092 179.338 365.302 179.128C365.512 178.918 365.77 178.814 366.078 178.814C366.386 178.814 366.645 178.918 366.854 179.128C367.064 179.324 367.169 179.562 367.169 179.841C367.169 180.149 367.064 180.407 366.854 180.617C366.645 180.827 366.386 180.932 366.078 180.932Z" fill="black"/>
<path d="M370.726 179.694H372.488L372.174 189.97H371.02L370.726 179.694ZM371.607 194.479C371.3 194.479 371.034 194.374 370.81 194.164C370.6 193.94 370.495 193.682 370.495 193.388C370.495 193.081 370.6 192.829 370.81 192.633C371.02 192.424 371.286 192.319 371.607 192.319C371.915 192.319 372.174 192.424 372.384 192.633C372.593 192.829 372.698 193.081 372.698 193.388C372.698 193.682 372.593 193.94 372.384 194.164C372.174 194.374 371.915 194.479 371.607 194.479Z" fill="black"/>
<path d="M588.716 413.005V370.78H571.819L588.716 413.005Z" fill="white"/>
<path d="M333.481 498.072L334.708 498.727C336.609 499.743 338.732 500.274 340.888 500.27L340.894 500.27C348.153 500.27 354.036 494.389 354.036 487.134C354.036 479.878 348.153 473.997 340.894 473.997C333.636 473.997 327.752 479.878 327.752 487.134V487.139C327.749 489.294 328.279 491.417 329.296 493.317L329.952 494.544L328.943 499.08L333.481 498.072ZM323.997 504.024L325.984 495.087C324.676 492.64 323.993 489.908 323.997 487.134C323.997 477.805 331.562 470.244 340.894 470.244C350.226 470.244 357.791 477.805 357.791 487.134C357.791 496.462 350.226 504.024 340.894 504.024C338.119 504.028 335.385 503.345 332.937 502.037L323.997 504.024Z" fill="#0181FE"/>
</svg>
