<svg width="682" height="564" viewBox="0 0 682 564" fill="none" xmlns="http://www.w3.org/2000/svg">
<path d="M654.156 3.75342H27.8438C14.5399 3.75342 3.75488 14.534 3.75488 27.8325V536.168C3.75488 549.466 14.5399 560.247 27.8438 560.247H654.156C667.46 560.247 678.245 549.466 678.245 536.168V27.8325C678.245 14.534 667.46 3.75342 654.156 3.75342Z" fill="#CCE6FF"/>
<rect x="47" y="149" width="588" height="382" rx="4" fill="white"/>
<rect x="101.5" y="184.5" width="479" height="311" rx="3.5" fill="white" stroke="#67B3FE" stroke-dasharray="20 20"/>
<path d="M374.5 358.833H307.5C301.333 358.833 296.333 353.834 296.333 347.666V258.333C296.333 252.166 301.333 247.166 307.5 247.166H346.583C346.633 247.16 346.684 247.16 346.734 247.166H346.768C346.82 247.183 346.875 247.194 346.93 247.2C347.422 247.232 347.908 247.327 348.376 247.485H348.459H348.543H348.61C348.713 247.557 348.81 247.637 348.9 247.725C349.509 247.995 350.063 248.374 350.536 248.841L384.036 282.341C384.504 282.815 384.883 283.369 385.153 283.977C385.203 284.1 385.242 284.217 385.281 284.346V284.424V284.502C385.437 284.968 385.529 285.452 385.555 285.943C385.56 285.998 385.573 286.053 385.594 286.105V286.138C385.622 286.172 385.647 286.21 385.667 286.25V347.666C385.667 353.834 380.667 358.833 374.5 358.833ZM307.5 258.333V347.666H374.5V291.833H346.583C343.5 291.833 341 289.333 341 286.25V258.333H307.5ZM352.167 266.228V280.666H366.605L352.167 266.228ZM346.583 336.5H335.417V325.333H324.25V314.166H335.417V303H346.583V314.166H357.75V325.333H346.583V336.5Z" fill="#0181FE"/>
<path d="M194.198 410.108C192.566 410.108 191.294 409.64 190.382 408.704C189.47 407.768 189.014 406.406 189.014 404.618V397.4H190.346V404.564C190.346 406.028 190.676 407.12 191.336 407.84C191.996 408.56 192.95 408.92 194.198 408.92C195.458 408.92 196.418 408.56 197.078 407.84C197.738 407.12 198.068 406.028 198.068 404.564V397.4H199.364V404.618C199.364 406.406 198.908 407.768 197.996 408.704C197.096 409.64 195.83 410.108 194.198 410.108ZM207.446 400.46C208.334 400.46 209.138 400.664 209.858 401.072C210.578 401.468 211.142 402.032 211.55 402.764C211.958 403.496 212.162 404.33 212.162 405.266C212.162 406.214 211.958 407.054 211.55 407.786C211.142 408.518 210.578 409.088 209.858 409.496C209.15 409.892 208.346 410.09 207.446 410.09C206.678 410.09 205.982 409.934 205.358 409.622C204.746 409.298 204.242 408.83 203.846 408.218V413.492H202.568V400.532H203.792V402.404C204.176 401.78 204.68 401.3 205.304 400.964C205.94 400.628 206.654 400.46 207.446 400.46ZM207.356 408.956C208.016 408.956 208.616 408.806 209.156 408.506C209.696 408.194 210.116 407.756 210.416 407.192C210.728 406.628 210.884 405.986 210.884 405.266C210.884 404.546 210.728 403.91 210.416 403.358C210.116 402.794 209.696 402.356 209.156 402.044C208.616 401.732 208.016 401.576 207.356 401.576C206.684 401.576 206.078 401.732 205.538 402.044C205.01 402.356 204.59 402.794 204.278 403.358C203.978 403.91 203.828 404.546 203.828 405.266C203.828 405.986 203.978 406.628 204.278 407.192C204.59 407.756 205.01 408.194 205.538 408.506C206.078 408.806 206.684 408.956 207.356 408.956ZM214.227 396.644H215.505V410H214.227V396.644ZM222.391 410.09C221.479 410.09 220.657 409.886 219.925 409.478C219.193 409.058 218.617 408.482 218.197 407.75C217.777 407.018 217.567 406.19 217.567 405.266C217.567 404.342 217.777 403.514 218.197 402.782C218.617 402.05 219.193 401.48 219.925 401.072C220.657 400.664 221.479 400.46 222.391 400.46C223.303 400.46 224.125 400.664 224.857 401.072C225.589 401.48 226.159 402.05 226.567 402.782C226.987 403.514 227.197 404.342 227.197 405.266C227.197 406.19 226.987 407.018 226.567 407.75C226.159 408.482 225.589 409.058 224.857 409.478C224.125 409.886 223.303 410.09 222.391 410.09ZM222.391 408.956C223.063 408.956 223.663 408.806 224.191 408.506C224.731 408.194 225.151 407.756 225.451 407.192C225.751 406.628 225.901 405.986 225.901 405.266C225.901 404.546 225.751 403.904 225.451 403.34C225.151 402.776 224.731 402.344 224.191 402.044C223.663 401.732 223.063 401.576 222.391 401.576C221.719 401.576 221.113 401.732 220.573 402.044C220.045 402.344 219.625 402.776 219.313 403.34C219.013 403.904 218.863 404.546 218.863 405.266C218.863 405.986 219.013 406.628 219.313 407.192C219.625 407.756 220.045 408.194 220.573 408.506C221.113 408.806 221.719 408.956 222.391 408.956ZM232.526 400.46C233.762 400.46 234.71 400.772 235.37 401.396C236.03 402.008 236.36 402.92 236.36 404.132V410H235.136V408.524C234.848 409.016 234.422 409.4 233.858 409.676C233.306 409.952 232.646 410.09 231.878 410.09C230.822 410.09 229.982 409.838 229.358 409.334C228.734 408.83 228.422 408.164 228.422 407.336C228.422 406.532 228.71 405.884 229.286 405.392C229.874 404.9 230.804 404.654 232.076 404.654H235.082V404.078C235.082 403.262 234.854 402.644 234.398 402.224C233.942 401.792 233.276 401.576 232.4 401.576C231.8 401.576 231.224 401.678 230.672 401.882C230.12 402.074 229.646 402.344 229.25 402.692L228.674 401.738C229.154 401.33 229.73 401.018 230.402 400.802C231.074 400.574 231.782 400.46 232.526 400.46ZM232.076 409.082C232.796 409.082 233.414 408.92 233.93 408.596C234.446 408.26 234.83 407.78 235.082 407.156V405.608H232.112C230.492 405.608 229.682 406.172 229.682 407.3C229.682 407.852 229.892 408.29 230.312 408.614C230.732 408.926 231.32 409.082 232.076 409.082ZM247.966 396.644V410H246.742V408.128C246.358 408.764 245.848 409.25 245.212 409.586C244.588 409.922 243.88 410.09 243.088 410.09C242.2 410.09 241.396 409.886 240.676 409.478C239.956 409.07 239.392 408.5 238.984 407.768C238.576 407.036 238.372 406.202 238.372 405.266C238.372 404.33 238.576 403.496 238.984 402.764C239.392 402.032 239.956 401.468 240.676 401.072C241.396 400.664 242.2 400.46 243.088 400.46C243.856 400.46 244.546 400.622 245.158 400.946C245.782 401.258 246.292 401.72 246.688 402.332V396.644H247.966ZM243.196 408.956C243.856 408.956 244.45 408.806 244.978 408.506C245.518 408.194 245.938 407.756 246.238 407.192C246.55 406.628 246.706 405.986 246.706 405.266C246.706 404.546 246.55 403.904 246.238 403.34C245.938 402.776 245.518 402.344 244.978 402.044C244.45 401.732 243.856 401.576 243.196 401.576C242.524 401.576 241.918 401.732 241.378 402.044C240.85 402.344 240.43 402.776 240.118 403.34C239.818 403.904 239.668 404.546 239.668 405.266C239.668 405.986 239.818 406.628 240.118 407.192C240.43 407.756 240.85 408.194 241.378 408.506C241.918 408.806 242.524 408.956 243.196 408.956ZM258.288 397.634C257.736 397.634 257.316 397.784 257.028 398.084C256.752 398.384 256.614 398.828 256.614 399.416V400.532H259.53V401.612H256.65V410H255.372V401.612H253.68V400.532H255.372V399.362C255.372 398.498 255.618 397.814 256.11 397.31C256.614 396.806 257.322 396.554 258.234 396.554C258.594 396.554 258.942 396.608 259.278 396.716C259.614 396.812 259.896 396.956 260.124 397.148L259.692 398.102C259.32 397.79 258.852 397.634 258.288 397.634ZM262.698 400.532H263.976V410H262.698V400.532ZM263.346 398.462C263.082 398.462 262.86 398.372 262.68 398.192C262.5 398.012 262.41 397.796 262.41 397.544C262.41 397.304 262.5 397.094 262.68 396.914C262.86 396.734 263.082 396.644 263.346 396.644C263.61 396.644 263.832 396.734 264.012 396.914C264.192 397.082 264.282 397.286 264.282 397.526C264.282 397.79 264.192 398.012 264.012 398.192C263.832 398.372 263.61 398.462 263.346 398.462ZM267.009 396.644H268.287V410H267.009V396.644ZM279.547 405.662H271.627C271.699 406.646 272.077 407.444 272.761 408.056C273.445 408.656 274.309 408.956 275.353 408.956C275.941 408.956 276.481 408.854 276.973 408.65C277.465 408.434 277.891 408.122 278.251 407.714L278.971 408.542C278.551 409.046 278.023 409.43 277.387 409.694C276.763 409.958 276.073 410.09 275.317 410.09C274.345 410.09 273.481 409.886 272.725 409.478C271.981 409.058 271.399 408.482 270.979 407.75C270.559 407.018 270.349 406.19 270.349 405.266C270.349 404.342 270.547 403.514 270.943 402.782C271.351 402.05 271.903 401.48 272.599 401.072C273.307 400.664 274.099 400.46 274.975 400.46C275.851 400.46 276.637 400.664 277.333 401.072C278.029 401.48 278.575 402.05 278.971 402.782C279.367 403.502 279.565 404.33 279.565 405.266L279.547 405.662ZM274.975 401.558C274.063 401.558 273.295 401.852 272.671 402.44C272.059 403.016 271.711 403.772 271.627 404.708H278.341C278.257 403.772 277.903 403.016 277.279 402.44C276.667 401.852 275.899 401.558 274.975 401.558ZM288.335 410.09C287.567 410.09 286.829 409.982 286.121 409.766C285.425 409.538 284.879 409.256 284.483 408.92L285.059 407.912C285.455 408.224 285.953 408.482 286.553 408.686C287.153 408.878 287.777 408.974 288.425 408.974C289.289 408.974 289.925 408.842 290.333 408.578C290.753 408.302 290.963 407.918 290.963 407.426C290.963 407.078 290.849 406.808 290.621 406.616C290.393 406.412 290.105 406.262 289.757 406.166C289.409 406.058 288.947 405.956 288.371 405.86C287.603 405.716 286.985 405.572 286.517 405.428C286.049 405.272 285.647 405.014 285.311 404.654C284.987 404.294 284.825 403.796 284.825 403.16C284.825 402.368 285.155 401.72 285.815 401.216C286.475 400.712 287.393 400.46 288.569 400.46C289.181 400.46 289.793 400.544 290.405 400.712C291.017 400.868 291.521 401.078 291.917 401.342L291.359 402.368C290.579 401.828 289.649 401.558 288.569 401.558C287.753 401.558 287.135 401.702 286.715 401.99C286.307 402.278 286.103 402.656 286.103 403.124C286.103 403.484 286.217 403.772 286.445 403.988C286.685 404.204 286.979 404.366 287.327 404.474C287.675 404.57 288.155 404.672 288.767 404.78C289.523 404.924 290.129 405.068 290.585 405.212C291.041 405.356 291.431 405.602 291.755 405.95C292.079 406.298 292.241 406.778 292.241 407.39C292.241 408.218 291.893 408.878 291.197 409.37C290.513 409.85 289.559 410.09 288.335 410.09ZM302.308 405.662H294.388C294.46 406.646 294.838 407.444 295.522 408.056C296.206 408.656 297.07 408.956 298.114 408.956C298.702 408.956 299.242 408.854 299.734 408.65C300.226 408.434 300.652 408.122 301.012 407.714L301.732 408.542C301.312 409.046 300.784 409.43 300.148 409.694C299.524 409.958 298.834 410.09 298.078 410.09C297.106 410.09 296.242 409.886 295.486 409.478C294.742 409.058 294.16 408.482 293.74 407.75C293.32 407.018 293.11 406.19 293.11 405.266C293.11 404.342 293.308 403.514 293.704 402.782C294.112 402.05 294.664 401.48 295.36 401.072C296.068 400.664 296.86 400.46 297.736 400.46C298.612 400.46 299.398 400.664 300.094 401.072C300.79 401.48 301.336 402.05 301.732 402.782C302.128 403.502 302.326 404.33 302.326 405.266L302.308 405.662ZM297.736 401.558C296.824 401.558 296.056 401.852 295.432 402.44C294.82 403.016 294.472 403.772 294.388 404.708H301.102C301.018 403.772 300.664 403.016 300.04 402.44C299.428 401.852 298.66 401.558 297.736 401.558ZM316.195 400.46C317.383 400.46 318.313 400.802 318.985 401.486C319.669 402.17 320.011 403.178 320.011 404.51V410H318.733V404.636C318.733 403.652 318.493 402.902 318.013 402.386C317.545 401.87 316.879 401.612 316.015 401.612C315.031 401.612 314.257 401.918 313.693 402.53C313.129 403.13 312.847 403.964 312.847 405.032V410H311.569V404.636C311.569 403.652 311.329 402.902 310.849 402.386C310.381 401.87 309.709 401.612 308.833 401.612C307.861 401.612 307.087 401.918 306.511 402.53C305.947 403.13 305.665 403.964 305.665 405.032V410H304.387V400.532H305.611V402.26C305.947 401.684 306.415 401.24 307.015 400.928C307.615 400.616 308.305 400.46 309.085 400.46C309.877 400.46 310.561 400.628 311.137 400.964C311.725 401.3 312.163 401.798 312.451 402.458C312.799 401.834 313.297 401.348 313.945 401C314.605 400.64 315.355 400.46 316.195 400.46ZM322.937 400.532H324.215V410H322.937V400.532ZM323.585 398.462C323.321 398.462 323.099 398.372 322.919 398.192C322.739 398.012 322.649 397.796 322.649 397.544C322.649 397.304 322.739 397.094 322.919 396.914C323.099 396.734 323.321 396.644 323.585 396.644C323.849 396.644 324.071 396.734 324.251 396.914C324.431 397.082 324.521 397.286 324.521 397.526C324.521 397.79 324.431 398.012 324.251 398.192C324.071 398.372 323.849 398.462 323.585 398.462ZM332.055 400.46C333.243 400.46 334.185 400.808 334.881 401.504C335.589 402.188 335.943 403.19 335.943 404.51V410H334.665V404.636C334.665 403.652 334.419 402.902 333.927 402.386C333.435 401.87 332.733 401.612 331.821 401.612C330.801 401.612 329.991 401.918 329.391 402.53C328.803 403.13 328.509 403.964 328.509 405.032V410H327.231V400.532H328.455V402.278C328.803 401.702 329.283 401.258 329.895 400.946C330.519 400.622 331.239 400.46 332.055 400.46ZM342.184 400.46C343.42 400.46 344.368 400.772 345.028 401.396C345.688 402.008 346.018 402.92 346.018 404.132V410H344.794V408.524C344.506 409.016 344.08 409.4 343.516 409.676C342.964 409.952 342.304 410.09 341.536 410.09C340.48 410.09 339.64 409.838 339.016 409.334C338.392 408.83 338.08 408.164 338.08 407.336C338.08 406.532 338.368 405.884 338.944 405.392C339.532 404.9 340.462 404.654 341.734 404.654H344.74V404.078C344.74 403.262 344.512 402.644 344.056 402.224C343.6 401.792 342.934 401.576 342.058 401.576C341.458 401.576 340.882 401.678 340.33 401.882C339.778 402.074 339.304 402.344 338.908 402.692L338.332 401.738C338.812 401.33 339.388 401.018 340.06 400.802C340.732 400.574 341.44 400.46 342.184 400.46ZM341.734 409.082C342.454 409.082 343.072 408.92 343.588 408.596C344.104 408.26 344.488 407.78 344.74 407.156V405.608H341.77C340.15 405.608 339.34 406.172 339.34 407.3C339.34 407.852 339.55 408.29 339.97 408.614C340.39 408.926 340.978 409.082 341.734 409.082ZM350.174 402.386C350.474 401.75 350.918 401.27 351.506 400.946C352.106 400.622 352.844 400.46 353.72 400.46V401.702L353.414 401.684C352.418 401.684 351.638 401.99 351.074 402.602C350.51 403.214 350.228 404.072 350.228 405.176V410H348.95V400.532H350.174V402.386ZM364.683 400.46C365.571 400.46 366.375 400.664 367.095 401.072C367.815 401.468 368.379 402.032 368.787 402.764C369.195 403.496 369.399 404.33 369.399 405.266C369.399 406.214 369.195 407.054 368.787 407.786C368.379 408.518 367.815 409.088 367.095 409.496C366.387 409.892 365.583 410.09 364.683 410.09C363.915 410.09 363.219 409.934 362.595 409.622C361.983 409.298 361.479 408.83 361.083 408.218V413.492H359.805V400.532H361.029V402.404C361.413 401.78 361.917 401.3 362.541 400.964C363.177 400.628 363.891 400.46 364.683 400.46ZM364.593 408.956C365.253 408.956 365.853 408.806 366.393 408.506C366.933 408.194 367.353 407.756 367.653 407.192C367.965 406.628 368.121 405.986 368.121 405.266C368.121 404.546 367.965 403.91 367.653 403.358C367.353 402.794 366.933 402.356 366.393 402.044C365.853 401.732 365.253 401.576 364.593 401.576C363.921 401.576 363.315 401.732 362.775 402.044C362.247 402.356 361.827 402.794 361.515 403.358C361.215 403.91 361.065 404.546 361.065 405.266C361.065 405.986 361.215 406.628 361.515 407.192C361.827 407.756 362.247 408.194 362.775 408.506C363.315 408.806 363.921 408.956 364.593 408.956ZM372.688 402.386C372.988 401.75 373.432 401.27 374.02 400.946C374.62 400.622 375.358 400.46 376.234 400.46V401.702L375.928 401.684C374.932 401.684 374.152 401.99 373.588 402.602C373.024 403.214 372.742 404.072 372.742 405.176V410H371.464V400.532H372.688V402.386ZM381.79 410.09C380.878 410.09 380.056 409.886 379.324 409.478C378.592 409.058 378.016 408.482 377.596 407.75C377.176 407.018 376.966 406.19 376.966 405.266C376.966 404.342 377.176 403.514 377.596 402.782C378.016 402.05 378.592 401.48 379.324 401.072C380.056 400.664 380.878 400.46 381.79 400.46C382.702 400.46 383.524 400.664 384.256 401.072C384.988 401.48 385.558 402.05 385.966 402.782C386.386 403.514 386.596 404.342 386.596 405.266C386.596 406.19 386.386 407.018 385.966 407.75C385.558 408.482 384.988 409.058 384.256 409.478C383.524 409.886 382.702 410.09 381.79 410.09ZM381.79 408.956C382.462 408.956 383.062 408.806 383.59 408.506C384.13 408.194 384.55 407.756 384.85 407.192C385.15 406.628 385.3 405.986 385.3 405.266C385.3 404.546 385.15 403.904 384.85 403.34C384.55 402.776 384.13 402.344 383.59 402.044C383.062 401.732 382.462 401.576 381.79 401.576C381.118 401.576 380.512 401.732 379.972 402.044C379.444 402.344 379.024 402.776 378.712 403.34C378.412 403.904 378.262 404.546 378.262 405.266C378.262 405.986 378.412 406.628 378.712 407.192C379.024 407.756 379.444 408.194 379.972 408.506C380.512 408.806 381.118 408.956 381.79 408.956ZM393.544 400.46C394.432 400.46 395.236 400.664 395.956 401.072C396.676 401.468 397.24 402.032 397.648 402.764C398.056 403.496 398.26 404.33 398.26 405.266C398.26 406.214 398.056 407.054 397.648 407.786C397.24 408.518 396.676 409.088 395.956 409.496C395.248 409.892 394.444 410.09 393.544 410.09C392.776 410.09 392.08 409.934 391.456 409.622C390.844 409.298 390.34 408.83 389.944 408.218V413.492H388.666V400.532H389.89V402.404C390.274 401.78 390.778 401.3 391.402 400.964C392.038 400.628 392.752 400.46 393.544 400.46ZM393.454 408.956C394.114 408.956 394.714 408.806 395.254 408.506C395.794 408.194 396.214 407.756 396.514 407.192C396.826 406.628 396.982 405.986 396.982 405.266C396.982 404.546 396.826 403.91 396.514 403.358C396.214 402.794 395.794 402.356 395.254 402.044C394.714 401.732 394.114 401.576 393.454 401.576C392.782 401.576 392.176 401.732 391.636 402.044C391.108 402.356 390.688 402.794 390.376 403.358C390.076 403.91 389.926 404.546 389.926 405.266C389.926 405.986 390.076 406.628 390.376 407.192C390.688 407.756 391.108 408.194 391.636 408.506C392.176 408.806 392.782 408.956 393.454 408.956ZM404.195 410.09C403.283 410.09 402.461 409.886 401.729 409.478C400.997 409.058 400.421 408.482 400.001 407.75C399.581 407.018 399.371 406.19 399.371 405.266C399.371 404.342 399.581 403.514 400.001 402.782C400.421 402.05 400.997 401.48 401.729 401.072C402.461 400.664 403.283 400.46 404.195 400.46C405.107 400.46 405.929 400.664 406.661 401.072C407.393 401.48 407.963 402.05 408.371 402.782C408.791 403.514 409.001 404.342 409.001 405.266C409.001 406.19 408.791 407.018 408.371 407.75C407.963 408.482 407.393 409.058 406.661 409.478C405.929 409.886 405.107 410.09 404.195 410.09ZM404.195 408.956C404.867 408.956 405.467 408.806 405.995 408.506C406.535 408.194 406.955 407.756 407.255 407.192C407.555 406.628 407.705 405.986 407.705 405.266C407.705 404.546 407.555 403.904 407.255 403.34C406.955 402.776 406.535 402.344 405.995 402.044C405.467 401.732 404.867 401.576 404.195 401.576C403.523 401.576 402.917 401.732 402.377 402.044C401.849 402.344 401.429 402.776 401.117 403.34C400.817 403.904 400.667 404.546 400.667 405.266C400.667 405.986 400.817 406.628 401.117 407.192C401.429 407.756 401.849 408.194 402.377 408.506C402.917 408.806 403.523 408.956 404.195 408.956ZM413.608 410.09C412.84 410.09 412.102 409.982 411.394 409.766C410.698 409.538 410.152 409.256 409.756 408.92L410.332 407.912C410.728 408.224 411.226 408.482 411.826 408.686C412.426 408.878 413.05 408.974 413.698 408.974C414.562 408.974 415.198 408.842 415.606 408.578C416.026 408.302 416.236 407.918 416.236 407.426C416.236 407.078 416.122 406.808 415.894 406.616C415.666 406.412 415.378 406.262 415.03 406.166C414.682 406.058 414.22 405.956 413.644 405.86C412.876 405.716 412.258 405.572 411.79 405.428C411.322 405.272 410.92 405.014 410.584 404.654C410.26 404.294 410.098 403.796 410.098 403.16C410.098 402.368 410.428 401.72 411.088 401.216C411.748 400.712 412.666 400.46 413.842 400.46C414.454 400.46 415.066 400.544 415.678 400.712C416.29 400.868 416.794 401.078 417.19 401.342L416.632 402.368C415.852 401.828 414.922 401.558 413.842 401.558C413.026 401.558 412.408 401.702 411.988 401.99C411.58 402.278 411.376 402.656 411.376 403.124C411.376 403.484 411.49 403.772 411.718 403.988C411.958 404.204 412.252 404.366 412.6 404.474C412.948 404.57 413.428 404.672 414.04 404.78C414.796 404.924 415.402 405.068 415.858 405.212C416.314 405.356 416.704 405.602 417.028 405.95C417.352 406.298 417.514 406.778 417.514 407.39C417.514 408.218 417.166 408.878 416.47 409.37C415.786 409.85 414.832 410.09 413.608 410.09ZM422.649 400.46C423.885 400.46 424.833 400.772 425.493 401.396C426.153 402.008 426.483 402.92 426.483 404.132V410H425.259V408.524C424.971 409.016 424.545 409.4 423.981 409.676C423.429 409.952 422.769 410.09 422.001 410.09C420.945 410.09 420.105 409.838 419.481 409.334C418.857 408.83 418.545 408.164 418.545 407.336C418.545 406.532 418.833 405.884 419.409 405.392C419.997 404.9 420.927 404.654 422.199 404.654H425.205V404.078C425.205 403.262 424.977 402.644 424.521 402.224C424.065 401.792 423.399 401.576 422.523 401.576C421.923 401.576 421.347 401.678 420.795 401.882C420.243 402.074 419.769 402.344 419.373 402.692L418.797 401.738C419.277 401.33 419.853 401.018 420.525 400.802C421.197 400.574 421.905 400.46 422.649 400.46ZM422.199 409.082C422.919 409.082 423.537 408.92 424.053 408.596C424.569 408.26 424.953 407.78 425.205 407.156V405.608H422.235C420.615 405.608 419.805 406.172 419.805 407.3C419.805 407.852 420.015 408.29 420.435 408.614C420.855 408.926 421.443 409.082 422.199 409.082ZM429.414 396.644H430.692V410H429.414V396.644ZM441.389 405.248L439.157 407.3V410H437.879V396.644H439.157V405.698L444.809 400.532H446.393L442.343 404.402L446.771 410H445.205L441.389 405.248ZM451.285 400.46C452.521 400.46 453.469 400.772 454.129 401.396C454.789 402.008 455.119 402.92 455.119 404.132V410H453.895V408.524C453.607 409.016 453.181 409.4 452.617 409.676C452.065 409.952 451.405 410.09 450.637 410.09C449.581 410.09 448.741 409.838 448.117 409.334C447.493 408.83 447.181 408.164 447.181 407.336C447.181 406.532 447.469 405.884 448.045 405.392C448.633 404.9 449.563 404.654 450.835 404.654H453.841V404.078C453.841 403.262 453.613 402.644 453.157 402.224C452.701 401.792 452.035 401.576 451.159 401.576C450.559 401.576 449.983 401.678 449.431 401.882C448.879 402.074 448.405 402.344 448.009 402.692L447.433 401.738C447.913 401.33 448.489 401.018 449.161 400.802C449.833 400.574 450.541 400.46 451.285 400.46ZM450.835 409.082C451.555 409.082 452.173 408.92 452.689 408.596C453.205 408.26 453.589 407.78 453.841 407.156V405.608H450.871C449.251 405.608 448.441 406.172 448.441 407.3C448.441 407.852 448.651 408.29 449.071 408.614C449.491 408.926 450.079 409.082 450.835 409.082ZM469.859 400.46C471.047 400.46 471.977 400.802 472.649 401.486C473.333 402.17 473.675 403.178 473.675 404.51V410H472.397V404.636C472.397 403.652 472.157 402.902 471.677 402.386C471.209 401.87 470.543 401.612 469.679 401.612C468.695 401.612 467.921 401.918 467.357 402.53C466.793 403.13 466.511 403.964 466.511 405.032V410H465.233V404.636C465.233 403.652 464.993 402.902 464.513 402.386C464.045 401.87 463.373 401.612 462.497 401.612C461.525 401.612 460.751 401.918 460.175 402.53C459.611 403.13 459.329 403.964 459.329 405.032V410H458.051V400.532H459.275V402.26C459.611 401.684 460.079 401.24 460.679 400.928C461.279 400.616 461.969 400.46 462.749 400.46C463.541 400.46 464.225 400.628 464.801 400.964C465.389 401.3 465.827 401.798 466.115 402.458C466.463 401.834 466.961 401.348 467.609 401C468.269 400.64 469.019 400.46 469.859 400.46ZM485.132 400.532V410H483.908V408.272C483.572 408.848 483.11 409.298 482.522 409.622C481.934 409.934 481.262 410.09 480.506 410.09C479.27 410.09 478.292 409.748 477.572 409.064C476.864 408.368 476.51 407.354 476.51 406.022V400.532H477.788V405.896C477.788 406.892 478.034 407.648 478.526 408.164C479.018 408.68 479.72 408.938 480.632 408.938C481.628 408.938 482.414 408.638 482.99 408.038C483.566 407.426 483.854 406.58 483.854 405.5V400.532H485.132Z" fill="#212121"/>
<path d="M309.451 433.46C310.639 433.46 311.569 433.802 312.241 434.486C312.925 435.17 313.267 436.178 313.267 437.51V443H311.989V437.636C311.989 436.652 311.749 435.902 311.269 435.386C310.801 434.87 310.135 434.612 309.271 434.612C308.287 434.612 307.513 434.918 306.949 435.53C306.385 436.13 306.103 436.964 306.103 438.032V443H304.825V437.636C304.825 436.652 304.585 435.902 304.105 435.386C303.637 434.87 302.965 434.612 302.089 434.612C301.117 434.612 300.343 434.918 299.767 435.53C299.203 436.13 298.921 436.964 298.921 438.032V443H297.643V433.532H298.867V435.26C299.203 434.684 299.671 434.24 300.271 433.928C300.871 433.616 301.561 433.46 302.341 433.46C303.133 433.46 303.817 433.628 304.393 433.964C304.981 434.3 305.419 434.798 305.707 435.458C306.055 434.834 306.553 434.348 307.201 434C307.861 433.64 308.611 433.46 309.451 433.46ZM319.505 433.46C320.741 433.46 321.689 433.772 322.349 434.396C323.009 435.008 323.339 435.92 323.339 437.132V443H322.115V441.524C321.827 442.016 321.401 442.4 320.837 442.676C320.285 442.952 319.625 443.09 318.857 443.09C317.801 443.09 316.961 442.838 316.337 442.334C315.713 441.83 315.401 441.164 315.401 440.336C315.401 439.532 315.689 438.884 316.265 438.392C316.853 437.9 317.783 437.654 319.055 437.654H322.061V437.078C322.061 436.262 321.833 435.644 321.377 435.224C320.921 434.792 320.255 434.576 319.379 434.576C318.779 434.576 318.203 434.678 317.651 434.882C317.099 435.074 316.625 435.344 316.229 435.692L315.653 434.738C316.133 434.33 316.709 434.018 317.381 433.802C318.053 433.574 318.761 433.46 319.505 433.46ZM319.055 442.082C319.775 442.082 320.393 441.92 320.909 441.596C321.425 441.26 321.809 440.78 322.061 440.156V438.608H319.091C317.471 438.608 316.661 439.172 316.661 440.3C316.661 440.852 316.871 441.29 317.291 441.614C317.711 441.926 318.299 442.082 319.055 442.082ZM332.3 443L329.294 439.04L326.27 443H324.83L328.574 438.14L325.01 433.532H326.45L329.294 437.24L332.138 433.532H333.542L329.978 438.14L333.758 443H332.3ZM341.982 435.566C343.806 435.566 345.132 435.896 345.96 436.556C346.8 437.204 347.22 438.116 347.22 439.292C347.22 440.024 347.046 440.678 346.698 441.254C346.362 441.83 345.852 442.286 345.168 442.622C344.484 442.946 343.644 443.108 342.648 443.108C341.748 443.108 340.89 442.964 340.074 442.676C339.27 442.376 338.622 441.98 338.13 441.488L338.76 440.462C339.18 440.894 339.732 441.248 340.416 441.524C341.1 441.788 341.838 441.92 342.63 441.92C343.674 441.92 344.478 441.686 345.042 441.218C345.618 440.75 345.906 440.126 345.906 439.346C345.906 438.482 345.582 437.828 344.934 437.384C344.298 436.94 343.218 436.718 341.694 436.718H339.012L339.66 430.4H346.554V431.552H340.794L340.362 435.566H341.982ZM360.98 433.46C362.168 433.46 363.098 433.802 363.77 434.486C364.454 435.17 364.796 436.178 364.796 437.51V443H363.518V437.636C363.518 436.652 363.278 435.902 362.798 435.386C362.33 434.87 361.664 434.612 360.8 434.612C359.816 434.612 359.042 434.918 358.478 435.53C357.914 436.13 357.632 436.964 357.632 438.032V443H356.354V437.636C356.354 436.652 356.114 435.902 355.634 435.386C355.166 434.87 354.494 434.612 353.618 434.612C352.646 434.612 351.872 434.918 351.296 435.53C350.732 436.13 350.45 436.964 350.45 438.032V443H349.172V433.532H350.396V435.26C350.732 434.684 351.2 434.24 351.8 433.928C352.4 433.616 353.09 433.46 353.87 433.46C354.662 433.46 355.346 433.628 355.922 433.964C356.51 434.3 356.948 434.798 357.236 435.458C357.584 434.834 358.082 434.348 358.73 434C359.39 433.64 360.14 433.46 360.98 433.46ZM372.6 433.46C373.488 433.46 374.292 433.664 375.012 434.072C375.732 434.468 376.296 435.032 376.704 435.764C377.112 436.496 377.316 437.33 377.316 438.266C377.316 439.202 377.112 440.036 376.704 440.768C376.296 441.5 375.732 442.07 375.012 442.478C374.292 442.886 373.488 443.09 372.6 443.09C371.808 443.09 371.094 442.922 370.458 442.586C369.834 442.25 369.33 441.764 368.946 441.128V443H367.722V429.644H369V435.332C369.396 434.72 369.9 434.258 370.512 433.946C371.136 433.622 371.832 433.46 372.6 433.46ZM372.51 441.956C373.17 441.956 373.77 441.806 374.31 441.506C374.85 441.194 375.27 440.756 375.57 440.192C375.882 439.628 376.038 438.986 376.038 438.266C376.038 437.546 375.882 436.904 375.57 436.34C375.27 435.776 374.85 435.344 374.31 435.044C373.77 434.732 373.17 434.576 372.51 434.576C371.838 434.576 371.232 434.732 370.692 435.044C370.164 435.344 369.744 435.776 369.432 436.34C369.132 436.904 368.982 437.546 368.982 438.266C368.982 438.986 369.132 439.628 369.432 440.192C369.744 440.756 370.164 441.194 370.692 441.506C371.232 441.806 371.838 441.956 372.51 441.956Z" fill="#7A7A7A"/>
<path fill-rule="evenodd" clip-rule="evenodd" d="M27.8438 7.50666C16.6136 7.50666 7.50974 16.6068 7.50974 27.8324V536.168C7.50974 547.393 16.6136 556.493 27.8438 556.493H654.156C665.386 556.493 674.49 547.393 674.49 536.168V27.8324C674.49 16.6068 665.386 7.50666 654.156 7.50666H27.8438ZM0 27.8324C0 12.461 12.4661 0 27.8438 0H654.156C669.534 0 682 12.461 682 27.8324V536.168C682 551.539 669.534 564 654.156 564H27.8438C12.4661 564 0 551.539 0 536.168V27.8324Z" fill="#67B3FE"/>
<path d="M1.07825 27.8321C1.07825 13.056 13.0612 1.07764 27.8437 1.07764H654.156C668.944 1.07764 680.922 13.056 680.922 27.8321V63.9507H1.07825V27.8321Z" fill="#67B3FE"/>
<path d="M53.2709 45.2223C60.662 45.2223 66.6536 39.2331 66.6536 31.845C66.6536 24.457 60.662 18.4678 53.2709 18.4678C45.8798 18.4678 39.8882 24.457 39.8882 31.845C39.8882 39.2331 45.8798 45.2223 53.2709 45.2223Z" fill="white"/>
<path d="M98.7724 45.2223C106.163 45.2223 112.155 39.2331 112.155 31.845C112.155 24.457 106.163 18.4678 98.7724 18.4678C91.3813 18.4678 85.3896 24.457 85.3896 31.845C85.3896 39.2331 91.3813 45.2223 98.7724 45.2223Z" fill="white"/>
<path d="M144.274 45.2223C151.665 45.2223 157.656 39.2331 157.656 31.845C157.656 24.457 151.665 18.4678 144.274 18.4678C136.883 18.4678 130.891 24.457 130.891 31.845C130.891 39.2331 136.883 45.2223 144.274 45.2223Z" fill="white"/>
<path d="M57.602 106.098C57.602 106.91 57.322 107.587 56.762 108.128C56.2113 108.66 55.3667 108.926 54.228 108.926H52.352V113H51.078V103.242H54.228C55.3293 103.242 56.1647 103.508 56.734 104.04C57.3127 104.572 57.602 105.258 57.602 106.098ZM54.228 107.876C54.9373 107.876 55.46 107.722 55.796 107.414C56.132 107.106 56.3 106.667 56.3 106.098C56.3 104.894 55.6093 104.292 54.228 104.292H52.352V107.876H54.228ZM66.1854 108.87C66.1854 109.113 66.1714 109.369 66.1434 109.64H60.0114C60.0581 110.396 60.3148 110.989 60.7814 111.418C61.2574 111.838 61.8314 112.048 62.5034 112.048C63.0541 112.048 63.5114 111.922 63.8754 111.67C64.2488 111.409 64.5101 111.063 64.6594 110.634H66.0314C65.8261 111.371 65.4154 111.973 64.7994 112.44C64.1834 112.897 63.4181 113.126 62.5034 113.126C61.7754 113.126 61.1221 112.963 60.5434 112.636C59.9741 112.309 59.5261 111.847 59.1994 111.25C58.8728 110.643 58.7094 109.943 58.7094 109.15C58.7094 108.357 58.8681 107.661 59.1854 107.064C59.5028 106.467 59.9461 106.009 60.5154 105.692C61.0941 105.365 61.7568 105.202 62.5034 105.202C63.2314 105.202 63.8754 105.361 64.4354 105.678C64.9954 105.995 65.4248 106.434 65.7234 106.994C66.0314 107.545 66.1854 108.17 66.1854 108.87ZM64.8694 108.604C64.8694 108.119 64.7621 107.703 64.5474 107.358C64.3328 107.003 64.0388 106.737 63.6654 106.56C63.3014 106.373 62.8954 106.28 62.4474 106.28C61.8034 106.28 61.2528 106.485 60.7954 106.896C60.3474 107.307 60.0908 107.876 60.0254 108.604H64.8694ZM71.6051 105.188C72.5384 105.188 73.2944 105.473 73.8731 106.042C74.4517 106.602 74.7411 107.414 74.7411 108.478V113H73.4811V108.66C73.4811 107.895 73.2897 107.311 72.9071 106.91C72.5244 106.499 72.0017 106.294 71.3391 106.294C70.6671 106.294 70.1304 106.504 69.7291 106.924C69.3371 107.344 69.1411 107.955 69.1411 108.758V113H67.8671V105.328H69.1411V106.42C69.3931 106.028 69.7337 105.725 70.1631 105.51C70.6017 105.295 71.0824 105.188 71.6051 105.188ZM79.9861 105.202C80.6488 105.202 81.2275 105.347 81.7221 105.636C82.2261 105.925 82.5995 106.289 82.8421 106.728V105.328H84.1301V113.168C84.1301 113.868 83.9808 114.489 83.6821 115.03C83.3835 115.581 82.9541 116.01 82.3941 116.318C81.8435 116.626 81.1995 116.78 80.4621 116.78C79.4541 116.78 78.6141 116.542 77.9421 116.066C77.2701 115.59 76.8735 114.941 76.7521 114.12H78.0121C78.1521 114.587 78.4415 114.96 78.8801 115.24C79.3188 115.529 79.8461 115.674 80.4621 115.674C81.1621 115.674 81.7315 115.455 82.1701 115.016C82.6181 114.577 82.8421 113.961 82.8421 113.168V111.558C82.5901 112.006 82.2168 112.379 81.7221 112.678C81.2275 112.977 80.6488 113.126 79.9861 113.126C79.3048 113.126 78.6841 112.958 78.1241 112.622C77.5735 112.286 77.1395 111.815 76.8221 111.208C76.5048 110.601 76.3461 109.911 76.3461 109.136C76.3461 108.352 76.5048 107.666 76.8221 107.078C77.1395 106.481 77.5735 106.019 78.1241 105.692C78.6841 105.365 79.3048 105.202 79.9861 105.202ZM82.8421 109.15C82.8421 108.571 82.7255 108.067 82.4921 107.638C82.2588 107.209 81.9415 106.882 81.5401 106.658C81.1481 106.425 80.7141 106.308 80.2381 106.308C79.7621 106.308 79.3281 106.42 78.9361 106.644C78.5441 106.868 78.2315 107.195 77.9981 107.624C77.7648 108.053 77.6481 108.557 77.6481 109.136C77.6481 109.724 77.7648 110.237 77.9981 110.676C78.2315 111.105 78.5441 111.437 78.9361 111.67C79.3281 111.894 79.7621 112.006 80.2381 112.006C80.7141 112.006 81.1481 111.894 81.5401 111.67C81.9415 111.437 82.2588 111.105 82.4921 110.676C82.7255 110.237 82.8421 109.729 82.8421 109.15ZM85.8071 109.136C85.8071 108.352 85.9657 107.666 86.2831 107.078C86.6004 106.481 87.0344 106.019 87.5851 105.692C88.1451 105.365 88.7657 105.202 89.4471 105.202C90.1191 105.202 90.7024 105.347 91.1971 105.636C91.6917 105.925 92.0604 106.289 92.3031 106.728V105.328H93.5911V113H92.3031V111.572C92.0511 112.02 91.6731 112.393 91.1691 112.692C90.6744 112.981 90.0957 113.126 89.4331 113.126C88.7517 113.126 88.1357 112.958 87.5851 112.622C87.0344 112.286 86.6004 111.815 86.2831 111.208C85.9657 110.601 85.8071 109.911 85.8071 109.136ZM92.3031 109.15C92.3031 108.571 92.1864 108.067 91.9531 107.638C91.7197 107.209 91.4024 106.882 91.0011 106.658C90.6091 106.425 90.1751 106.308 89.6991 106.308C89.2231 106.308 88.7891 106.42 88.3971 106.644C88.0051 106.868 87.6924 107.195 87.4591 107.624C87.2257 108.053 87.1091 108.557 87.1091 109.136C87.1091 109.724 87.2257 110.237 87.4591 110.676C87.6924 111.105 88.0051 111.437 88.3971 111.67C88.7891 111.894 89.2231 112.006 89.6991 112.006C90.1751 112.006 90.6091 111.894 91.0011 111.67C91.4024 111.437 91.7197 111.105 91.9531 110.676C92.1864 110.237 92.3031 109.729 92.3031 109.15ZM96.43 104.082C96.1873 104.082 95.982 103.998 95.814 103.83C95.6553 103.662 95.576 103.457 95.576 103.214C95.576 102.971 95.6553 102.766 95.814 102.598C95.982 102.43 96.1873 102.346 96.43 102.346C96.6727 102.346 96.8733 102.43 97.032 102.598C97.2 102.766 97.284 102.971 97.284 103.214C97.284 103.457 97.2 103.662 97.032 103.83C96.8733 103.998 96.6727 104.082 96.43 104.082ZM97.06 114.666C97.06 115.347 96.8873 115.847 96.542 116.164C96.1967 116.481 95.6927 116.64 95.03 116.64H94.288V115.562H94.82C95.1747 115.562 95.422 115.492 95.562 115.352C95.7113 115.212 95.786 114.974 95.786 114.638V105.328H97.06V114.666ZM106.021 105.328V113H104.747V111.866C104.504 112.258 104.163 112.566 103.725 112.79C103.295 113.005 102.819 113.112 102.297 113.112C101.699 113.112 101.163 112.991 100.687 112.748C100.211 112.496 99.8327 112.123 99.5527 111.628C99.282 111.133 99.1467 110.531 99.1467 109.822V105.328H100.407V109.654C100.407 110.41 100.598 110.993 100.981 111.404C101.363 111.805 101.886 112.006 102.549 112.006C103.23 112.006 103.767 111.796 104.159 111.376C104.551 110.956 104.747 110.345 104.747 109.542V105.328H106.021ZM107.696 109.136C107.696 108.352 107.854 107.666 108.172 107.078C108.489 106.481 108.923 106.019 109.474 105.692C110.034 105.365 110.654 105.202 111.336 105.202C112.008 105.202 112.591 105.347 113.086 105.636C113.58 105.925 113.949 106.289 114.192 106.728V105.328H115.48V113H114.192V111.572C113.94 112.02 113.562 112.393 113.058 112.692C112.563 112.981 111.984 113.126 111.322 113.126C110.64 113.126 110.024 112.958 109.474 112.622C108.923 112.286 108.489 111.815 108.172 111.208C107.854 110.601 107.696 109.911 107.696 109.136ZM114.192 109.15C114.192 108.571 114.075 108.067 113.842 107.638C113.608 107.209 113.291 106.882 112.89 106.658C112.498 106.425 112.064 106.308 111.588 106.308C111.112 106.308 110.678 106.42 110.286 106.644C109.894 106.868 109.581 107.195 109.348 107.624C109.114 108.053 108.998 108.557 108.998 109.136C108.998 109.724 109.114 110.237 109.348 110.676C109.581 111.105 109.894 111.437 110.286 111.67C110.678 111.894 111.112 112.006 111.588 112.006C112.064 112.006 112.498 111.894 112.89 111.67C113.291 111.437 113.608 111.105 113.842 110.676C114.075 110.237 114.192 109.729 114.192 109.15ZM121.371 105.188C122.304 105.188 123.06 105.473 123.639 106.042C124.217 106.602 124.507 107.414 124.507 108.478V113H123.247V108.66C123.247 107.895 123.055 107.311 122.673 106.91C122.29 106.499 121.767 106.294 121.105 106.294C120.433 106.294 119.896 106.504 119.495 106.924C119.103 107.344 118.907 107.955 118.907 108.758V113H117.633V105.328H118.907V106.42C119.159 106.028 119.499 105.725 119.929 105.51C120.367 105.295 120.848 105.188 121.371 105.188ZM135.234 103.242V110.452C135.234 111.255 134.987 111.899 134.492 112.384C133.998 112.86 133.344 113.098 132.532 113.098C131.711 113.098 131.053 112.855 130.558 112.37C130.064 111.875 129.816 111.203 129.816 110.354H131.09C131.1 110.83 131.221 111.217 131.454 111.516C131.697 111.815 132.056 111.964 132.532 111.964C133.008 111.964 133.363 111.824 133.596 111.544C133.83 111.255 133.946 110.891 133.946 110.452V103.242H135.234ZM144.548 105.328V113H143.274V111.866C143.031 112.258 142.691 112.566 142.252 112.79C141.823 113.005 141.347 113.112 140.824 113.112C140.227 113.112 139.69 112.991 139.214 112.748C138.738 112.496 138.36 112.123 138.08 111.628C137.809 111.133 137.674 110.531 137.674 109.822V105.328H138.934V109.654C138.934 110.41 139.125 110.993 139.508 111.404C139.891 111.805 140.413 112.006 141.076 112.006C141.757 112.006 142.294 111.796 142.686 111.376C143.078 110.956 143.274 110.345 143.274 109.542V105.328H144.548ZM146.223 109.136C146.223 108.352 146.382 107.666 146.699 107.078C147.016 106.481 147.45 106.019 148.001 105.692C148.561 105.365 149.186 105.202 149.877 105.202C150.474 105.202 151.03 105.342 151.543 105.622C152.056 105.893 152.448 106.252 152.719 106.7V102.64H154.007V113H152.719V111.558C152.467 112.015 152.094 112.393 151.599 112.692C151.104 112.981 150.526 113.126 149.863 113.126C149.182 113.126 148.561 112.958 148.001 112.622C147.45 112.286 147.016 111.815 146.699 111.208C146.382 110.601 146.223 109.911 146.223 109.136ZM152.719 109.15C152.719 108.571 152.602 108.067 152.369 107.638C152.136 107.209 151.818 106.882 151.417 106.658C151.025 106.425 150.591 106.308 150.115 106.308C149.639 106.308 149.205 106.42 148.813 106.644C148.421 106.868 148.108 107.195 147.875 107.624C147.642 108.053 147.525 108.557 147.525 109.136C147.525 109.724 147.642 110.237 147.875 110.676C148.108 111.105 148.421 111.437 148.813 111.67C149.205 111.894 149.639 112.006 150.115 112.006C150.591 112.006 151.025 111.894 151.417 111.67C151.818 111.437 152.136 111.105 152.369 110.676C152.602 110.237 152.719 109.729 152.719 109.15ZM162.964 105.328V113H161.69V111.866C161.447 112.258 161.107 112.566 160.668 112.79C160.239 113.005 159.763 113.112 159.24 113.112C158.643 113.112 158.106 112.991 157.63 112.748C157.154 112.496 156.776 112.123 156.496 111.628C156.225 111.133 156.09 110.531 156.09 109.822V105.328H157.35V109.654C157.35 110.41 157.541 110.993 157.924 111.404C158.307 111.805 158.829 112.006 159.492 112.006C160.173 112.006 160.71 111.796 161.102 111.376C161.494 110.956 161.69 110.345 161.69 109.542V105.328H162.964ZM166.389 102.64V113H165.115V102.64H166.389Z" fill="#8C8EA0"/>
<path d="M198.216 113L195.892 109.01H194.352V113H193.078V103.242H196.228C196.965 103.242 197.586 103.368 198.09 103.62C198.603 103.872 198.986 104.213 199.238 104.642C199.49 105.071 199.616 105.561 199.616 106.112C199.616 106.784 199.42 107.377 199.028 107.89C198.645 108.403 198.067 108.744 197.292 108.912L199.742 113H198.216ZM194.352 107.988H196.228C196.919 107.988 197.437 107.82 197.782 107.484C198.127 107.139 198.3 106.681 198.3 106.112C198.3 105.533 198.127 105.085 197.782 104.768C197.446 104.451 196.928 104.292 196.228 104.292H194.352V107.988ZM208.596 108.87C208.596 109.113 208.582 109.369 208.554 109.64H202.422C202.468 110.396 202.725 110.989 203.192 111.418C203.668 111.838 204.242 112.048 204.914 112.048C205.464 112.048 205.922 111.922 206.286 111.67C206.659 111.409 206.92 111.063 207.07 110.634H208.442C208.236 111.371 207.826 111.973 207.21 112.44C206.594 112.897 205.828 113.126 204.914 113.126C204.186 113.126 203.532 112.963 202.954 112.636C202.384 112.309 201.936 111.847 201.61 111.25C201.283 110.643 201.12 109.943 201.12 109.15C201.12 108.357 201.278 107.661 201.596 107.064C201.913 106.467 202.356 106.009 202.926 105.692C203.504 105.365 204.167 105.202 204.914 105.202C205.642 105.202 206.286 105.361 206.846 105.678C207.406 105.995 207.835 106.434 208.134 106.994C208.442 107.545 208.596 108.17 208.596 108.87ZM207.28 108.604C207.28 108.119 207.172 107.703 206.958 107.358C206.743 107.003 206.449 106.737 206.076 106.56C205.712 106.373 205.306 106.28 204.858 106.28C204.214 106.28 203.663 106.485 203.206 106.896C202.758 107.307 202.501 107.876 202.436 108.604H207.28ZM213.133 111.824L215.513 105.328H216.871L213.861 113H212.377L209.367 105.328H210.739L213.133 111.824ZM218.783 104.082C218.54 104.082 218.335 103.998 218.167 103.83C217.999 103.662 217.915 103.457 217.915 103.214C217.915 102.971 217.999 102.766 218.167 102.598C218.335 102.43 218.54 102.346 218.783 102.346C219.016 102.346 219.212 102.43 219.371 102.598C219.539 102.766 219.623 102.971 219.623 103.214C219.623 103.457 219.539 103.662 219.371 103.83C219.212 103.998 219.016 104.082 218.783 104.082ZM219.399 105.328V113H218.125V105.328H219.399ZM224.286 113.126C223.698 113.126 223.171 113.028 222.704 112.832C222.238 112.627 221.869 112.347 221.598 111.992C221.328 111.628 221.178 111.213 221.15 110.746H222.466C222.504 111.129 222.681 111.441 222.998 111.684C223.325 111.927 223.75 112.048 224.272 112.048C224.758 112.048 225.14 111.941 225.42 111.726C225.7 111.511 225.84 111.241 225.84 110.914C225.84 110.578 225.691 110.331 225.392 110.172C225.094 110.004 224.632 109.841 224.006 109.682C223.437 109.533 222.97 109.383 222.606 109.234C222.252 109.075 221.944 108.847 221.682 108.548C221.43 108.24 221.304 107.839 221.304 107.344C221.304 106.952 221.421 106.593 221.654 106.266C221.888 105.939 222.219 105.683 222.648 105.496C223.078 105.3 223.568 105.202 224.118 105.202C224.968 105.202 225.654 105.417 226.176 105.846C226.699 106.275 226.979 106.863 227.016 107.61H225.742C225.714 107.209 225.551 106.887 225.252 106.644C224.963 106.401 224.571 106.28 224.076 106.28C223.619 106.28 223.255 106.378 222.984 106.574C222.714 106.77 222.578 107.027 222.578 107.344C222.578 107.596 222.658 107.806 222.816 107.974C222.984 108.133 223.19 108.263 223.432 108.366C223.684 108.459 224.03 108.567 224.468 108.688C225.019 108.837 225.467 108.987 225.812 109.136C226.158 109.276 226.452 109.491 226.694 109.78C226.946 110.069 227.077 110.447 227.086 110.914C227.086 111.334 226.97 111.712 226.736 112.048C226.503 112.384 226.172 112.65 225.742 112.846C225.322 113.033 224.837 113.126 224.286 113.126ZM229.543 104.082C229.3 104.082 229.095 103.998 228.927 103.83C228.759 103.662 228.675 103.457 228.675 103.214C228.675 102.971 228.759 102.766 228.927 102.598C229.095 102.43 229.3 102.346 229.543 102.346C229.776 102.346 229.972 102.43 230.131 102.598C230.299 102.766 230.383 102.971 230.383 103.214C230.383 103.457 230.299 103.662 230.131 103.83C229.972 103.998 229.776 104.082 229.543 104.082ZM230.159 105.328V113H228.885V105.328H230.159Z" fill="#8C8EA0"/>
<path d="M260.256 113.098C259.603 113.098 259.015 112.986 258.492 112.762C257.969 112.529 257.559 112.202 257.26 111.782C256.961 111.362 256.812 110.872 256.812 110.312H258.52C258.557 110.732 258.721 111.077 259.01 111.348C259.309 111.619 259.724 111.754 260.256 111.754C260.807 111.754 261.236 111.623 261.544 111.362C261.852 111.091 262.006 110.746 262.006 110.326C262.006 109.999 261.908 109.733 261.712 109.528C261.525 109.323 261.287 109.164 260.998 109.052C260.718 108.94 260.326 108.819 259.822 108.688C259.187 108.52 258.669 108.352 258.268 108.184C257.876 108.007 257.54 107.736 257.26 107.372C256.98 107.008 256.84 106.523 256.84 105.916C256.84 105.356 256.98 104.866 257.26 104.446C257.54 104.026 257.932 103.704 258.436 103.48C258.94 103.256 259.523 103.144 260.186 103.144C261.129 103.144 261.899 103.382 262.496 103.858C263.103 104.325 263.439 104.969 263.504 105.79H261.74C261.712 105.435 261.544 105.132 261.236 104.88C260.928 104.628 260.522 104.502 260.018 104.502C259.561 104.502 259.187 104.619 258.898 104.852C258.609 105.085 258.464 105.421 258.464 105.86C258.464 106.159 258.553 106.406 258.73 106.602C258.917 106.789 259.15 106.938 259.43 107.05C259.71 107.162 260.093 107.283 260.578 107.414C261.222 107.591 261.745 107.769 262.146 107.946C262.557 108.123 262.902 108.399 263.182 108.772C263.471 109.136 263.616 109.626 263.616 110.242C263.616 110.737 263.481 111.203 263.21 111.642C262.949 112.081 262.561 112.435 262.048 112.706C261.544 112.967 260.947 113.098 260.256 113.098ZM272.569 108.954C272.569 109.243 272.551 109.505 272.513 109.738H266.619C266.666 110.354 266.895 110.849 267.305 111.222C267.716 111.595 268.22 111.782 268.817 111.782C269.676 111.782 270.283 111.423 270.637 110.704H272.359C272.126 111.413 271.701 111.997 271.085 112.454C270.479 112.902 269.723 113.126 268.817 113.126C268.08 113.126 267.417 112.963 266.829 112.636C266.251 112.3 265.793 111.833 265.457 111.236C265.131 110.629 264.967 109.929 264.967 109.136C264.967 108.343 265.126 107.647 265.443 107.05C265.77 106.443 266.223 105.977 266.801 105.65C267.389 105.323 268.061 105.16 268.817 105.16C269.545 105.16 270.194 105.319 270.763 105.636C271.333 105.953 271.776 106.401 272.093 106.98C272.411 107.549 272.569 108.207 272.569 108.954ZM270.903 108.45C270.894 107.862 270.684 107.391 270.273 107.036C269.863 106.681 269.354 106.504 268.747 106.504C268.197 106.504 267.725 106.681 267.333 107.036C266.941 107.381 266.708 107.853 266.633 108.45H270.903ZM283.478 105.16C284.085 105.16 284.626 105.286 285.102 105.538C285.587 105.79 285.965 106.163 286.236 106.658C286.516 107.153 286.656 107.75 286.656 108.45V113H285.074V108.688C285.074 107.997 284.901 107.47 284.556 107.106C284.211 106.733 283.739 106.546 283.142 106.546C282.545 106.546 282.069 106.733 281.714 107.106C281.369 107.47 281.196 107.997 281.196 108.688V113H279.614V108.688C279.614 107.997 279.441 107.47 279.096 107.106C278.751 106.733 278.279 106.546 277.682 106.546C277.085 106.546 276.609 106.733 276.254 107.106C275.909 107.47 275.736 107.997 275.736 108.688V113H274.14V105.286H275.736V106.168C275.997 105.851 276.329 105.603 276.73 105.426C277.131 105.249 277.561 105.16 278.018 105.16C278.634 105.16 279.185 105.291 279.67 105.552C280.155 105.813 280.529 106.191 280.79 106.686C281.023 106.219 281.387 105.851 281.882 105.58C282.377 105.3 282.909 105.16 283.478 105.16ZM289.499 104.264C289.209 104.264 288.967 104.166 288.771 103.97C288.575 103.774 288.477 103.531 288.477 103.242C288.477 102.953 288.575 102.71 288.771 102.514C288.967 102.318 289.209 102.22 289.499 102.22C289.779 102.22 290.017 102.318 290.213 102.514C290.409 102.71 290.507 102.953 290.507 103.242C290.507 103.531 290.409 103.774 290.213 103.97C290.017 104.166 289.779 104.264 289.499 104.264ZM290.283 105.286V113H288.687V105.286H290.283ZM296.27 105.16C296.877 105.16 297.418 105.286 297.894 105.538C298.379 105.79 298.757 106.163 299.028 106.658C299.299 107.153 299.434 107.75 299.434 108.45V113H297.852V108.688C297.852 107.997 297.679 107.47 297.334 107.106C296.989 106.733 296.517 106.546 295.92 106.546C295.323 106.546 294.847 106.733 294.492 107.106C294.147 107.47 293.974 107.997 293.974 108.688V113H292.378V105.286H293.974V106.168C294.235 105.851 294.567 105.603 294.968 105.426C295.379 105.249 295.813 105.16 296.27 105.16ZM300.938 109.108C300.938 108.333 301.097 107.647 301.414 107.05C301.741 106.453 302.179 105.991 302.73 105.664C303.29 105.328 303.906 105.16 304.578 105.16C305.185 105.16 305.712 105.281 306.16 105.524C306.617 105.757 306.981 106.051 307.252 106.406V105.286H308.862V113H307.252V111.852C306.981 112.216 306.613 112.519 306.146 112.762C305.679 113.005 305.147 113.126 304.55 113.126C303.887 113.126 303.281 112.958 302.73 112.622C302.179 112.277 301.741 111.801 301.414 111.194C301.097 110.578 300.938 109.883 300.938 109.108ZM307.252 109.136C307.252 108.604 307.14 108.142 306.916 107.75C306.701 107.358 306.417 107.059 306.062 106.854C305.707 106.649 305.325 106.546 304.914 106.546C304.503 106.546 304.121 106.649 303.766 106.854C303.411 107.05 303.122 107.344 302.898 107.736C302.683 108.119 302.576 108.576 302.576 109.108C302.576 109.64 302.683 110.107 302.898 110.508C303.122 110.909 303.411 111.217 303.766 111.432C304.13 111.637 304.513 111.74 304.914 111.74C305.325 111.74 305.707 111.637 306.062 111.432C306.417 111.227 306.701 110.928 306.916 110.536C307.14 110.135 307.252 109.668 307.252 109.136ZM312.554 106.406C312.788 106.014 313.096 105.711 313.478 105.496C313.87 105.272 314.332 105.16 314.864 105.16V106.812H314.458C313.833 106.812 313.357 106.971 313.03 107.288C312.713 107.605 312.554 108.156 312.554 108.94V113H310.958V105.286H312.554V106.406ZM326.772 106.168C326.772 106.663 326.655 107.129 326.422 107.568C326.189 108.007 325.815 108.366 325.302 108.646C324.789 108.917 324.131 109.052 323.328 109.052H321.564V113H319.968V103.27H323.328C324.075 103.27 324.705 103.401 325.218 103.662C325.741 103.914 326.128 104.259 326.38 104.698C326.641 105.137 326.772 105.627 326.772 106.168ZM323.328 107.75C323.935 107.75 324.387 107.615 324.686 107.344C324.985 107.064 325.134 106.672 325.134 106.168C325.134 105.104 324.532 104.572 323.328 104.572H321.564V107.75H323.328ZM329.89 106.406C330.123 106.014 330.431 105.711 330.814 105.496C331.206 105.272 331.668 105.16 332.2 105.16V106.812H331.794C331.169 106.812 330.693 106.971 330.366 107.288C330.049 107.605 329.89 108.156 329.89 108.94V113H328.294V105.286H329.89V106.406ZM337.013 113.126C336.285 113.126 335.627 112.963 335.039 112.636C334.451 112.3 333.989 111.833 333.653 111.236C333.317 110.629 333.149 109.929 333.149 109.136C333.149 108.352 333.322 107.657 333.667 107.05C334.013 106.443 334.484 105.977 335.081 105.65C335.679 105.323 336.346 105.16 337.083 105.16C337.821 105.16 338.488 105.323 339.085 105.65C339.683 105.977 340.154 106.443 340.499 107.05C340.845 107.657 341.017 108.352 341.017 109.136C341.017 109.92 340.84 110.615 340.485 111.222C340.131 111.829 339.645 112.3 339.029 112.636C338.423 112.963 337.751 113.126 337.013 113.126ZM337.013 111.74C337.424 111.74 337.807 111.642 338.161 111.446C338.525 111.25 338.819 110.956 339.043 110.564C339.267 110.172 339.379 109.696 339.379 109.136C339.379 108.576 339.272 108.105 339.057 107.722C338.843 107.33 338.558 107.036 338.203 106.84C337.849 106.644 337.466 106.546 337.055 106.546C336.645 106.546 336.262 106.644 335.907 106.84C335.562 107.036 335.287 107.33 335.081 107.722C334.876 108.105 334.773 108.576 334.773 109.136C334.773 109.967 334.983 110.611 335.403 111.068C335.833 111.516 336.369 111.74 337.013 111.74ZM344.191 106.42C344.462 106.065 344.83 105.767 345.297 105.524C345.764 105.281 346.291 105.16 346.879 105.16C347.551 105.16 348.162 105.328 348.713 105.664C349.273 105.991 349.712 106.453 350.029 107.05C350.346 107.647 350.505 108.333 350.505 109.108C350.505 109.883 350.346 110.578 350.029 111.194C349.712 111.801 349.273 112.277 348.713 112.622C348.162 112.958 347.551 113.126 346.879 113.126C346.291 113.126 345.768 113.009 345.311 112.776C344.854 112.533 344.48 112.235 344.191 111.88V116.668H342.595V105.286H344.191V106.42ZM348.881 109.108C348.881 108.576 348.769 108.119 348.545 107.736C348.33 107.344 348.041 107.05 347.677 106.854C347.322 106.649 346.94 106.546 346.529 106.546C346.128 106.546 345.745 106.649 345.381 106.854C345.026 107.059 344.737 107.358 344.513 107.75C344.298 108.142 344.191 108.604 344.191 109.136C344.191 109.668 344.298 110.135 344.513 110.536C344.737 110.928 345.026 111.227 345.381 111.432C345.745 111.637 346.128 111.74 346.529 111.74C346.94 111.74 347.322 111.637 347.677 111.432C348.041 111.217 348.33 110.909 348.545 110.508C348.769 110.107 348.881 109.64 348.881 109.108ZM355.429 113.126C354.701 113.126 354.043 112.963 353.455 112.636C352.867 112.3 352.405 111.833 352.069 111.236C351.733 110.629 351.565 109.929 351.565 109.136C351.565 108.352 351.738 107.657 352.083 107.05C352.429 106.443 352.9 105.977 353.497 105.65C354.095 105.323 354.762 105.16 355.499 105.16C356.237 105.16 356.904 105.323 357.501 105.65C358.099 105.977 358.57 106.443 358.915 107.05C359.261 107.657 359.433 108.352 359.433 109.136C359.433 109.92 359.256 110.615 358.901 111.222C358.547 111.829 358.061 112.3 357.445 112.636C356.839 112.963 356.167 113.126 355.429 113.126ZM355.429 111.74C355.84 111.74 356.223 111.642 356.577 111.446C356.941 111.25 357.235 110.956 357.459 110.564C357.683 110.172 357.795 109.696 357.795 109.136C357.795 108.576 357.688 108.105 357.473 107.722C357.259 107.33 356.974 107.036 356.619 106.84C356.265 106.644 355.882 106.546 355.471 106.546C355.061 106.546 354.678 106.644 354.323 106.84C353.978 107.036 353.703 107.33 353.497 107.722C353.292 108.105 353.189 108.576 353.189 109.136C353.189 109.967 353.399 110.611 353.819 111.068C354.249 111.516 354.785 111.74 355.429 111.74ZM363.811 113.126C363.204 113.126 362.658 113.019 362.173 112.804C361.697 112.58 361.319 112.281 361.039 111.908C360.759 111.525 360.61 111.101 360.591 110.634H362.243C362.271 110.961 362.425 111.236 362.705 111.46C362.994 111.675 363.354 111.782 363.783 111.782C364.231 111.782 364.576 111.698 364.819 111.53C365.071 111.353 365.197 111.129 365.197 110.858C365.197 110.569 365.057 110.354 364.777 110.214C364.506 110.074 364.072 109.92 363.475 109.752C362.896 109.593 362.425 109.439 362.061 109.29C361.697 109.141 361.38 108.912 361.109 108.604C360.848 108.296 360.717 107.89 360.717 107.386C360.717 106.975 360.838 106.602 361.081 106.266C361.324 105.921 361.669 105.65 362.117 105.454C362.574 105.258 363.097 105.16 363.685 105.16C364.562 105.16 365.267 105.384 365.799 105.832C366.34 106.271 366.63 106.873 366.667 107.638H365.071C365.043 107.293 364.903 107.017 364.651 106.812C364.399 106.607 364.058 106.504 363.629 106.504C363.209 106.504 362.887 106.583 362.663 106.742C362.439 106.901 362.327 107.111 362.327 107.372C362.327 107.577 362.402 107.75 362.551 107.89C362.7 108.03 362.882 108.142 363.097 108.226C363.312 108.301 363.629 108.399 364.049 108.52C364.609 108.669 365.066 108.823 365.421 108.982C365.785 109.131 366.098 109.355 366.359 109.654C366.62 109.953 366.756 110.349 366.765 110.844C366.765 111.283 366.644 111.675 366.401 112.02C366.158 112.365 365.813 112.636 365.365 112.832C364.926 113.028 364.408 113.126 363.811 113.126ZM367.957 109.108C367.957 108.333 368.116 107.647 368.433 107.05C368.76 106.453 369.199 105.991 369.749 105.664C370.309 105.328 370.925 105.16 371.597 105.16C372.204 105.16 372.731 105.281 373.179 105.524C373.637 105.757 374.001 106.051 374.271 106.406V105.286H375.881V113H374.271V111.852C374.001 112.216 373.632 112.519 373.165 112.762C372.699 113.005 372.167 113.126 371.569 113.126C370.907 113.126 370.3 112.958 369.749 112.622C369.199 112.277 368.76 111.801 368.433 111.194C368.116 110.578 367.957 109.883 367.957 109.108ZM374.271 109.136C374.271 108.604 374.159 108.142 373.935 107.75C373.721 107.358 373.436 107.059 373.081 106.854C372.727 106.649 372.344 106.546 371.933 106.546C371.523 106.546 371.14 106.649 370.785 106.854C370.431 107.05 370.141 107.344 369.917 107.736C369.703 108.119 369.595 108.576 369.595 109.108C369.595 109.64 369.703 110.107 369.917 110.508C370.141 110.909 370.431 111.217 370.785 111.432C371.149 111.637 371.532 111.74 371.933 111.74C372.344 111.74 372.727 111.637 373.081 111.432C373.436 111.227 373.721 110.928 373.935 110.536C374.159 110.135 374.271 109.668 374.271 109.136ZM379.574 102.64V113H377.978V102.64H379.574Z" fill="#212121"/>
<rect x="248" y="127" width="141" height="2" fill="#2E6FDF"/>
<path d="M411.216 113L408.892 109.01H407.352V113H406.078V103.242H409.228C409.965 103.242 410.586 103.368 411.09 103.62C411.603 103.872 411.986 104.213 412.238 104.642C412.49 105.071 412.616 105.561 412.616 106.112C412.616 106.784 412.42 107.377 412.028 107.89C411.645 108.403 411.067 108.744 410.292 108.912L412.742 113H411.216ZM407.352 107.988H409.228C409.919 107.988 410.437 107.82 410.782 107.484C411.127 107.139 411.3 106.681 411.3 106.112C411.3 105.533 411.127 105.085 410.782 104.768C410.446 104.451 409.928 104.292 409.228 104.292H407.352V107.988ZM421.596 108.87C421.596 109.113 421.582 109.369 421.554 109.64H415.422C415.468 110.396 415.725 110.989 416.192 111.418C416.668 111.838 417.242 112.048 417.914 112.048C418.464 112.048 418.922 111.922 419.286 111.67C419.659 111.409 419.92 111.063 420.07 110.634H421.442C421.236 111.371 420.826 111.973 420.21 112.44C419.594 112.897 418.828 113.126 417.914 113.126C417.186 113.126 416.532 112.963 415.954 112.636C415.384 112.309 414.936 111.847 414.61 111.25C414.283 110.643 414.12 109.943 414.12 109.15C414.12 108.357 414.278 107.661 414.596 107.064C414.913 106.467 415.356 106.009 415.926 105.692C416.504 105.365 417.167 105.202 417.914 105.202C418.642 105.202 419.286 105.361 419.846 105.678C420.406 105.995 420.835 106.434 421.134 106.994C421.442 107.545 421.596 108.17 421.596 108.87ZM420.28 108.604C420.28 108.119 420.172 107.703 419.958 107.358C419.743 107.003 419.449 106.737 419.076 106.56C418.712 106.373 418.306 106.28 417.858 106.28C417.214 106.28 416.663 106.485 416.206 106.896C415.758 107.307 415.501 107.876 415.436 108.604H420.28ZM426.133 111.824L428.513 105.328H429.871L426.861 113H425.377L422.367 105.328H423.739L426.133 111.824ZM431.783 104.082C431.54 104.082 431.335 103.998 431.167 103.83C430.999 103.662 430.915 103.457 430.915 103.214C430.915 102.971 430.999 102.766 431.167 102.598C431.335 102.43 431.54 102.346 431.783 102.346C432.016 102.346 432.212 102.43 432.371 102.598C432.539 102.766 432.623 102.971 432.623 103.214C432.623 103.457 432.539 103.662 432.371 103.83C432.212 103.998 432.016 104.082 431.783 104.082ZM432.399 105.328V113H431.125V105.328H432.399ZM437.286 113.126C436.698 113.126 436.171 113.028 435.704 112.832C435.238 112.627 434.869 112.347 434.598 111.992C434.328 111.628 434.178 111.213 434.15 110.746H435.466C435.504 111.129 435.681 111.441 435.998 111.684C436.325 111.927 436.75 112.048 437.272 112.048C437.758 112.048 438.14 111.941 438.42 111.726C438.7 111.511 438.84 111.241 438.84 110.914C438.84 110.578 438.691 110.331 438.392 110.172C438.094 110.004 437.632 109.841 437.006 109.682C436.437 109.533 435.97 109.383 435.606 109.234C435.252 109.075 434.944 108.847 434.682 108.548C434.43 108.24 434.304 107.839 434.304 107.344C434.304 106.952 434.421 106.593 434.654 106.266C434.888 105.939 435.219 105.683 435.648 105.496C436.078 105.3 436.568 105.202 437.118 105.202C437.968 105.202 438.654 105.417 439.176 105.846C439.699 106.275 439.979 106.863 440.016 107.61H438.742C438.714 107.209 438.551 106.887 438.252 106.644C437.963 106.401 437.571 106.28 437.076 106.28C436.619 106.28 436.255 106.378 435.984 106.574C435.714 106.77 435.578 107.027 435.578 107.344C435.578 107.596 435.658 107.806 435.816 107.974C435.984 108.133 436.19 108.263 436.432 108.366C436.684 108.459 437.03 108.567 437.468 108.688C438.019 108.837 438.467 108.987 438.812 109.136C439.158 109.276 439.452 109.491 439.694 109.78C439.946 110.069 440.077 110.447 440.086 110.914C440.086 111.334 439.97 111.712 439.736 112.048C439.503 112.384 439.172 112.65 438.742 112.846C438.322 113.033 437.837 113.126 437.286 113.126ZM442.543 104.082C442.3 104.082 442.095 103.998 441.927 103.83C441.759 103.662 441.675 103.457 441.675 103.214C441.675 102.971 441.759 102.766 441.927 102.598C442.095 102.43 442.3 102.346 442.543 102.346C442.776 102.346 442.972 102.43 443.131 102.598C443.299 102.766 443.383 102.971 443.383 103.214C443.383 103.457 443.299 103.662 443.131 103.83C442.972 103.998 442.776 104.082 442.543 104.082ZM443.159 105.328V113H441.885V105.328H443.159Z" fill="#8C8EA0"/>
<path d="M471.324 103.242V109.416C471.324 110.284 471.534 110.928 471.954 111.348C472.383 111.768 472.976 111.978 473.732 111.978C474.479 111.978 475.062 111.768 475.482 111.348C475.911 110.928 476.126 110.284 476.126 109.416V103.242H477.4V109.402C477.4 110.214 477.237 110.9 476.91 111.46C476.583 112.011 476.14 112.421 475.58 112.692C475.029 112.963 474.409 113.098 473.718 113.098C473.027 113.098 472.402 112.963 471.842 112.692C471.291 112.421 470.853 112.011 470.526 111.46C470.209 110.9 470.05 110.214 470.05 109.402V103.242H471.324ZM480.211 104.082C479.969 104.082 479.763 103.998 479.595 103.83C479.437 103.662 479.357 103.457 479.357 103.214C479.357 102.971 479.437 102.766 479.595 102.598C479.763 102.43 479.969 102.346 480.211 102.346C480.454 102.346 480.655 102.43 480.813 102.598C480.981 102.766 481.065 102.971 481.065 103.214C481.065 103.457 480.981 103.662 480.813 103.83C480.655 103.998 480.454 104.082 480.211 104.082ZM480.841 114.666C480.841 115.347 480.669 115.847 480.323 116.164C479.978 116.481 479.474 116.64 478.811 116.64H478.069V115.562H478.601C478.956 115.562 479.203 115.492 479.343 115.352C479.493 115.212 479.567 114.974 479.567 114.638V105.328H480.841V114.666ZM483.656 104.082C483.413 104.082 483.208 103.998 483.04 103.83C482.872 103.662 482.788 103.457 482.788 103.214C482.788 102.971 482.872 102.766 483.04 102.598C483.208 102.43 483.413 102.346 483.656 102.346C483.889 102.346 484.085 102.43 484.244 102.598C484.412 102.766 484.496 102.971 484.496 103.214C484.496 103.457 484.412 103.662 484.244 103.83C484.085 103.998 483.889 104.082 483.656 104.082ZM484.272 105.328V113H482.998V105.328H484.272ZM485.967 109.136C485.967 108.352 486.126 107.666 486.443 107.078C486.761 106.481 487.195 106.019 487.745 105.692C488.305 105.365 488.926 105.202 489.607 105.202C490.279 105.202 490.863 105.347 491.357 105.636C491.852 105.925 492.221 106.289 492.463 106.728V105.328H493.751V113H492.463V111.572C492.211 112.02 491.833 112.393 491.329 112.692C490.835 112.981 490.256 113.126 489.593 113.126C488.912 113.126 488.296 112.958 487.745 112.622C487.195 112.286 486.761 111.815 486.443 111.208C486.126 110.601 485.967 109.911 485.967 109.136ZM492.463 109.15C492.463 108.571 492.347 108.067 492.113 107.638C491.88 107.209 491.563 106.882 491.161 106.658C490.769 106.425 490.335 106.308 489.859 106.308C489.383 106.308 488.949 106.42 488.557 106.644C488.165 106.868 487.853 107.195 487.619 107.624C487.386 108.053 487.269 108.557 487.269 109.136C487.269 109.724 487.386 110.237 487.619 110.676C487.853 111.105 488.165 111.437 488.557 111.67C488.949 111.894 489.383 112.006 489.859 112.006C490.335 112.006 490.769 111.894 491.161 111.67C491.563 111.437 491.88 111.105 492.113 110.676C492.347 110.237 492.463 109.729 492.463 109.15ZM499.642 105.188C500.576 105.188 501.332 105.473 501.91 106.042C502.489 106.602 502.778 107.414 502.778 108.478V113H501.518V108.66C501.518 107.895 501.327 107.311 500.944 106.91C500.562 106.499 500.039 106.294 499.376 106.294C498.704 106.294 498.168 106.504 497.766 106.924C497.374 107.344 497.178 107.955 497.178 108.758V113H495.904V105.328H497.178V106.42C497.43 106.028 497.771 105.725 498.2 105.51C498.639 105.295 499.12 105.188 499.642 105.188ZM511.686 113.098C511.042 113.098 510.463 112.986 509.95 112.762C509.446 112.529 509.049 112.211 508.76 111.81C508.47 111.399 508.321 110.928 508.312 110.396H509.67C509.716 110.853 509.903 111.241 510.23 111.558C510.566 111.866 511.051 112.02 511.686 112.02C512.292 112.02 512.768 111.871 513.114 111.572C513.468 111.264 513.646 110.872 513.646 110.396C513.646 110.023 513.543 109.719 513.338 109.486C513.132 109.253 512.876 109.075 512.568 108.954C512.26 108.833 511.844 108.702 511.322 108.562C510.678 108.394 510.16 108.226 509.768 108.058C509.385 107.89 509.054 107.629 508.774 107.274C508.503 106.91 508.368 106.425 508.368 105.818C508.368 105.286 508.503 104.815 508.774 104.404C509.044 103.993 509.422 103.676 509.908 103.452C510.402 103.228 510.967 103.116 511.602 103.116C512.516 103.116 513.263 103.345 513.842 103.802C514.43 104.259 514.761 104.866 514.836 105.622H513.436C513.389 105.249 513.193 104.922 512.848 104.642C512.502 104.353 512.045 104.208 511.476 104.208C510.944 104.208 510.51 104.348 510.174 104.628C509.838 104.899 509.67 105.281 509.67 105.776C509.67 106.131 509.768 106.42 509.964 106.644C510.169 106.868 510.416 107.041 510.706 107.162C511.004 107.274 511.42 107.405 511.952 107.554C512.596 107.731 513.114 107.909 513.506 108.086C513.898 108.254 514.234 108.52 514.514 108.884C514.794 109.239 514.934 109.724 514.934 110.34C514.934 110.816 514.808 111.264 514.556 111.684C514.304 112.104 513.93 112.445 513.436 112.706C512.941 112.967 512.358 113.098 511.686 113.098ZM517.466 104.082C517.224 104.082 517.018 103.998 516.85 103.83C516.682 103.662 516.598 103.457 516.598 103.214C516.598 102.971 516.682 102.766 516.85 102.598C517.018 102.43 517.224 102.346 517.466 102.346C517.7 102.346 517.896 102.43 518.054 102.598C518.222 102.766 518.306 102.971 518.306 103.214C518.306 103.457 518.222 103.662 518.054 103.83C517.896 103.998 517.7 104.082 517.466 104.082ZM518.082 105.328V113H516.808V105.328H518.082ZM519.778 109.136C519.778 108.352 519.936 107.666 520.254 107.078C520.571 106.481 521.005 106.019 521.556 105.692C522.116 105.365 522.741 105.202 523.432 105.202C524.029 105.202 524.584 105.342 525.098 105.622C525.611 105.893 526.003 106.252 526.274 106.7V102.64H527.562V113H526.274V111.558C526.022 112.015 525.648 112.393 525.154 112.692C524.659 112.981 524.08 113.126 523.418 113.126C522.736 113.126 522.116 112.958 521.556 112.622C521.005 112.286 520.571 111.815 520.254 111.208C519.936 110.601 519.778 109.911 519.778 109.136ZM526.274 109.15C526.274 108.571 526.157 108.067 525.924 107.638C525.69 107.209 525.373 106.882 524.972 106.658C524.58 106.425 524.146 106.308 523.67 106.308C523.194 106.308 522.76 106.42 522.368 106.644C521.976 106.868 521.663 107.195 521.43 107.624C521.196 108.053 521.08 108.557 521.08 109.136C521.08 109.724 521.196 110.237 521.43 110.676C521.663 111.105 521.976 111.437 522.368 111.67C522.76 111.894 523.194 112.006 523.67 112.006C524.146 112.006 524.58 111.894 524.972 111.67C525.373 111.437 525.69 111.105 525.924 110.676C526.157 110.237 526.274 109.729 526.274 109.15ZM529.239 109.136C529.239 108.352 529.397 107.666 529.715 107.078C530.032 106.481 530.466 106.019 531.017 105.692C531.577 105.365 532.197 105.202 532.879 105.202C533.551 105.202 534.134 105.347 534.629 105.636C535.123 105.925 535.492 106.289 535.735 106.728V105.328H537.023V113H535.735V111.572C535.483 112.02 535.105 112.393 534.601 112.692C534.106 112.981 533.527 113.126 532.865 113.126C532.183 113.126 531.567 112.958 531.017 112.622C530.466 112.286 530.032 111.815 529.715 111.208C529.397 110.601 529.239 109.911 529.239 109.136ZM535.735 109.15C535.735 108.571 535.618 108.067 535.385 107.638C535.151 107.209 534.834 106.882 534.433 106.658C534.041 106.425 533.607 106.308 533.131 106.308C532.655 106.308 532.221 106.42 531.829 106.644C531.437 106.868 531.124 107.195 530.891 107.624C530.657 108.053 530.541 108.557 530.541 109.136C530.541 109.724 530.657 110.237 530.891 110.676C531.124 111.105 531.437 111.437 531.829 111.67C532.221 111.894 532.655 112.006 533.131 112.006C533.607 112.006 534.041 111.894 534.433 111.67C534.834 111.437 535.151 111.105 535.385 110.676C535.618 110.237 535.735 109.729 535.735 109.15ZM542.914 105.188C543.847 105.188 544.603 105.473 545.182 106.042C545.76 106.602 546.05 107.414 546.05 108.478V113H544.79V108.66C544.79 107.895 544.598 107.311 544.216 106.91C543.833 106.499 543.31 106.294 542.648 106.294C541.976 106.294 541.439 106.504 541.038 106.924C540.646 107.344 540.45 107.955 540.45 108.758V113H539.176V105.328H540.45V106.42C540.702 106.028 541.042 105.725 541.472 105.51C541.91 105.295 542.391 105.188 542.914 105.188ZM551.295 105.202C551.957 105.202 552.536 105.347 553.031 105.636C553.535 105.925 553.908 106.289 554.151 106.728V105.328H555.439V113.168C555.439 113.868 555.289 114.489 554.991 115.03C554.692 115.581 554.263 116.01 553.703 116.318C553.152 116.626 552.508 116.78 551.771 116.78C550.763 116.78 549.923 116.542 549.251 116.066C548.579 115.59 548.182 114.941 548.061 114.12H549.321C549.461 114.587 549.75 114.96 550.189 115.24C550.627 115.529 551.155 115.674 551.771 115.674C552.471 115.674 553.04 115.455 553.479 115.016C553.927 114.577 554.151 113.961 554.151 113.168V111.558C553.899 112.006 553.525 112.379 553.031 112.678C552.536 112.977 551.957 113.126 551.295 113.126C550.613 113.126 549.993 112.958 549.433 112.622C548.882 112.286 548.448 111.815 548.131 111.208C547.813 110.601 547.655 109.911 547.655 109.136C547.655 108.352 547.813 107.666 548.131 107.078C548.448 106.481 548.882 106.019 549.433 105.692C549.993 105.365 550.613 105.202 551.295 105.202ZM554.151 109.15C554.151 108.571 554.034 108.067 553.801 107.638C553.567 107.209 553.25 106.882 552.849 106.658C552.457 106.425 552.023 106.308 551.547 106.308C551.071 106.308 550.637 106.42 550.245 106.644C549.853 106.868 549.54 107.195 549.307 107.624C549.073 108.053 548.957 108.557 548.957 109.136C548.957 109.724 549.073 110.237 549.307 110.676C549.54 111.105 549.853 111.437 550.245 111.67C550.637 111.894 551.071 112.006 551.547 112.006C552.023 112.006 552.457 111.894 552.849 111.67C553.25 111.437 553.567 111.105 553.801 110.676C554.034 110.237 554.151 109.729 554.151 109.15Z" fill="#8C8EA0"/>
<path d="M585.172 113.098C584.528 113.098 583.949 112.986 583.436 112.762C582.932 112.529 582.535 112.211 582.246 111.81C581.957 111.399 581.807 110.928 581.798 110.396H583.156C583.203 110.853 583.389 111.241 583.716 111.558C584.052 111.866 584.537 112.02 585.172 112.02C585.779 112.02 586.255 111.871 586.6 111.572C586.955 111.264 587.132 110.872 587.132 110.396C587.132 110.023 587.029 109.719 586.824 109.486C586.619 109.253 586.362 109.075 586.054 108.954C585.746 108.833 585.331 108.702 584.808 108.562C584.164 108.394 583.646 108.226 583.254 108.058C582.871 107.89 582.54 107.629 582.26 107.274C581.989 106.91 581.854 106.425 581.854 105.818C581.854 105.286 581.989 104.815 582.26 104.404C582.531 103.993 582.909 103.676 583.394 103.452C583.889 103.228 584.453 103.116 585.088 103.116C586.003 103.116 586.749 103.345 587.328 103.802C587.916 104.259 588.247 104.866 588.322 105.622H586.922C586.875 105.249 586.679 104.922 586.334 104.642C585.989 104.353 585.531 104.208 584.962 104.208C584.43 104.208 583.996 104.348 583.66 104.628C583.324 104.899 583.156 105.281 583.156 105.776C583.156 106.131 583.254 106.42 583.45 106.644C583.655 106.868 583.903 107.041 584.192 107.162C584.491 107.274 584.906 107.405 585.438 107.554C586.082 107.731 586.6 107.909 586.992 108.086C587.384 108.254 587.72 108.52 588 108.884C588.28 109.239 588.42 109.724 588.42 110.34C588.42 110.816 588.294 111.264 588.042 111.684C587.79 112.104 587.417 112.445 586.922 112.706C586.427 112.967 585.844 113.098 585.172 113.098ZM597.295 108.87C597.295 109.113 597.281 109.369 597.253 109.64H591.121C591.167 110.396 591.424 110.989 591.891 111.418C592.367 111.838 592.941 112.048 593.613 112.048C594.163 112.048 594.621 111.922 594.985 111.67C595.358 111.409 595.619 111.063 595.769 110.634H597.141C596.935 111.371 596.525 111.973 595.909 112.44C595.293 112.897 594.527 113.126 593.613 113.126C592.885 113.126 592.231 112.963 591.653 112.636C591.083 112.309 590.635 111.847 590.309 111.25C589.982 110.643 589.819 109.943 589.819 109.15C589.819 108.357 589.977 107.661 590.295 107.064C590.612 106.467 591.055 106.009 591.625 105.692C592.203 105.365 592.866 105.202 593.613 105.202C594.341 105.202 594.985 105.361 595.545 105.678C596.105 105.995 596.534 106.434 596.833 106.994C597.141 107.545 597.295 108.17 597.295 108.87ZM595.979 108.604C595.979 108.119 595.871 107.703 595.657 107.358C595.442 107.003 595.148 106.737 594.775 106.56C594.411 106.373 594.005 106.28 593.557 106.28C592.913 106.28 592.362 106.485 591.905 106.896C591.457 107.307 591.2 107.876 591.135 108.604H595.979ZM600.25 102.64V113H598.976V102.64H600.25ZM609.422 108.87C609.422 109.113 609.408 109.369 609.38 109.64H603.248C603.294 110.396 603.551 110.989 604.018 111.418C604.494 111.838 605.068 112.048 605.74 112.048C606.29 112.048 606.748 111.922 607.112 111.67C607.485 111.409 607.746 111.063 607.896 110.634H609.268C609.062 111.371 608.652 111.973 608.036 112.44C607.42 112.897 606.654 113.126 605.74 113.126C605.012 113.126 604.358 112.963 603.78 112.636C603.21 112.309 602.762 111.847 602.436 111.25C602.109 110.643 601.946 109.943 601.946 109.15C601.946 108.357 602.104 107.661 602.422 107.064C602.739 106.467 603.182 106.009 603.752 105.692C604.33 105.365 604.993 105.202 605.74 105.202C606.468 105.202 607.112 105.361 607.672 105.678C608.232 105.995 608.661 106.434 608.96 106.994C609.268 107.545 609.422 108.17 609.422 108.87ZM608.106 108.604C608.106 108.119 607.998 107.703 607.784 107.358C607.569 107.003 607.275 106.737 606.902 106.56C606.538 106.373 606.132 106.28 605.684 106.28C605.04 106.28 604.489 106.485 604.032 106.896C603.584 107.307 603.327 107.876 603.262 108.604H608.106ZM613.819 113.126C613.231 113.126 612.704 113.028 612.237 112.832C611.771 112.627 611.402 112.347 611.131 111.992C610.861 111.628 610.711 111.213 610.683 110.746H611.999C612.037 111.129 612.214 111.441 612.531 111.684C612.858 111.927 613.283 112.048 613.805 112.048C614.291 112.048 614.673 111.941 614.953 111.726C615.233 111.511 615.373 111.241 615.373 110.914C615.373 110.578 615.224 110.331 614.925 110.172C614.627 110.004 614.165 109.841 613.539 109.682C612.97 109.533 612.503 109.383 612.139 109.234C611.785 109.075 611.477 108.847 611.215 108.548C610.963 108.24 610.837 107.839 610.837 107.344C610.837 106.952 610.954 106.593 611.187 106.266C611.421 105.939 611.752 105.683 612.181 105.496C612.611 105.3 613.101 105.202 613.651 105.202C614.501 105.202 615.187 105.417 615.709 105.846C616.232 106.275 616.512 106.863 616.549 107.61H615.275C615.247 107.209 615.084 106.887 614.785 106.644C614.496 106.401 614.104 106.28 613.609 106.28C613.152 106.28 612.788 106.378 612.517 106.574C612.247 106.77 612.111 107.027 612.111 107.344C612.111 107.596 612.191 107.806 612.349 107.974C612.517 108.133 612.723 108.263 612.965 108.366C613.217 108.459 613.563 108.567 614.001 108.688C614.552 108.837 615 108.987 615.345 109.136C615.691 109.276 615.985 109.491 616.227 109.78C616.479 110.069 616.61 110.447 616.619 110.914C616.619 111.334 616.503 111.712 616.269 112.048C616.036 112.384 615.705 112.65 615.275 112.846C614.855 113.033 614.37 113.126 613.819 113.126ZM617.942 109.136C617.942 108.352 618.101 107.666 618.418 107.078C618.735 106.481 619.169 106.019 619.72 105.692C620.28 105.365 620.901 105.202 621.582 105.202C622.254 105.202 622.837 105.347 623.332 105.636C623.827 105.925 624.195 106.289 624.438 106.728V105.328H625.726V113H624.438V111.572C624.186 112.02 623.808 112.393 623.304 112.692C622.809 112.981 622.231 113.126 621.568 113.126C620.887 113.126 620.271 112.958 619.72 112.622C619.169 112.286 618.735 111.815 618.418 111.208C618.101 110.601 617.942 109.911 617.942 109.136ZM624.438 109.15C624.438 108.571 624.321 108.067 624.088 107.638C623.855 107.209 623.537 106.882 623.136 106.658C622.744 106.425 622.31 106.308 621.834 106.308C621.358 106.308 620.924 106.42 620.532 106.644C620.14 106.868 619.827 107.195 619.594 107.624C619.361 108.053 619.244 108.557 619.244 109.136C619.244 109.724 619.361 110.237 619.594 110.676C619.827 111.105 620.14 111.437 620.532 111.67C620.924 111.894 621.358 112.006 621.834 112.006C622.31 112.006 622.744 111.894 623.136 111.67C623.537 111.437 623.855 111.105 624.088 110.676C624.321 110.237 624.438 109.729 624.438 109.15ZM628.537 104.082C628.294 104.082 628.089 103.998 627.921 103.83C627.753 103.662 627.669 103.457 627.669 103.214C627.669 102.971 627.753 102.766 627.921 102.598C628.089 102.43 628.294 102.346 628.537 102.346C628.77 102.346 628.966 102.43 629.125 102.598C629.293 102.766 629.377 102.971 629.377 103.214C629.377 103.457 629.293 103.662 629.125 103.83C628.966 103.998 628.77 104.082 628.537 104.082ZM629.153 105.328V113H627.879V105.328H629.153Z" fill="#8C8EA0"/>
</svg>
