<svg width="901" height="557" viewBox="0 0 901 557" fill="none" xmlns="http://www.w3.org/2000/svg">
<path d="M108.197 274.815C108.757 277.538 109.398 280.261 110.159 282.904C112.401 291.233 115.484 299.162 119.569 306.53C120.85 308.852 122.252 311.135 123.733 313.337C126.016 316.741 128.579 320.024 131.382 323.108C146.638 339.846 167.941 349.096 189.004 356.544C208.145 363.311 227.686 368.997 247.668 372.281C270.172 375.965 293.077 376.526 315.862 376.526C416.491 376.446 520.484 364.112 607.659 312.136C629.763 298.961 652.107 280.942 657.233 255.114C659.355 244.462 658.234 233.41 656.752 222.639C656.672 222.038 656.592 221.437 656.472 220.797C651.546 187.36 637.651 156.006 616.388 130.298C573.462 78.362 515.639 39.5598 452.01 21.0598C431.427 15.0933 410.284 11.169 388.981 9.16685C321.468 2.88003 252.313 16.655 191.887 48.4095C182.317 53.4549 172.867 58.9809 164.137 65.3879C162.215 66.8294 160.293 68.271 158.411 69.7927C156.409 71.3944 154.487 73.0762 152.605 74.7981C151.764 75.5589 150.923 76.3598 150.122 77.1607C147.84 79.4031 145.597 81.6856 143.515 84.1282C143.475 84.1683 143.435 84.2083 143.435 84.2484C137.268 91.336 132.143 99.1045 127.858 107.393C124.654 113.56 121.891 120.047 119.529 126.694C110.919 151.081 107.596 178.11 105.674 204.179C103.952 227.404 103.511 252.191 108.197 274.815Z" fill="#CCE6FF"/>
<path d="M108.197 274.815C108.757 277.538 109.398 280.261 110.159 282.904H350.299V74.8384H152.645C149.441 77.7616 146.398 80.8449 143.515 84.1685C143.475 84.2085 143.435 84.2486 143.435 84.2886C115.765 116.163 108.837 161.492 105.674 204.219C103.952 227.404 103.512 252.191 108.197 274.815Z" fill="#0181FE"/>
<path d="M104.833 247.586C105.314 256.836 106.395 266.006 108.237 274.856H338.126V74.8384H152.685C149.482 77.7616 146.438 80.8449 143.555 84.1685C143.515 84.2085 143.475 84.2486 143.475 84.2886C137.429 91.2562 132.343 98.9045 128.098 106.993C116.606 128.897 111.08 154.325 107.997 179.872C107.036 188.001 106.275 196.13 105.674 204.179C104.633 218.354 104.032 233.09 104.833 247.586Z" fill="#0E3C66"/>
<path d="M133.584 119.647C133.584 128.817 140.992 136.225 150.162 136.225C151.283 136.225 152.324 136.105 153.366 135.905C147.519 133.342 143.435 127.495 143.435 120.728C143.435 112.679 149.161 105.952 156.809 104.47C154.767 103.589 152.525 103.069 150.162 103.069C140.992 103.069 133.584 110.477 133.584 119.647Z" fill="#FFEDE7"/>
<path d="M334.202 84.4087H338.447V275.296H334.202V84.4087Z" fill="#011C3A"/>
<path d="M143.435 84.2887H357.587C362.793 84.2887 366.998 80.0841 366.998 74.8785C366.998 72.2757 365.957 69.9131 364.235 68.2313C362.513 66.5094 360.19 65.4683 357.587 65.4683H164.177C162.255 66.9098 160.333 68.3514 158.451 69.873C157.971 70.2735 157.45 70.6739 156.97 71.0743C156.569 71.3947 156.169 71.715 155.808 72.0754C155.288 72.5159 154.767 72.9964 154.207 73.477C153.686 73.9575 153.165 74.438 152.645 74.8785C151.444 75.9596 150.282 77.0809 149.121 78.2421C148.761 78.6025 148.4 78.9629 148.08 79.3233C147.8 79.6036 147.559 79.8439 147.319 80.1242C147.159 80.3244 146.959 80.4846 146.798 80.6848C146.518 81.0051 146.198 81.2854 145.918 81.6058C145.757 81.806 145.557 82.0062 145.397 82.1664C145.117 82.4467 144.876 82.727 144.596 83.0473C144.236 83.4478 143.875 83.8482 143.555 84.2486C143.515 84.2086 143.475 84.2486 143.435 84.2887Z" fill="#0181FE"/>
<path opacity="0.3" d="M128.058 106.993L334.202 244.623V146.396C298.763 128.857 249.55 104.47 208.786 84.2886H143.435C137.388 91.2561 132.303 98.8644 128.058 106.993Z" fill="#CCE6FF"/>
<path opacity="0.3" d="M104.833 247.586L145.637 274.856H299.684C257.519 253.953 160.413 205.861 107.996 179.913C107.035 188.041 106.274 196.17 105.674 204.219C104.633 218.354 104.032 233.09 104.833 247.586Z" fill="#CCE6FF"/>
<path d="M212.91 84.2886H217.155V274.855H212.91V84.2886Z" fill="#011C3A"/>
<path d="M217.115 74.8384H228.167V278.059H217.115V74.8384Z" fill="#0181FE"/>
<path d="M756.581 158.609C756.581 158.609 802.911 220.236 754.538 273.774L756.581 158.609Z" fill="#FFB020"/>
<path d="M756.58 158.609C756.58 158.609 772.798 214.991 754.538 246.585L706.726 229.566C706.726 229.566 727.789 178.471 756.58 158.609Z" fill="#0EA998"/>
<path d="M745.048 199.334C745.328 199.334 745.609 199.134 745.649 198.853L750.094 179.232C750.174 178.872 749.973 178.551 749.613 178.471C749.293 178.391 748.932 178.591 748.852 178.952L744.407 198.573C744.327 198.933 744.528 199.254 744.888 199.334C744.928 199.334 745.008 199.334 745.048 199.334Z" fill="#D1D5DB"/>
<path d="M778.004 281.783C778.044 282.704 778.084 283.465 778.124 283.986C778.204 284.626 778.244 284.947 778.244 284.947C778.404 285.067 778.604 285.147 778.845 285.267C782.969 287.069 791.138 283.785 797.665 280.462C802.911 277.779 808.477 275.697 814.203 274.335C826.016 271.492 837.669 261.121 844.356 254.273C847.479 251.07 850.923 248.267 854.567 245.624C860.814 241.099 868.902 231.609 872.947 226.683C874.028 225.362 873.147 223.36 871.425 223.24C860.613 222.479 851.043 222.559 842.594 223.32C780.687 228.806 777.603 269.93 778.004 281.783Z" fill="#0EA998"/>
<path d="M778.124 283.985C778.204 284.626 778.244 284.946 778.244 284.946C778.404 285.067 778.645 285.147 778.845 285.267C779.766 283.985 792.94 265.726 811.24 250.589C814.243 250.149 838.47 246.465 847.319 241.82C847.639 241.659 847.76 241.259 847.599 240.899C847.439 240.578 847.039 240.458 846.718 240.618C839.35 244.503 820.21 247.826 813.322 248.907C824.414 240.098 837.188 232.69 850.202 230.848C850.563 230.808 850.843 230.447 850.763 230.087C850.723 229.727 850.362 229.486 850.002 229.526C836.027 231.488 822.332 239.737 810.679 249.308C810.519 249.348 810.359 249.468 810.279 249.668C803.672 255.114 797.745 260.96 792.82 266.286C795.743 259.199 803.431 242.5 812.001 238.977C812.361 238.856 812.521 238.456 812.361 238.096C812.241 237.775 811.841 237.615 811.48 237.735C799.988 242.46 790.658 267.928 790.257 269.049C783.81 276.337 779.445 282.143 778.124 283.985Z" fill="#F9F8F6"/>
<path opacity="0.3" d="M778.004 281.783C788.496 267.888 817.727 231.569 842.554 223.32C780.687 228.806 777.604 269.93 778.004 281.783Z" fill="#14B8A6"/>
<path d="M764.149 289.872L801.83 228.205L824.775 190.684C824.775 190.684 818.488 190.324 809.919 192.286C788.455 197.091 752.696 216.072 764.149 289.872Z" fill="#0EA998"/>
<path opacity="0.3" d="M764.189 286.508L777.844 265.365L778.124 264.925L800.188 230.808L800.628 230.127L801.83 228.245L824.775 190.724C824.775 190.724 818.488 190.364 809.919 192.326C796.023 198.973 790.698 208.744 789.657 212.988C789.256 214.63 787.935 215.872 786.253 216.112C758.302 220.677 764.189 286.508 764.189 286.508Z" fill="#14B8A6"/>
<path d="M764.189 289.872L777.844 268.729L778.124 268.288L800.188 234.171L800.628 233.491L826.536 193.407C827.377 192.126 826.256 190.484 824.774 190.804C799.587 196.05 790.978 210.826 789.616 216.392C789.216 218.034 787.894 219.275 786.213 219.515C758.302 224 764.189 289.872 764.189 289.872Z" fill="#FFB020"/>
<path d="M777.844 268.689L778.124 268.248L781.888 234.532C779.966 238.456 778.444 259.319 777.844 268.689Z" fill="#F9F8F6"/>
<path d="M800.188 234.091L800.628 233.411L802.951 215.271C801.91 218.555 800.869 227.284 800.188 234.091Z" fill="#F9F8F6"/>
<path d="M784.411 315.9C785.011 318.743 786.573 321.546 788.735 324.269C789.296 324.95 789.857 325.631 790.497 326.312C790.778 326.592 791.018 326.872 791.298 327.192C798.826 335.001 810.559 341.648 817.046 345.012C819.409 346.253 821.651 347.735 823.854 349.256C833.704 356.104 867.901 358.546 875.75 358.987C876.591 359.027 877.192 358.226 876.911 357.465C875.55 353.541 871.666 347.214 867.621 341.168C867.461 340.887 867.261 340.647 867.101 340.367C866.62 339.686 866.18 339.005 865.699 338.365C860.694 331.157 856.009 325.03 856.009 325.03C856.009 325.03 834.385 313.217 834.145 313.738C833.905 314.258 804.232 308.812 804.232 308.812L784.411 315.9Z" fill="#FFB020"/>
<path d="M784.411 315.9C785.011 318.743 786.573 321.546 788.735 324.269C795.062 325.35 803.071 325.911 813.042 325.391C822.212 324.91 831.382 326.552 839.911 329.996C846.879 332.839 855.968 336.082 865.699 338.365C860.694 331.157 856.008 325.03 856.008 325.03C856.008 325.03 834.385 313.217 834.145 313.738C833.904 314.258 804.232 308.812 804.232 308.812L784.411 315.9Z" fill="#BC921D"/>
<path d="M805.914 315.3C806.074 314.979 806.435 314.859 806.755 314.979C807.796 315.46 820.69 321.506 834.345 328.714C836.187 328.834 851.363 329.755 854.487 331.637C854.807 331.838 854.887 332.198 854.687 332.518C854.567 332.719 854.367 332.839 854.126 332.839C854.006 332.839 853.886 332.799 853.806 332.759C851.764 331.517 842.714 330.636 837.068 330.236C849.922 337.123 862.856 344.812 866.66 349.697C866.86 349.977 866.82 350.378 866.54 350.578C866.42 350.658 866.3 350.698 866.139 350.698C865.939 350.698 865.779 350.618 865.619 350.458C859.973 343.21 832.423 328.994 816.886 321.346C819.249 326.312 826.577 341.088 831.182 343.891C831.462 344.091 831.582 344.451 831.382 344.772C831.262 344.972 831.061 345.092 830.821 345.092C830.701 345.092 830.581 345.052 830.501 345.012C824.895 341.568 816.125 322.788 815.084 320.465C809.838 317.902 806.315 316.261 806.194 316.181C805.914 316.02 805.754 315.62 805.914 315.3Z" fill="#F9F8F6"/>
<path d="M767.232 308.092C767.232 308.092 767.392 308.292 767.793 308.612C770.315 310.855 782.208 319.464 813.042 317.902C822.212 317.422 831.382 319.064 839.911 322.507C855.087 328.674 880.555 336.883 900.096 332.438C900.417 332.358 900.697 332.318 900.977 332.238C902.058 331.958 863.817 245.984 768.954 307.011C768.393 307.331 767.833 307.731 767.232 308.092Z" fill="#0EA998"/>
<path d="M767.232 308.092C767.232 308.092 767.392 308.292 767.793 308.612C770.235 307.931 784.21 304.247 802.11 302.526C806.675 306.049 819.168 315.42 821.611 315.42H821.731C822.091 315.38 822.332 315.019 822.252 314.699C822.212 314.338 821.851 314.098 821.531 314.178C821.531 314.178 821.531 314.178 821.491 314.178C820.129 314.178 811.76 308.292 803.992 302.365C814.683 301.444 826.616 301.244 838.229 302.766C841.873 306.089 856.369 319.184 858.811 320.545C858.931 320.585 859.012 320.625 859.132 320.625C859.372 320.625 859.572 320.505 859.692 320.305C859.852 319.985 859.772 319.624 859.452 319.424C857.49 318.303 846.718 308.692 840.471 303.046C857.13 305.569 872.987 311.816 883.478 324.75C883.598 324.91 883.798 324.99 883.959 324.99C884.079 324.99 884.239 324.95 884.359 324.87C884.639 324.63 884.679 324.229 884.439 323.949C864.337 299.162 825.015 298.481 797.425 301.725C807.956 298.121 832.142 290.753 844.236 295.278C844.556 295.398 844.916 295.238 845.036 294.917C845.157 294.597 844.996 294.237 844.676 294.116C829.419 288.43 796.303 300.684 791.538 302.526C780.807 304.087 772.478 306.049 768.914 306.97C768.393 307.331 767.833 307.691 767.232 308.092Z" fill="#F9F8F6"/>
<path opacity="0.3" d="M767.232 308.092C767.232 308.092 850.723 273.774 900.096 332.438C900.417 332.358 900.697 332.318 900.977 332.238C902.058 331.958 863.817 245.984 768.954 307.011C768.393 307.331 767.833 307.731 767.232 308.092Z" fill="#14B8A6"/>
<path d="M36.8792 490.249C33.916 513.314 212.069 532.015 440.798 532.375C663.88 532.735 844.716 513.515 844.716 490.249C844.716 466.984 663.88 448.124 440.798 448.124C217.716 448.124 39.8424 467.184 36.8792 490.249Z" fill="#CCE6FF"/>
<path d="M0.0789238 490.289C-0.161337 492.412 0.159011 494.654 0.879793 496.496C1.56053 498.378 2.5616 499.9 3.56269 501.221C4.60382 502.543 5.68499 503.584 6.76616 504.545C7.84734 505.506 8.96857 506.347 10.0898 507.108C14.5747 510.151 19.0595 512.273 23.5844 514.155C28.1093 516.037 32.6743 517.639 37.1992 519.081C41.7642 520.522 46.3291 521.804 50.894 523.005C60.064 525.407 69.234 527.45 78.444 529.292C87.654 531.134 96.864 532.775 106.074 534.297C124.534 537.3 143.034 539.823 161.534 542.025C180.074 544.228 198.614 546.11 217.155 547.752C254.275 551.035 291.435 553.278 328.636 554.759C365.836 556.241 403.036 556.922 440.237 556.882C477.437 556.842 514.677 556.161 551.878 554.719C570.498 554.039 589.078 553.078 607.658 551.956C626.239 550.835 644.819 549.514 663.399 547.912C681.979 546.35 700.519 544.468 719.019 542.306C737.559 540.143 756.06 537.621 774.52 534.577C783.73 533.056 792.98 531.374 802.15 529.532C811.36 527.65 820.53 525.608 829.659 523.165C838.789 520.722 847.919 517.959 856.969 514.275C859.211 513.354 861.494 512.313 863.736 511.192C865.979 510.071 868.221 508.829 870.464 507.348C871.585 506.627 872.706 505.826 873.787 504.905C874.868 504.024 875.99 503.023 877.031 501.862C878.072 500.701 879.113 499.339 879.994 497.697C880.835 496.056 881.556 494.053 881.676 491.931C881.836 489.769 881.436 487.606 880.715 485.764C879.994 483.922 878.993 482.441 877.952 481.159C876.911 479.878 875.83 478.837 874.708 477.916C873.587 476.995 872.506 476.154 871.385 475.393C869.142 473.912 866.9 472.67 864.617 471.549C862.375 470.428 860.092 469.467 857.81 468.586C853.285 466.784 848.72 465.302 844.155 463.941C839.59 462.579 835.025 461.378 830.42 460.257C821.25 458.054 812.04 456.172 802.83 454.531C793.62 452.889 784.41 451.447 775.16 450.126C756.7 447.483 738.2 445.401 719.66 443.599C701.16 441.797 682.62 440.355 664.04 439.074C626.959 436.551 589.839 434.909 552.679 433.868C534.099 433.348 515.558 432.987 496.978 432.747C478.398 432.507 459.858 432.427 441.278 432.507C404.158 432.627 366.997 433.187 329.877 434.269C292.757 435.35 255.636 436.951 218.556 439.354C200.016 440.555 181.476 441.997 162.936 443.759C144.396 445.521 125.895 447.603 107.435 450.206C98.1854 451.527 88.9754 452.969 79.7654 454.651C70.5554 456.332 61.3454 458.174 52.2155 460.377C47.6505 461.498 43.0456 462.699 38.5207 464.061C33.9557 465.422 29.3907 466.904 24.8658 468.706C20.3409 470.508 15.816 472.51 11.3712 475.313C9.12873 476.755 6.92634 478.356 4.76399 480.599C3.72286 481.72 2.68177 483.001 1.80081 484.603C1.03999 486.285 0.319185 488.207 0.0789238 490.289ZM12.3722 491.571C12.4123 491.37 12.4524 491.05 12.6926 490.61C12.9329 490.169 13.3333 489.609 13.8538 489.048C14.3744 488.487 15.0151 487.887 15.7359 487.286C16.4566 486.725 17.2575 486.125 18.0584 485.604C21.4221 483.402 25.3464 481.52 29.4308 479.838C33.5152 478.156 37.7598 476.635 42.0445 475.273C46.3291 473.912 50.7339 472.63 55.1387 471.469C63.9483 469.146 72.918 467.064 81.9277 465.222C90.9375 463.38 100.027 461.698 109.117 460.177C127.337 457.133 145.637 454.571 164.017 452.328C182.397 450.086 200.817 448.164 219.277 446.522C256.197 443.198 293.197 440.916 330.237 439.434C367.278 437.993 404.358 437.392 441.438 437.472C459.978 437.552 478.518 437.752 497.058 438.153C515.599 438.553 534.139 439.114 552.639 439.875C589.679 441.356 626.679 443.599 663.599 446.762C682.059 448.324 700.479 450.206 718.859 452.368C737.239 454.531 755.579 457.053 773.759 460.057C782.849 461.578 791.938 463.22 800.948 465.062C809.958 466.904 818.928 468.946 827.737 471.309C832.142 472.47 836.507 473.751 840.792 475.153C845.076 476.554 849.321 478.076 853.365 479.798C857.41 481.52 861.294 483.442 864.537 485.684C865.338 486.245 866.059 486.806 866.74 487.406C867.38 487.967 867.941 488.567 868.381 489.128C868.782 489.649 869.062 490.169 869.182 490.49C869.302 490.81 869.262 490.97 869.262 491.17C869.262 491.33 869.142 491.571 868.942 492.011C868.702 492.412 868.341 492.932 867.821 493.453C867.3 493.973 866.66 494.574 865.939 495.095C865.218 495.655 864.457 496.176 863.616 496.696C861.974 497.737 860.092 498.698 858.17 499.619C856.248 500.54 854.246 501.381 852.204 502.142C843.995 505.266 835.225 507.708 826.416 509.831C808.717 514.035 790.537 517.078 772.357 519.681C735.918 524.807 699.078 528.09 662.198 530.613C643.778 531.854 625.318 532.856 606.818 533.737C588.357 534.577 569.857 535.218 551.397 535.739C514.437 536.74 477.437 537.14 440.437 536.94C403.437 536.74 366.437 536.179 329.436 535.138C292.476 534.057 255.516 532.575 218.596 530.253C200.136 529.091 181.716 527.73 163.336 526.048C144.956 524.366 126.616 522.364 108.356 519.881C99.2265 518.6 90.1366 517.239 81.1269 515.637C72.077 514.035 63.1074 512.273 54.2578 510.151C49.853 509.11 45.4482 507.949 41.1235 506.667C36.7988 505.386 32.5541 504.024 28.4697 502.423C24.4253 500.821 20.4611 499.019 17.2175 496.856C16.4167 496.336 15.6559 495.775 15.0152 495.215C14.3745 494.654 13.7738 494.093 13.3733 493.573C12.9329 493.052 12.6926 492.612 12.5725 492.292C12.3722 491.891 12.3722 491.771 12.3722 491.571Z" fill="#CCE6FF"/>
<path d="M320.267 300.924H406.921C413.768 300.924 419.294 305.088 419.294 310.254V432.387C419.294 437.512 413.768 441.717 406.921 441.717H320.267C313.419 441.717 307.893 437.552 307.893 432.387V310.254C307.893 305.088 313.419 300.924 320.267 300.924ZM344.133 428.182C344.133 431.746 347.977 434.669 352.742 434.669H376.288C380.052 434.669 383.135 432.387 383.135 429.543V317.702C383.135 314.859 380.052 312.576 376.288 312.576H352.742C347.977 312.576 344.133 315.46 344.133 319.064V428.182Z" fill="#014D98"/>
<path d="M376.288 434.669H397.711C402.476 434.669 406.32 431.746 406.32 428.182V319.063C406.32 315.459 402.476 312.576 397.711 312.576H376.288C380.052 312.576 383.135 314.859 383.135 317.702V429.543C383.095 432.386 380.012 434.669 376.288 434.669Z" fill="#014D98"/>
<path d="M381.413 273.454C405.519 261.16 396.95 219.355 398.672 212.187C376.368 241.94 372.884 265.365 372.884 265.365C372.644 224.561 371.643 216.872 364.715 205.46C359.75 232.009 359.029 264.084 359.029 264.084C337.686 213.629 327.795 205.46 327.795 205.46C330.758 234.972 347.376 269.369 347.376 269.369C330.758 253.552 313.66 254.073 313.66 254.073C326.073 265.725 341.13 272.613 341.13 272.613C367.678 274.415 381.413 273.454 381.413 273.454Z" fill="#14B8A6"/>
<path d="M376.368 259.558C381.093 226.843 378.85 212.587 376.368 207.622C373.885 224.48 362.753 254.953 366.957 271.652C374.165 268.608 374.285 273.974 376.368 259.558Z" fill="#0EA998"/>
<path d="M370.441 269.85C368.639 242.5 355.745 216.031 356.626 205.86C349.419 228.965 355.465 257.877 357.708 266.246C359.99 275.296 370.762 274.815 370.441 269.85Z" fill="#0EA998"/>
<path d="M375.607 270.571C384.056 255.955 380.092 248.066 385.898 234.852C374.526 242.34 363.474 263.363 365.236 271.171C371.763 272.133 375.607 270.571 375.607 270.571Z" fill="#14B8A6"/>
<path d="M374.566 271.892C398.111 269.009 401.755 243.982 406.52 240.058C395.108 240.738 385.177 258.197 377.088 262.722C373.805 267.648 374.566 271.892 374.566 271.892Z" fill="#14B8A6"/>
<path d="M349.579 271.252C344.613 251.11 333.201 236.214 324.752 234.892C332.44 240.979 333.201 265.525 339.488 270.611C346.455 272.933 349.579 271.252 349.579 271.252Z" fill="#14B8A6"/>
<path d="M345.614 270.691L333.041 244.342C337.205 247.746 345.614 270.691 345.614 270.691Z" fill="#0EA998"/>
<path d="M370.081 270.21C369.881 270.731 369.761 271.091 369.681 271.212L370.081 270.21Z" fill="#0EA998"/>
<path d="M370.081 270.211C371.643 265.806 376.808 249.508 379.131 247.146L370.081 270.211Z" fill="#0EA998"/>
<path d="M377.649 269.77L375.607 270.57C375.607 270.57 382.014 265.045 387.66 259.799L377.649 269.77Z" fill="#0EA998"/>
<path d="M387.66 259.799L395.068 252.431C393.626 254.153 390.743 256.916 387.66 259.799Z" fill="#0EA998"/>
<path d="M362.232 269.369C362.192 249.628 353.423 227.524 343.893 220.876C346.375 242.22 348.698 270.21 351.741 272.933C357.948 274.455 362.232 272.492 362.232 269.369Z" fill="#14B8A6"/>
<path d="M356.226 270.691L349.619 234.211C351.301 237.214 356.707 269.77 356.226 270.691Z" fill="#0EA998"/>
<path d="M346.615 296.839H377.649V301.284H346.615V296.839Z" fill="#FFEDE7"/>
<path d="M346.575 296.839V297.52C351.1 300.083 356.386 301.324 362.152 301.324C367.959 301.324 373.204 300.003 377.609 297.4V296.879H346.575V296.839Z" fill="#D3D3D3"/>
<path d="M333.041 269.77V272.173C333.041 274.896 333.401 277.538 334.122 280.021C334.202 280.342 334.322 280.622 334.402 280.942C334.642 281.783 334.963 282.624 335.323 283.425C335.443 283.705 335.563 283.945 335.683 284.226C340.248 294.317 350.419 301.324 362.192 301.324C374.886 301.324 385.698 293.195 389.662 281.863C389.782 281.543 389.902 281.182 389.982 280.862C390.183 280.261 390.343 279.621 390.503 279.02C390.623 278.58 390.703 278.139 390.783 277.699C391.144 275.937 391.304 274.095 391.304 272.213V269.81H333.041V269.77Z" fill="#FFEDE7"/>
<path d="M334.122 280.021C334.202 280.341 334.322 280.622 334.402 280.942C335.603 280.942 336.845 280.702 337.926 280.261C339.047 279.821 339.848 279.06 340.689 278.219C341.089 277.859 341.49 277.498 341.97 277.298C342.05 277.258 341.93 277.298 342.09 277.258C342.09 277.258 342.13 277.258 342.171 277.258H342.211C342.251 277.258 342.291 277.258 342.331 277.298C342.451 277.298 342.411 277.298 342.491 277.338C343.372 277.618 344.173 278.179 344.974 278.66C345.814 279.22 346.695 279.781 347.697 280.061C349.979 280.742 352.101 279.861 354.063 278.7C354.864 278.219 355.705 277.618 356.626 277.378C356.626 277.378 356.746 277.338 356.786 277.338C356.866 277.338 356.947 277.338 356.947 277.338C357.107 277.338 357.227 277.338 357.427 277.418C357.908 277.538 358.348 277.779 358.749 278.059C359.67 278.62 360.51 279.34 361.471 279.821C362.753 280.462 364.154 280.582 365.516 280.341C366.917 280.101 368.239 279.461 369.48 278.82C370.521 278.259 371.562 277.659 372.764 277.458C373.765 277.258 374.646 277.659 375.407 278.419C375.847 278.86 376.248 279.34 376.728 279.701C377.249 280.061 377.809 280.261 378.41 280.422C379.771 280.702 381.173 280.542 382.494 280.221C383.776 279.861 384.977 279.26 386.218 278.78C386.779 278.539 387.5 278.339 388.02 278.259C388.18 278.219 388.341 278.219 388.541 278.259C388.701 278.259 388.901 278.299 389.102 278.339C389.582 278.459 390.022 278.66 390.423 278.98C390.543 278.539 390.623 278.099 390.703 277.659C389.021 277.138 387.059 277.458 385.498 278.019C384.216 278.459 383.055 279.1 381.733 279.501C380.812 279.781 379.811 279.901 378.93 279.42C377.809 278.82 377.249 277.618 376.127 277.058C374.926 276.497 373.485 276.457 372.203 276.697C370.922 276.938 369.72 277.458 368.559 278.059C367.438 278.66 366.237 279.38 364.955 279.581C363.954 279.741 363.033 279.18 362.232 278.62C361.311 278.019 360.47 277.338 359.429 276.898C357.187 275.977 354.904 276.818 352.942 277.979C352.101 278.499 351.26 279.06 350.339 279.34C349.979 279.461 349.859 279.501 349.498 279.42C349.098 279.34 348.658 279.18 348.297 278.98C346.495 278.059 344.933 276.537 342.811 276.377C341.57 276.297 340.329 276.657 339.367 277.458C338.487 278.179 337.766 279.1 336.725 279.581C335.844 279.981 335.083 280.101 334.202 279.981C334.202 280.021 334.162 280.021 334.122 280.021Z" fill="#FFB020"/>
<path d="M335.323 283.384C335.443 283.665 335.563 283.905 335.683 284.185C336.484 284.105 337.245 283.905 337.966 283.585C339.087 283.144 339.888 282.383 340.729 281.542C341.129 281.182 341.53 280.782 342.01 280.621C342.09 280.581 341.97 280.621 342.13 280.581C342.13 280.581 342.17 280.581 342.211 280.581C342.211 280.581 342.211 280.581 342.251 280.581C342.331 280.581 342.371 280.581 342.451 280.621C342.571 280.661 342.531 280.621 342.611 280.661C343.492 280.902 344.293 281.502 345.094 281.983C345.935 282.543 346.816 283.064 347.817 283.384C350.099 284.065 352.221 283.184 354.184 282.023C354.984 281.542 355.825 280.942 356.746 280.701C356.746 280.701 356.866 280.661 356.907 280.661H356.947C356.987 280.661 357.067 280.661 357.067 280.661C357.267 280.661 357.347 280.661 357.547 280.741C358.028 280.862 358.468 281.102 358.869 281.382C359.79 281.943 360.631 282.664 361.592 283.144C362.873 283.785 364.274 283.905 365.636 283.665C367.037 283.424 368.359 282.784 369.6 282.143C370.641 281.582 371.683 281.022 372.884 280.782C373.885 280.581 374.766 280.982 375.527 281.743C375.967 282.183 376.368 282.664 376.848 283.024C377.369 283.384 377.929 283.585 378.53 283.745C379.891 284.025 381.293 283.865 382.614 283.545C383.896 283.224 385.097 282.583 386.338 282.103C386.899 281.903 387.62 281.662 388.14 281.582C388.301 281.542 388.461 281.542 388.661 281.582C388.821 281.582 389.021 281.622 389.222 281.662C389.382 281.703 389.542 281.743 389.702 281.823C389.822 281.502 389.942 281.142 390.022 280.822C388.541 280.581 386.939 280.862 385.578 281.342C384.296 281.783 383.135 282.423 381.814 282.824C380.893 283.104 379.891 283.224 379.01 282.744C377.889 282.143 377.329 280.942 376.207 280.381C375.006 279.82 373.565 279.78 372.283 280.021C371.002 280.261 369.8 280.782 368.639 281.382C367.518 281.983 366.317 282.704 365.035 282.904C364.034 283.064 363.113 282.503 362.312 281.983C361.391 281.382 360.55 280.701 359.509 280.261C357.267 279.34 354.984 280.181 353.022 281.342C352.181 281.863 351.34 282.423 350.419 282.704C350.059 282.824 349.939 282.864 349.579 282.784C349.178 282.704 348.738 282.543 348.377 282.343C346.575 281.422 345.014 279.901 342.891 279.74C341.65 279.66 340.409 280.021 339.448 280.822C338.567 281.542 337.846 282.463 336.805 282.944C336.244 283.184 335.764 283.344 335.323 283.384Z" fill="#FFB020"/>
<path d="M684.663 359.307L697.837 455.772L698.477 460.537L698.758 462.539C698.798 462.659 698.798 462.819 698.838 462.94C699.158 465.062 699.919 467.024 701 468.746C703.843 473.391 708.969 476.434 714.695 476.434H742.125C750.174 476.434 756.941 470.508 758.062 462.539L763.588 421.935L763.668 421.455L764.309 416.729L765.71 406.518L772.157 359.267H684.663V359.307Z" fill="#CCE6FF"/>
<path d="M754.349 379.087L755.585 379.555L750.827 392.14L749.591 391.673L754.349 379.087Z" fill="#BABABA"/>
<path d="M730.375 382.846L731.601 383.339L729.003 389.804L727.777 389.311L730.375 382.846Z" fill="#BABABA"/>
<path d="M708.034 392.846L708.773 393.941L698.622 400.802L697.882 399.707L708.034 392.846Z" fill="#BABABA"/>
<path d="M698.638 374.207L703.725 378.791L702.841 379.772L697.754 375.189L698.638 374.207Z" fill="#BABABA"/>
<path d="M708.485 414.839L719.731 417.211L719.458 418.504L708.213 416.132L708.485 414.839Z" fill="#BABABA"/>
<path d="M737.856 412.007L744.152 419.995L743.114 420.813L736.818 412.825L737.856 412.007Z" fill="#BABABA"/>
<path d="M758.884 419.951L759.741 420.958L750.35 428.953L749.493 427.947L758.884 419.951Z" fill="#BABABA"/>
<path d="M723.914 438.227L731.417 445.094L730.525 446.069L723.022 439.202L723.914 438.227Z" fill="#BABABA"/>
<path d="M749.706 453.697L750.157 454.939L737.546 459.513L737.095 458.27L749.706 453.697Z" fill="#BABABA"/>
<path d="M712.855 461.93L720.148 471.069L719.115 471.894L711.822 462.755L712.855 461.93Z" fill="#BABABA"/>
<path d="M704.262 438.202L705.133 439.196L701.219 442.628L700.348 441.634L704.262 438.202Z" fill="#BABABA"/>
<path d="M748.639 464.625L753.769 471.086L752.734 471.908L747.604 465.447L748.639 464.625Z" fill="#BABABA"/>
<path d="M737.502 363.151L748.47 369.621L747.798 370.759L736.831 364.289L737.502 363.151Z" fill="#BABABA"/>
<path d="M710.853 362.191L711.962 362.91L707.016 370.537L705.907 369.818L710.853 362.191Z" fill="#BABABA"/>
<path d="M756.3 399.591H765.07V400.912H756.3V399.591Z" fill="#BABABA"/>
<path opacity="0.3" d="M684.662 359.307L697.837 455.772C729.831 446.322 751.255 429.463 765.31 409.041L765.67 406.558L772.117 359.307H684.662V359.307Z" fill="#48657C"/>
<path d="M494.696 318.623L494.736 317.461C494.736 317.421 494.656 317.862 494.696 318.623Z" stroke="black" stroke-width="1.07188" stroke-miterlimit="10"/>
<path d="M507.31 488.207C509.512 488.207 511.314 486.405 511.314 484.203V444.519C511.314 442.317 509.512 440.515 507.31 440.515C505.107 440.515 503.306 442.317 503.306 444.519V484.203C503.306 486.445 505.107 488.207 507.31 488.207Z" fill="#BABABA"/>
<path d="M623.436 483.081C625.639 483.081 627.441 481.279 627.441 479.077V439.394C627.441 437.192 625.639 435.39 623.436 435.39C621.234 435.39 619.432 437.192 619.432 439.394V479.077C619.432 481.32 621.234 483.081 623.436 483.081Z" fill="white"/>
<path d="M776.001 429.303V425.139L749.853 422.015C747.571 423.297 744.968 424.017 742.165 424.017C742.165 424.017 740.483 424.177 737.44 424.418L776.001 429.303Z" fill="white"/>
<path d="M668.044 466.023V461.858L641.896 458.735C639.614 460.016 637.011 460.737 634.208 460.737C634.208 460.737 632.526 460.897 629.483 461.137L668.044 466.023Z" fill="white"/>
<path d="M481.642 342.569C486.127 416.81 634.248 380.05 634.248 380.05V460.737C636.25 460.777 638.212 460.817 640.134 460.817C827.618 461.338 782.368 265.726 772.758 230.527C772.398 229.246 772.037 228.005 771.597 226.763C769.875 221.878 767.432 217.273 764.229 213.188C710.61 144.714 508.871 264.324 495.457 272.413C495.016 272.693 494.536 272.973 494.135 273.294C477.798 285.667 481.642 342.569 481.642 342.569Z" fill="#0181FE"/>
<path d="M667.684 320.785L667.724 336.923L668.044 516.558C668.044 518.76 669.806 520.562 672.049 520.562C674.291 520.562 676.053 518.76 676.053 516.558V324.629L735.398 309.973L757.502 380.61L792.5 492.612C793.02 494.334 794.622 495.415 796.304 495.415C796.704 495.415 797.105 495.335 797.505 495.214C799.627 494.574 800.789 492.331 800.148 490.209L767.392 385.415L741.604 302.966C740.964 300.843 738.721 299.682 736.599 300.323C736.559 300.323 736.519 300.363 736.479 300.363C736.399 300.363 736.359 300.363 736.279 300.403L671.048 316.5C669.086 316.981 667.724 318.743 667.684 320.705C667.684 320.745 667.684 320.785 667.684 320.785Z" fill="white"/>
<path d="M481.642 342.569C486.127 416.81 634.248 380.05 634.248 380.05V460.737C636.25 460.777 638.212 460.817 640.134 460.817H641.535L651.386 299.522C651.386 299.522 766.832 292.555 771.557 226.803C769.835 221.918 767.392 217.313 764.189 213.229C710.57 144.754 508.831 264.364 495.417 272.453C494.976 272.733 494.496 273.013 494.095 273.334C477.798 285.667 481.642 342.569 481.642 342.569Z" fill="#0167CB"/>
<path d="M481.602 342.569C482.563 367.476 500.302 379.809 523.367 385.255C539.865 389.14 559.126 389.5 576.905 388.379C607.779 386.457 634.248 380.05 634.248 380.05L635.009 364.913L637.531 315.46L637.812 309.773L637.892 308.012L637.932 307.211L637.972 306.13L638.092 303.527C638.532 294.677 645.019 287.269 653.749 285.707C677.735 281.343 696.115 276.257 710.21 270.971C719.02 267.648 726.147 264.284 731.914 260.92C733.435 260.039 734.837 259.199 736.158 258.318C740.843 255.274 744.447 252.351 747.21 249.548C755.9 240.859 756.14 226.924 747.731 217.954C740.883 210.626 731.473 206.301 720.381 204.299C710.41 202.497 699.038 202.577 686.825 204.059C680.378 204.82 673.65 206.021 666.803 207.502C661.838 208.584 656.792 209.825 651.707 211.226C648.944 211.987 646.181 212.788 643.418 213.629C633.367 216.632 623.196 220.156 613.145 223.96C600.851 228.605 588.718 233.691 577.186 238.856C545.431 253.032 518.242 267.768 504.587 275.456C498.781 278.74 495.177 284.866 495.177 291.554L494.136 327.753C482.883 332.158 481.602 342.569 481.602 342.569Z" fill="#0181FE"/>
<path d="M481.642 342.569C484.445 416.249 634.247 380.05 634.247 380.05L637.931 308.011C562.409 297.72 494.255 327.673 494.255 327.673C482.883 332.158 481.642 342.569 481.642 342.569Z" fill="#878787"/>
<path d="M601.292 305.128C601.292 305.729 601.772 306.25 602.413 306.29L637.852 309.773L637.932 308.012L638.172 303.487C638.612 294.637 645.099 287.229 653.829 285.667C677.815 281.303 696.195 276.217 710.29 270.931C710.49 253.192 712.773 235.533 720.061 228.365C720.381 228.045 720.701 227.764 721.022 227.524C721.182 227.404 721.342 227.244 721.542 227.164C722.063 226.803 722.624 226.763 723.184 226.523C725.186 225.522 727.469 226.803 728.83 225.402C728.83 225.402 728.31 225.202 729.071 225.001C728.71 224.921 723.304 224.04 713.894 222.359C697.276 219.355 671.088 214.67 651.907 211.227C644.779 209.945 638.612 208.864 634.248 208.063C629.042 207.142 623.756 209.024 620.313 213.028C618.15 215.591 615.707 219.115 613.345 223.92C606.377 237.775 599.85 262.322 601.292 305.128Z" fill="#F3F3F2"/>
<path d="M710.29 270.931C721.422 266.767 729.832 262.442 736.279 258.317C735.438 224.24 732.114 222.679 723.104 226.203C722.544 226.443 722.023 226.803 721.543 227.164C721.382 227.284 721.222 227.404 721.022 227.524C720.702 227.804 720.381 228.085 720.061 228.365C712.773 235.533 710.491 253.192 710.29 270.931Z" fill="#FF9F1C"/>
<path d="M479.24 414.567C479.24 414.647 479.28 414.767 479.28 414.847C479.32 415.088 479.32 415.328 479.36 415.568C479.36 415.648 479.36 415.688 479.4 415.768C479.4 415.808 479.4 415.848 479.4 415.888C480.161 421.214 482.003 425.939 484.766 430.144C485.847 431.786 487.088 433.347 488.41 434.869C492.974 439.914 498.981 444.039 505.949 447.483C519.083 453.89 535.661 457.694 552.519 459.816C584.554 463.901 617.55 462.059 629.523 461.178C632.566 460.937 634.248 460.777 634.248 460.777V380.09C581.551 385.015 547.033 382.452 524.409 376.806C524.369 376.806 524.369 376.806 524.328 376.766C491.493 368.557 483.845 353.861 482.083 346.253C481.722 344.691 481.642 343.41 481.602 342.569L481.442 347.214L480.04 388.459L480 389.66L479.24 414.567Z" fill="#0181FE"/>
<path d="M480.04 389.66C488.249 401.393 500.863 410.442 517.641 416.689C532.657 422.295 551.037 425.619 572.22 426.58C576.705 426.78 581.15 426.86 585.475 426.86C606.537 426.86 624.877 424.698 634.248 423.376V422.656C623.035 424.257 598.689 427.06 572.26 425.859C540.426 424.377 499.221 416.609 480.12 388.418L480.04 389.66Z" fill="white"/>
<path d="M128.659 469.988C128.659 470.468 129.059 470.909 129.58 470.909H273.016C273.496 470.909 273.937 470.508 273.937 469.988V457.574C273.937 450.286 272.775 443.279 270.573 436.712C268.731 431.105 266.128 425.82 262.925 420.974C262.885 420.894 262.805 420.814 262.765 420.734C250.872 402.915 230.57 391.182 207.545 391.182C196.733 391.182 186.482 393.344 177.112 397.269C167.581 401.273 159.012 407.039 151.804 414.247C146.078 419.973 141.273 426.541 137.509 433.748C131.822 444.6 128.659 456.894 128.659 469.988Z" fill="#FFB020"/>
<path d="M176.871 397.309C177.232 422.536 197.814 442.878 223.121 442.878C239.82 442.878 254.716 434.109 262.804 420.854C250.912 403.035 230.329 391.222 207.304 391.222C196.533 391.222 186.241 393.385 176.871 397.309Z" fill="#0181FE"/>
<path d="M264.286 418.852C263.726 419.573 263.165 420.254 262.684 421.014C265.888 425.86 268.491 431.145 270.333 436.751C270.693 435.87 271.214 434.749 271.854 433.388C272.815 431.386 273.857 429.343 275.138 427.742C281.705 419.693 283.147 412.285 282.346 406.198C281.465 399.551 277.861 394.546 275.338 392.263C274.978 391.903 274.657 391.542 274.337 391.182C271.414 387.938 269.972 384.775 270.012 381.812C270.052 378.528 271.894 375.925 272.855 374.764C273.176 374.364 273.416 374.163 273.416 374.123C276.299 371.521 276.499 367.116 273.937 364.233C271.334 361.35 266.849 361.109 263.966 363.712C263.525 364.113 260.923 366.555 258.8 370.56C257.319 373.403 256.037 377.007 255.917 381.251C255.717 388.619 258.96 395.707 265.487 402.274L265.808 402.594C267.53 404.236 271.814 409.682 264.286 418.852Z" fill="#FFB020"/>
<path d="M141.393 430.585L152.365 420.974L156.089 417.691C156.089 417.691 143.115 416.81 141.433 417.45C141.433 417.41 140.952 426.66 141.393 430.585Z" fill="#0181FE"/>
<path d="M141.393 430.584L152.365 420.974C148.44 418.732 141.433 417.45 141.433 417.45C141.433 417.45 140.952 426.66 141.393 430.584Z" fill="#0167CB"/>
<path d="M172.907 418.571C172.907 418.571 176.791 429.463 176.911 429.784C177.031 430.144 186.161 437.872 186.161 437.872C186.161 437.872 187.162 437.912 188.324 437.993C189.965 438.073 191.928 438.153 192.048 438.113C192.288 438.073 194.53 435.35 194.53 435.35C194.53 435.35 195.892 419.012 195.652 417.09C195.692 417.09 177.872 417.25 172.907 418.571Z" fill="white"/>
<path d="M177.872 426.22L185.641 436.631C185.641 436.631 186.802 437.232 188.324 437.993C189.965 438.073 191.928 438.153 192.048 438.113C192.288 438.073 194.53 435.35 194.53 435.35C194.53 435.35 195.892 419.012 195.652 417.09C195.692 417.09 181.757 421.535 177.872 426.22Z" fill="#0167CB"/>
<path d="M139.07 443.879V444.039C139.07 451.247 139.791 458.495 142.234 461.098H199.055C200.297 461.098 201.298 460.097 201.298 458.855V458.455C201.298 457.214 200.297 456.213 199.055 456.213H197.413C197.854 455.772 198.134 455.211 198.214 454.571L198.855 447.924C199.175 444.48 199.055 440.956 198.174 437.592C195.732 428.222 188.924 420.574 179.995 417.09C176.631 415.769 172.947 415.048 169.103 415.048C160.814 415.048 153.286 418.412 147.84 423.857C144.917 426.781 142.594 430.304 141.072 434.229C139.911 437.272 139.19 440.515 139.07 443.879Z" fill="white"/>
<path d="M136.948 443.879V444.039C136.948 451.247 137.669 458.495 140.111 461.098H196.933C198.174 461.098 199.175 460.097 199.175 458.855V458.455C199.175 457.214 198.174 456.213 196.933 456.213H195.291C195.732 455.772 196.012 455.211 196.092 454.571L196.733 447.924C197.053 444.48 196.933 440.956 196.052 437.592C193.609 428.222 186.802 420.574 177.872 417.09C174.509 415.769 170.825 415.048 166.98 415.048C158.691 415.048 151.163 418.412 145.717 423.857C142.794 426.781 140.472 430.304 138.95 434.229C137.789 437.272 137.068 440.515 136.948 443.879Z" fill="#FFB020"/>
<path d="M178.433 469.868V470.949H179.594V469.868C179.594 465.343 183.158 461.619 187.683 461.418L210.468 460.978L210.187 460.217C204.061 443.599 204.181 430.225 210.548 420.534C219.958 406.159 240.1 404.837 240.26 404.837C240.58 404.797 240.821 404.517 240.821 404.196C240.781 403.876 240.5 403.636 240.18 403.636C239.98 403.636 219.277 405.037 209.547 419.853C203.06 429.704 202.819 443.159 208.786 459.777L187.643 460.177C182.477 460.497 178.433 464.702 178.433 469.868Z" fill="white"/>
<path d="M189.445 448.164C189.565 448.164 189.645 448.124 189.725 448.084C190.005 447.924 190.085 447.563 189.925 447.283C189.124 445.962 187.363 445.081 185.4 445.081C183.638 445.081 181.997 445.761 181.116 446.883C180.916 447.123 180.956 447.523 181.196 447.723C181.436 447.924 181.837 447.884 182.037 447.643C182.717 446.802 183.999 446.282 185.4 446.282C186.922 446.282 188.364 446.923 188.924 447.884C189.044 448.084 189.245 448.164 189.445 448.164Z" fill="#011627"/>
<path d="M169.583 448.164C169.703 448.164 169.783 448.124 169.863 448.084C170.144 447.924 170.224 447.563 170.064 447.283C169.263 445.962 167.501 445.081 165.539 445.081C163.777 445.081 162.135 445.761 161.254 446.883C161.054 447.123 161.094 447.523 161.334 447.723C161.575 447.924 161.975 447.884 162.175 447.643C162.856 446.802 164.137 446.282 165.539 446.282C167.06 446.282 168.502 446.923 169.063 447.884C169.183 448.084 169.383 448.164 169.583 448.164Z" fill="#011627"/>
<path d="M176.551 454.13C175.733 454.13 175.069 453.951 175.069 453.73C175.069 453.509 175.733 453.33 176.551 453.33C177.369 453.33 178.032 453.509 178.032 453.73C178.032 453.951 177.369 454.13 176.551 454.13Z" fill="#D14242"/>
<path d="M162.135 453.45C162.175 453.45 162.215 453.45 162.215 453.41C162.295 453.37 162.295 453.25 162.255 453.21C162.215 453.13 156.689 446.482 146.318 446.482C146.078 446.482 145.798 446.482 145.517 446.482C145.437 446.482 145.357 446.563 145.357 446.643C145.357 446.723 145.437 446.803 145.517 446.803C145.798 446.803 146.038 446.803 146.278 446.803C156.529 446.803 161.935 453.37 161.975 453.45C162.055 453.45 162.095 453.45 162.135 453.45Z" fill="#011627"/>
<path d="M138.95 434.309C143.074 438.193 148.64 440.556 154.767 440.556C167.541 440.556 177.912 430.184 177.912 417.41C177.912 417.33 177.912 417.25 177.912 417.17C174.549 415.849 170.865 415.128 167.02 415.128C158.731 415.128 151.203 418.492 145.757 423.937C142.794 426.861 140.472 430.384 138.95 434.309Z" fill="#0181FE"/>
<path d="M128.499 470.027V470.948H176.871C176.871 468.225 173.988 464.021 173.988 464.021C173.988 464.021 169.744 461.138 167.061 461.138H140.111C137.669 458.535 136.948 451.287 136.948 444.079V443.919C136.948 440.355 137.108 436.791 137.308 433.828C131.662 444.64 128.499 456.973 128.499 470.027Z" fill="#FFB020"/>
<path d="M154.447 470.948H176.871C176.871 465.542 172.467 461.138 167.061 461.138H164.258C158.852 461.138 154.447 465.502 154.447 470.948Z" fill="white"/>
<path d="M387.34 420.614L393.947 429.223L419.014 442.518C421.377 443.479 423.619 444.68 425.781 446.121C431.828 450.166 436.713 452.048 440.517 452.769C445.122 453.69 449.767 451.247 451.609 446.922C452.691 444.36 454.332 441.436 456.014 438.673C459.498 432.987 463.302 427.942 463.302 427.942L435.192 406.559L433.069 409.842L428.945 416.169C427.143 419.413 416.131 422.536 412.447 422.216L387.34 420.614Z" fill="#F29971"/>
<path opacity="0.3" d="M433.029 409.802L455.974 438.673C459.458 432.987 463.262 427.942 463.262 427.942L435.152 406.559L433.029 409.802Z" fill="#0181FE"/>
<path d="M412.928 424.498L411.886 439.194C411.766 440.716 412.367 442.197 413.448 443.198L439.797 467.865C440.598 468.626 440.678 469.907 439.917 470.748C439.156 471.589 437.875 471.669 437.034 470.908L381.734 421.815C381.734 421.815 376.488 413.646 409.684 420.253C411.686 420.654 413.088 422.456 412.928 424.498Z" fill="#0181FE"/>
<path d="M459.098 508.309L468.788 513.194L497.139 514.315C499.702 514.115 502.264 514.275 504.787 514.636C511.955 515.677 517.201 515.196 520.925 514.235C525.49 513.074 528.613 508.869 528.373 504.184C528.173 499.98 528.733 494.534 529.334 490.089C529.975 485.524 530.655 482 530.655 482L501.784 476.114L498.06 475.353L497.86 479.117L497.539 485.204L497.419 487.766C497.219 491.45 483.164 495.895 479.72 497.217L459.098 508.309Z" fill="#F29971"/>
<path opacity="0.3" d="M497.579 485.164L529.334 490.089C529.975 485.524 530.655 482 530.655 482L501.784 476.114L497.86 479.117L497.579 485.164Z" fill="#0181FE"/>
<path d="M479.72 497.177L488.73 508.83C489.651 510.031 491.052 510.752 492.574 510.792L528.653 511.633C529.774 511.673 530.655 512.554 530.655 513.675C530.655 514.796 529.734 515.717 528.613 515.717L454.653 515.917C454.653 515.917 445.283 513.314 474.474 496.136C476.236 495.135 478.479 495.575 479.72 497.177Z" fill="#0181FE"/>
<path opacity="0.3" d="M479.24 414.567C479.24 414.647 479.28 414.767 479.28 414.847C479.32 415.088 479.32 415.328 479.36 415.568C479.36 415.648 479.36 415.688 479.4 415.768C479.4 415.808 479.4 415.848 479.4 415.888C480.161 421.214 482.003 425.939 484.766 430.144C485.847 431.786 487.088 433.347 488.41 434.869L524.328 376.766C491.493 368.557 483.845 353.861 482.083 346.253C481.882 346.573 481.682 346.894 481.442 347.214L480.04 388.459L480 389.66L479.24 414.567Z" fill="#771818"/>
<path opacity="0.3" d="M505.949 447.443C519.083 453.85 535.661 457.654 552.519 459.776L573.542 410.603C576.986 402.554 584.754 397.148 593.524 396.748L634.248 392.383V380.05C581.551 384.975 547.033 382.412 524.409 376.766L505.949 447.443Z" fill="#771818"/>
<path d="M435.712 415.488C444.281 421.134 458.497 429.904 464.664 433.628C466.345 434.669 468.508 434.228 469.669 432.667L472.432 428.943L523.968 359.387C526.731 353.541 533.058 350.297 539.425 351.459L634.848 368.677L636.17 342.569L637.972 308.652C636.73 307.891 597.007 299.162 564.292 291.914C541.066 286.788 500.462 302.846 485.606 322.107C485.046 322.828 448.966 378.968 434.471 401.513C434.03 402.234 433.59 402.874 433.189 403.515C430.587 407.56 431.708 412.885 435.712 415.488Z" fill="#0181FE"/>
<path d="M672.049 159.971C659.554 159.971 649.424 146.632 649.424 130.179C649.424 113.725 659.554 100.386 672.049 100.386C684.544 100.386 694.673 113.725 694.673 130.179C694.673 146.632 684.544 159.971 672.049 159.971Z" fill="#280204"/>
<path d="M632.446 184.397C632.406 184.397 632.406 184.397 632.446 184.397C634.208 183.396 636.09 182.555 638.052 181.794C645.06 177.51 648.944 170.863 650.826 166.698C651.827 164.456 652.227 162.974 652.227 162.974L675.132 141.311C674.171 143.953 674.291 147.117 675.092 150.521C678.416 164.496 693.552 182.115 693.592 182.155L696.235 199.334L670.207 229.566L644.939 234.532L637.331 220.116L629.963 199.293L632.446 184.397Z" fill="#F29971"/>
<path d="M561.929 290.593L618.431 302.125L622.435 302.926L627.32 303.927L637.972 306.089L638.092 303.487C638.533 294.637 645.02 287.229 653.749 285.667C658.634 284.786 663.319 283.865 667.764 282.904C668.645 282.704 669.486 282.544 670.327 282.344C682.14 279.741 692.311 276.978 701.08 274.095C701.961 273.814 702.842 273.534 703.683 273.214C705.926 272.453 708.088 271.652 710.17 270.891C718.98 267.568 726.108 264.164 731.914 260.84C731.914 260.48 731.954 260.119 731.954 259.759C732.034 256.716 731.994 253.512 731.874 250.229C731.874 249.948 731.874 249.668 731.834 249.388C731.834 249.188 731.834 248.987 731.794 248.787C731.794 248.507 731.754 248.227 731.754 247.986C731.754 247.706 731.714 247.426 731.714 247.145C731.674 246.625 731.634 246.104 731.634 245.584C731.594 245.303 731.594 244.983 731.554 244.703C731.513 244.262 731.473 243.782 731.433 243.341C731.433 243.141 731.393 242.901 731.393 242.701C731.233 240.899 731.033 239.057 730.793 237.215C730.753 236.934 730.713 236.654 730.673 236.374C730.673 236.334 730.673 236.294 730.673 236.254C730.592 235.733 730.512 235.212 730.432 234.692C730.392 234.492 730.392 234.331 730.352 234.171C730.352 234.131 730.352 234.091 730.352 234.051C730.072 232.289 729.792 230.567 729.431 228.845C729.391 228.565 729.311 228.285 729.271 228.005C729.231 227.724 729.151 227.484 729.111 227.204C728.911 226.323 728.71 225.402 728.47 224.521C728.43 224.281 728.35 224.08 728.31 223.84C728.15 223.279 728.03 222.719 727.87 222.198C727.789 221.918 727.709 221.678 727.629 221.397C727.269 220.196 726.908 219.035 726.508 217.834C726.428 217.673 726.388 217.473 726.308 217.313C726.108 216.792 725.947 216.232 725.747 215.711C725.467 214.91 725.147 214.109 724.826 213.349C724.706 213.108 724.626 212.828 724.506 212.588C724.186 211.747 723.825 210.946 723.425 210.145C723.345 209.945 723.265 209.785 723.144 209.585C723.104 209.504 723.064 209.464 723.064 209.384C722.944 209.144 722.864 208.944 722.744 208.744C722.624 208.503 722.504 208.223 722.384 207.983C722.263 207.743 722.143 207.462 721.983 207.222C721.863 206.982 721.703 206.741 721.583 206.501C721.583 206.501 721.583 206.501 721.583 206.461C721.342 205.981 721.062 205.54 720.782 205.06C720.622 204.779 720.461 204.539 720.341 204.299C720.141 203.938 719.901 203.578 719.701 203.218C719.5 202.897 719.3 202.577 719.1 202.257C719.06 202.217 719.02 202.177 719.02 202.136C718.82 201.816 718.579 201.456 718.339 201.135C718.099 200.775 717.859 200.455 717.618 200.094C717.418 199.814 717.218 199.534 716.978 199.253C716.217 198.252 715.416 197.251 714.575 196.29C714.455 196.17 714.335 196.01 714.215 195.89C714.055 195.73 713.894 195.529 713.734 195.369C713.614 195.249 713.494 195.089 713.334 194.929C713.174 194.768 713.053 194.608 712.893 194.488C712.773 194.368 712.653 194.248 712.533 194.128C712.333 193.928 712.172 193.767 711.972 193.567C711.852 193.447 711.732 193.327 711.652 193.247C711.492 193.087 711.292 192.886 711.131 192.726C711.011 192.606 710.891 192.526 710.811 192.406C710.531 192.166 710.29 191.925 710.01 191.685C709.97 191.645 709.97 191.645 709.93 191.605C709.73 191.405 709.53 191.245 709.289 191.084C709.129 190.964 708.969 190.804 708.809 190.684C708.769 190.644 708.729 190.604 708.689 190.564C708.408 190.324 708.168 190.123 707.888 189.923C707.608 189.723 707.327 189.483 707.007 189.283C706.967 189.242 706.967 189.242 706.927 189.242C706.366 188.842 705.806 188.442 705.245 188.041C701.761 185.679 697.877 183.716 693.472 182.195L666.803 207.542L665.562 208.704L664 210.185L652.348 221.277C650.225 223.279 646.781 222.479 645.74 219.756L643.418 213.629L632.286 184.437C632.286 184.437 626.039 186.319 617.189 192.005C616.629 192.366 616.068 192.726 615.508 193.127C604.055 200.895 588.879 214.83 577.146 238.816C573.742 245.784 570.619 253.632 567.976 262.402C567.776 263.083 567.576 263.723 567.375 264.404C565.253 272.333 563.331 281.062 561.929 290.593Z" fill="#F3F3F2"/>
<path opacity="0.2" d="M568.136 262.362C574.383 266.727 580.59 271.092 586.836 275.496C597.448 282.945 608.059 290.393 618.671 297.841C621.554 299.883 624.477 301.925 627.36 303.927L622.475 302.926C611.904 295.518 601.332 288.07 590.761 280.662C583.032 275.216 575.304 269.81 567.575 264.364C567.736 263.724 567.936 263.043 568.136 262.362ZM599.73 228.285C599.891 223.12 600.571 217.914 602.013 212.949C602.173 212.388 602.694 212.148 603.254 212.228C608.7 213.349 613.465 216.232 618.03 219.315C622.876 222.559 627.681 225.762 632.726 228.686C635.169 230.087 637.652 231.449 640.174 232.73C639.133 230.848 638.092 228.966 637.051 227.084C634.528 222.519 632.005 217.954 629.483 213.389C627.16 209.184 624.798 205.02 622.075 201.056C620.153 198.213 618.03 195.57 615.668 193.087C616.228 192.687 616.789 192.326 617.35 191.966C619.031 193.768 620.593 195.61 622.075 197.612C625.038 201.616 627.561 205.901 630.003 210.186C632.646 214.871 635.209 219.596 637.852 224.281C639.173 226.643 640.495 229.046 641.816 231.409C642.337 232.37 642.897 233.331 643.458 234.292C650.385 237.695 657.513 240.659 664.801 243.141C670.487 245.103 676.494 246.505 681.78 249.388C683.341 239.778 687.586 230.928 691.951 222.279C687.586 220.477 683.261 218.635 678.936 216.753C674.091 214.63 669.326 212.468 664.521 210.226C664.401 210.186 664.281 210.105 664.16 210.065L665.722 208.584C669.806 210.506 673.891 212.348 677.975 214.19C682.901 216.352 687.826 218.475 692.831 220.517C695.314 215.591 697.757 210.666 699.799 205.581C701.961 200.175 703.723 194.649 705.165 189.003C705.245 188.642 705.325 188.282 705.405 187.961C705.966 188.362 706.526 188.722 707.087 189.163C707.127 189.163 707.127 189.203 707.167 189.203C706.006 193.968 704.524 198.693 702.842 203.298C700.52 209.505 697.597 215.391 694.674 221.278C698.358 222.759 702.042 224.241 705.726 225.682C710.971 227.725 716.257 229.647 721.543 231.529C724.506 232.57 727.509 233.611 730.552 234.172C730.593 234.332 730.593 234.532 730.633 234.692C730.713 235.213 730.793 235.733 730.873 236.254C728.07 235.773 725.307 234.932 722.624 234.011C717.658 232.29 712.693 230.488 707.808 228.606C703.123 226.804 698.438 224.962 693.752 223.08C692.031 226.523 690.349 230.007 688.787 233.531C686.344 239.097 684.302 244.983 683.541 251.03C683.501 251.23 683.461 251.39 683.341 251.55C687.746 258.638 692.591 265.846 699.519 270.651C700.92 271.612 702.362 272.453 703.843 273.214C703.003 273.494 702.122 273.815 701.241 274.095C700.48 273.654 699.759 273.214 699.038 272.733C695.314 270.211 692.071 267.047 689.268 263.563C686.585 260.28 684.222 256.716 681.98 253.112C679.377 263.043 675.613 272.653 670.808 281.703C670.687 281.903 670.567 282.104 670.487 282.344C669.646 282.544 668.765 282.704 667.924 282.904C672.93 273.815 676.894 264.164 679.657 254.153C679.938 253.112 680.218 252.031 680.498 250.99C675.893 248.547 670.808 247.266 665.882 245.624C660.436 243.822 655.07 241.74 649.785 239.417C648.223 238.737 646.701 238.016 645.18 237.295C645.38 237.695 645.58 238.096 645.78 238.496C646.741 240.579 647.062 242.701 645.861 244.743C645.3 245.704 644.499 246.585 643.778 247.426C642.817 248.547 641.896 249.668 640.935 250.75C637.411 254.914 633.847 259.079 630.324 263.283C623.156 271.732 616.228 280.862 606.938 287.109C606.257 287.59 605.497 286.949 605.417 286.228C604.255 276.337 603.134 266.447 601.973 256.556C600.812 247.226 599.49 237.776 599.73 228.285ZM602.213 240.939C603.054 250.549 604.335 260.12 605.417 269.69C605.977 274.656 606.578 279.621 607.138 284.586C614.466 279.301 620.193 272.173 625.959 265.325C629.403 261.241 632.886 257.157 636.33 253.072C638.052 251.03 639.774 248.988 641.536 246.945C643.017 245.184 645.1 243.342 644.379 240.819C644.099 239.778 643.538 238.817 643.017 237.896C642.657 237.215 642.257 236.534 641.896 235.853C634.048 231.969 626.519 227.484 619.272 222.559C614.426 219.275 609.501 215.832 603.735 214.43C601.332 223.039 601.452 232.089 602.213 240.939Z" fill="#CCE6FF"/>
<path d="M628.922 305.889H587.437V299.202H622.635C626.119 299.202 628.962 302.045 628.962 305.529V305.889H628.922Z" fill="#FFB020"/>
<path d="M586.236 299.402L620.913 299.162H622.595L621.914 283.825C621.834 283.906 621.234 283.906 620.313 283.866C618.711 283.825 616.108 283.665 613.585 283.505C609.02 283.225 598.089 284.586 594.605 287.59L586.236 299.402Z" fill="#F29971"/>
<path d="M589.319 305.889H506.029C502.465 305.889 499.382 303.327 498.701 299.843L489.251 250.549C488.37 245.944 491.894 241.66 496.579 241.66H579.869C583.433 241.66 586.516 244.222 587.197 247.706L596.647 297C597.528 301.605 594.005 305.889 589.319 305.889Z" fill="white"/>
<path d="M594.645 298.361C594.645 298.642 594.645 298.882 594.605 299.162C594.244 302.766 591.281 305.729 587.477 305.849C587.397 305.849 587.277 305.849 587.197 305.849H503.906C500.342 305.849 497.259 303.287 496.578 299.803L495.457 293.956L491.052 271.092L487.128 250.509C486.648 247.987 487.489 245.544 489.13 243.862C490.372 242.581 492.094 241.74 494.016 241.62C494.176 241.62 494.296 241.62 494.456 241.62H577.706C581.31 241.62 584.354 244.182 585.034 247.666L594.485 296.96C594.605 297.44 594.645 297.921 594.645 298.361Z" fill="#FFB020"/>
<path d="M537.703 278.94C534.386 278.94 531.697 276.251 531.697 272.934C531.697 269.616 534.386 266.927 537.703 266.927C541.02 266.927 543.71 269.616 543.71 272.934C543.71 276.251 541.02 278.94 537.703 278.94Z" fill="white"/>
<path d="M501.303 484.603L522.847 487.246C527.572 487.847 532.137 485.204 534.019 480.799L534.579 479.518L569.097 398.79C572.541 390.741 580.309 385.336 589.079 384.935L634.248 380.05L636.13 333.92L555.242 329.675L551.998 329.515C539.825 327.793 528.253 335.161 524.689 346.894L522.927 353.701L492.253 471.229C492.133 471.629 492.053 472.03 492.013 472.47C491.132 478.316 495.257 483.842 501.303 484.603Z" fill="#CCE6FF"/>
<path d="M454.212 517.639H529.654C530.215 517.639 530.655 517.198 530.655 516.638C530.655 516.077 530.215 515.637 529.654 515.637H454.252C453.692 515.637 453.251 516.077 453.251 516.638C453.251 517.198 453.692 517.639 454.212 517.639Z" fill="white"/>
<path d="M380.452 422.736L437.234 472.39C437.634 472.75 438.275 472.71 438.635 472.31C438.996 471.909 438.956 471.269 438.555 470.908L381.774 421.254C381.373 420.894 380.733 420.934 380.372 421.334C380.012 421.775 380.052 422.376 380.452 422.736Z" fill="white"/>
<path d="M287.672 523.005H353.863C354.544 523.005 355.065 522.484 355.065 521.803C355.065 521.123 354.544 520.602 353.863 520.602H287.672C286.11 520.602 284.828 519.321 284.828 517.759C284.828 516.197 286.11 514.916 287.672 514.916H298.443C301.647 514.916 304.25 512.313 304.25 509.109C304.25 505.906 301.647 503.303 298.443 503.303H140.672C137.829 503.303 135.546 501.021 135.546 498.178C135.546 495.375 137.829 493.092 140.632 493.052L179.354 492.692C180.035 492.692 180.555 492.131 180.555 491.49C180.555 490.85 179.995 490.289 179.354 490.289L140.632 490.649C136.507 490.69 133.184 494.053 133.184 498.178C133.184 502.342 136.547 505.706 140.712 505.706H298.483C300.365 505.706 301.887 507.227 301.887 509.109C301.887 510.992 300.365 512.513 298.483 512.513H287.712C284.828 512.513 282.466 514.876 282.466 517.759C282.466 520.642 284.788 523.005 287.672 523.005Z" fill="white"/>
<path d="M173.748 488.528C173.748 488.688 173.748 488.808 173.788 488.968C173.828 489.569 173.948 490.129 174.068 490.69C174.348 491.851 174.749 492.972 175.31 493.974C175.31 493.974 175.31 493.974 175.31 494.014C175.55 494.494 175.83 494.935 176.15 495.335C176.351 495.655 176.711 496.416 176.991 496.656C177.712 497.297 178.673 497.698 179.634 497.978C179.714 497.978 179.754 498.018 179.834 498.018C180.075 498.098 180.315 498.138 180.555 498.218C182.277 498.619 184.039 498.859 185.801 498.899C186.161 498.899 186.522 498.899 186.882 498.899C187.723 498.859 188.564 498.779 189.405 498.619C192.328 498.058 195.131 496.697 197.133 494.494C197.373 494.254 197.574 493.974 197.774 493.693C197.974 493.453 198.134 493.213 198.294 492.972C198.575 492.492 198.855 492.051 199.095 491.531C199.255 491.211 199.416 490.85 199.536 490.49C199.856 489.609 200.056 488.728 200.136 487.807C200.176 487.527 200.176 487.286 200.216 487.006C200.256 486.485 200.216 485.925 200.176 485.404C200.176 485.164 200.136 484.964 200.096 484.723C200.056 484.483 200.016 484.243 199.976 484.043C199.736 483.002 199.376 482.001 198.855 481.08C198.735 480.879 198.655 480.679 198.535 480.519C198.374 480.239 198.214 479.998 198.014 479.758C197.333 478.837 196.532 477.996 195.611 477.315C195.411 477.155 195.171 476.995 194.931 476.835C194.731 476.715 194.53 476.555 194.33 476.435C193.89 476.194 193.449 475.994 193.009 475.794C191.727 475.273 190.326 474.993 188.964 474.873C188.764 474.873 188.604 474.833 188.404 474.833C187.883 474.793 187.403 474.793 186.882 474.833C186.281 474.873 185.641 474.913 185.04 474.993C184.88 475.033 184.72 475.033 184.56 475.073C183.999 475.153 183.438 475.273 182.918 475.433C182.718 475.514 182.477 475.554 182.277 475.634C182.077 475.714 181.917 475.754 181.716 475.834C180.515 476.314 179.394 476.995 178.393 477.836C178.313 477.916 178.193 477.996 178.113 478.076C177.111 478.957 176.271 479.958 175.55 481.08C175.43 481.24 175.35 481.44 175.229 481.6C175.109 481.8 174.989 482.041 174.869 482.281C174.829 482.401 174.749 482.521 174.709 482.641C174.509 483.122 174.308 483.642 174.148 484.163C174.068 484.443 173.988 484.724 173.948 485.004C173.908 485.164 173.868 485.324 173.868 485.524C173.748 486.525 173.708 487.527 173.748 488.528Z" fill="white"/>
<path d="M178.473 491.13C178.753 491.25 179.034 491.37 179.354 491.45L175.35 493.973C175.35 493.973 175.35 493.973 175.35 494.013C176.791 493.373 178.153 492.492 179.394 491.491C180.395 491.851 181.356 492.171 182.397 492.452C183.078 492.652 183.759 492.812 184.439 492.972C185.08 493.132 185.761 493.252 186.402 493.373L179.714 498.058C179.794 498.058 179.834 498.098 179.915 498.098C182.317 496.816 184.52 495.215 186.482 493.373C187.162 493.493 187.803 493.573 188.484 493.653C188.524 493.653 188.524 493.653 188.564 493.653C189.124 493.733 189.685 493.773 190.246 493.813C190.926 493.853 191.607 493.893 192.288 493.933C192.008 494.133 191.767 494.414 191.527 494.654C191.247 494.934 191.007 495.175 190.726 495.415C190.166 495.935 189.605 496.416 189.004 496.856C188.003 497.617 186.922 498.218 185.881 498.939C186.241 498.939 186.602 498.939 186.962 498.939C187.803 498.498 188.564 497.938 189.325 497.377C189.925 496.936 190.526 496.456 191.127 495.935C191.407 495.655 191.687 495.415 191.968 495.134C192.248 494.894 192.528 494.614 192.688 494.294C192.728 494.213 192.728 494.093 192.648 494.013C193.009 494.013 193.369 494.013 193.77 494.013H193.93C194.41 494.013 194.931 494.013 195.411 493.973C195.451 493.973 195.491 493.973 195.531 493.973C195.812 493.973 196.092 493.933 196.372 493.933C196.853 493.893 197.373 493.893 197.854 493.813C198.054 493.573 198.214 493.333 198.375 493.092C197.534 493.092 196.693 493.252 195.852 493.292C194.931 493.333 194.01 493.373 193.049 493.373C189.645 493.333 186.241 492.892 182.958 492.051C179.754 491.25 176.751 490.049 173.788 488.607C173.788 488.768 173.788 488.888 173.828 489.048C175.269 489.809 176.871 490.489 178.473 491.13Z" fill="#D14242"/>
<path d="M173.908 485.524C174.549 485.925 175.229 486.285 175.87 486.606C176.871 487.126 177.872 487.607 178.873 488.047C182.477 489.609 186.201 490.73 190.085 491.331C191.967 491.651 193.93 491.851 195.852 491.891C196.733 491.891 197.573 491.891 198.454 491.691C198.655 491.651 198.895 491.611 199.135 491.531C199.295 491.211 199.456 490.85 199.576 490.49C199.375 490.57 199.175 490.69 198.935 490.77C198.495 490.93 198.014 491.01 197.574 491.05C196.572 491.171 195.571 491.09 194.61 491.05C190.846 490.81 187.162 490.169 183.558 489.088C181.756 488.528 179.994 487.887 178.273 487.126C177.432 486.766 176.551 486.325 175.75 485.925C175.189 485.645 174.669 485.324 174.068 485.044C173.948 485.204 173.908 485.364 173.908 485.524Z" fill="#D14242"/>
<path d="M174.749 482.641C176.03 483.682 177.592 484.363 179.154 484.923C180.796 485.484 182.517 485.925 184.239 486.325C186.161 486.806 188.083 487.206 190.046 487.486C191.928 487.767 193.81 487.967 195.692 488.007C196.613 488.007 197.574 488.007 198.535 487.927C199.055 487.887 199.616 487.887 200.136 487.767C200.177 487.486 200.177 487.246 200.217 486.966C199.616 487.006 199.015 487.086 198.455 487.166C198.655 487.006 198.815 486.846 199.015 486.685C199.296 486.405 199.616 486.085 199.856 485.804C199.976 485.684 200.096 485.524 200.177 485.404C200.177 485.164 200.136 484.964 200.096 484.723C199.896 484.964 199.696 485.244 199.496 485.484C199.215 485.804 198.935 486.125 198.655 486.405C198.415 486.685 198.134 486.926 197.934 487.206C197.173 487.246 196.412 487.246 195.612 487.246C195.371 487.246 195.171 487.246 194.971 487.246C194.33 487.206 193.73 487.166 193.089 487.126C193.289 487.006 193.449 486.846 193.649 486.725C194.01 486.445 194.33 486.205 194.651 485.885C195.291 485.324 195.932 484.683 196.533 484.043C197.133 483.402 197.694 482.721 198.214 482C198.455 481.68 198.655 481.36 198.895 481.039C198.775 480.839 198.695 480.639 198.575 480.479C198.535 480.559 198.495 480.599 198.495 480.639C198.254 480.999 198.014 481.32 197.774 481.68C197.253 482.401 196.693 483.041 196.132 483.722C195.572 484.363 194.971 484.964 194.33 485.564C194.01 485.844 193.689 486.165 193.369 486.445C193.129 486.645 192.849 486.886 192.608 487.126C191.607 487.046 190.606 486.886 189.645 486.725C189.605 486.725 189.565 486.725 189.485 486.685C188.924 486.605 188.364 486.485 187.763 486.365C187.202 486.285 186.682 486.165 186.121 486.045C187.002 485.444 187.843 484.643 188.604 483.922C189.485 483.122 190.326 482.281 191.167 481.4C191.968 480.519 192.768 479.638 193.529 478.677C193.89 478.236 194.21 477.796 194.57 477.355C194.691 477.155 194.851 476.995 195.011 476.795C194.811 476.675 194.61 476.514 194.41 476.394C194.29 476.554 194.21 476.715 194.09 476.875C193.73 477.395 193.369 477.876 192.969 478.356C192.368 479.117 191.767 479.798 191.127 480.519C191.087 480.439 191.087 480.399 191.047 480.318C190.967 479.958 190.846 479.638 190.726 479.277C190.526 478.637 190.286 477.996 190.086 477.355C189.845 476.755 189.605 476.154 189.325 475.553C189.325 475.513 189.285 475.513 189.285 475.473C189.205 475.273 189.084 475.033 189.004 474.833C188.804 474.833 188.644 474.792 188.444 474.792C188.564 475.073 188.724 475.393 188.844 475.673C188.884 475.754 188.924 475.834 188.964 475.914C189.205 476.474 189.405 477.035 189.645 477.596C189.885 478.236 190.086 478.877 190.286 479.518C190.366 479.838 190.446 480.118 190.566 480.439C190.606 480.639 190.646 480.839 190.726 480.999C190.406 481.36 190.046 481.72 189.685 482.08C189.645 482.12 189.605 482.16 189.565 482.201C189.245 482.521 188.924 482.841 188.604 483.162C188.484 483.282 188.364 483.362 188.284 483.482C188.244 483.522 188.204 483.562 188.123 483.602C187.803 481.92 187.283 480.198 186.682 478.597C186.402 477.796 186.081 476.995 185.721 476.194C185.521 475.794 185.36 475.353 185.12 474.953C184.96 474.993 184.8 474.993 184.64 475.033C184.84 475.513 185.08 475.994 185.28 476.474C185.641 477.275 185.921 478.116 186.241 478.917C186.802 480.559 187.202 482.241 187.603 483.962C187.603 484.002 187.643 484.043 187.643 484.043C187.323 484.323 187.002 484.603 186.682 484.923C186.642 484.964 186.642 484.964 186.602 485.004C186.281 485.284 185.961 485.604 185.681 485.925C185.481 485.885 185.32 485.845 185.12 485.804C185.12 485.764 185.12 485.764 185.12 485.724C184.92 483.802 184.48 481.84 183.919 479.998C183.639 479.037 183.318 478.076 182.958 477.115C182.758 476.634 182.597 476.114 182.357 475.593C182.157 475.673 181.997 475.713 181.797 475.794C181.997 476.354 182.277 476.875 182.477 477.435C182.798 478.316 183.078 479.237 183.358 480.158C183.879 481.96 184.199 483.802 184.52 485.644C184.359 485.604 184.159 485.564 183.999 485.524C183.679 485.444 183.318 485.364 182.998 485.284H182.958C182.517 485.164 182.037 485.084 181.596 484.964C181.276 484.883 180.956 484.803 180.635 484.723C180.635 484.723 180.635 484.723 180.635 484.683C180.075 482.361 179.394 480.078 178.513 477.836C178.433 477.916 178.313 477.996 178.233 478.076C178.313 478.316 178.393 478.557 178.473 478.797H178.433C178.233 478.797 178.113 478.997 177.992 479.117C177.872 479.277 177.712 479.397 177.592 479.518C177.312 479.798 177.031 480.038 176.751 480.278C176.431 480.559 176.07 480.839 175.71 481.079C175.59 481.239 175.51 481.44 175.39 481.6C175.95 481.32 176.471 480.959 176.991 480.599C177.312 480.359 177.592 480.078 177.872 479.838C178.033 479.718 178.153 479.558 178.273 479.438C178.353 479.357 178.473 479.237 178.553 479.117C179.114 480.919 179.634 482.721 180.075 484.563C178.313 484.043 176.591 483.362 175.029 482.281C174.869 482.441 174.829 482.521 174.749 482.641Z" fill="#D14242"/>
<path d="M420.026 145.111C400.993 137.144 392.023 115.257 399.989 96.2243C407.956 77.1919 429.843 68.2212 448.876 76.1879C467.908 84.1545 476.879 106.042 468.912 125.074C460.945 144.107 439.058 153.077 420.026 145.111Z" fill="#0181FE"/>
<path d="M422.958 141.589C403.925 133.623 394.955 111.735 402.921 92.7029C410.888 73.6704 432.775 64.6997 451.808 72.6664C470.84 80.6331 479.811 102.52 471.844 121.553C463.877 140.585 441.99 149.556 422.958 141.589Z" fill="#E4FDFB"/>
<path d="M422.958 141.589C403.925 133.623 394.955 111.735 402.921 92.7029C410.888 73.6704 432.775 64.6997 451.808 72.6664C470.84 80.6331 479.811 102.52 471.844 121.553C463.877 140.585 441.99 149.556 422.958 141.589Z" fill="white"/>
<path opacity="0.5" d="M399.513 107.033C399.513 127.655 416.251 144.394 436.873 144.394C450.768 144.394 462.902 136.825 469.349 125.533C463.182 130.018 455.574 132.701 447.365 132.701C426.742 132.701 410.004 115.963 410.004 95.3404C410.004 88.6131 411.806 82.2862 414.89 76.8403C405.559 83.6477 399.513 94.6196 399.513 107.033Z" fill="#BABABA"/>
<path d="M437.354 146.156C458.857 146.156 476.396 128.657 476.396 107.113C476.396 85.6098 458.897 68.0708 437.354 68.0708C415.811 68.0708 398.312 85.5698 398.312 107.113C398.312 128.657 415.811 146.156 437.354 146.156ZM437.354 71.4344C457.015 71.4344 473.033 87.4518 473.033 107.113C473.033 126.775 457.015 142.792 437.354 142.792C417.693 142.792 401.675 126.775 401.675 107.113C401.675 87.4518 417.653 71.4344 437.354 71.4344Z" fill="#FFB020"/>
<path d="M413.897 91.2005L437.541 106.331L436.505 107.95L412.861 92.8195L413.897 91.2005Z" fill="#0181FE"/>
<path d="M432.469 107.113C432.469 110.037 434.831 112.399 437.754 112.399C440.677 112.399 443.04 110.037 443.04 107.113C443.04 104.19 440.677 101.828 437.754 101.828C434.831 101.828 432.469 104.19 432.469 107.113Z" fill="#CCE6FF"/>
<path d="M450.139 94.9916L451.463 96.3853L439.413 107.828L438.089 106.435L450.139 94.9916Z" fill="#CCE6FF"/>
<path opacity="0.3" d="M650.826 166.738C651.827 166.898 652.828 166.978 653.869 166.978C663.159 166.978 671.168 160.291 675.132 150.521C674.331 147.157 674.211 143.993 675.172 141.311L652.267 163.014C652.227 163.014 651.827 164.496 650.826 166.738Z" fill="#0181FE"/>
<path d="M645.42 103.75C644.298 103.75 615.347 98.3036 628.441 130.218L645.42 103.75Z" fill="#280204"/>
<path d="M628.361 132.741C628.361 149.439 639.053 162.974 652.227 162.974C665.402 162.974 676.093 149.439 676.093 132.741C676.093 129.017 675.573 125.453 674.572 122.17C673.49 118.526 671.889 115.242 669.846 112.399C665.482 106.312 659.195 102.508 652.187 102.508C648.984 102.508 645.941 103.309 643.178 104.751C638.733 107.033 634.969 110.998 632.326 116.003C629.843 120.808 628.361 126.574 628.361 132.741Z" fill="#F29971"/>
<path opacity="0.3" d="M632.366 116.003C634.968 114.041 639.974 110.838 643.578 111.759C643.578 111.759 657.113 125.734 665.161 127.416L674.571 122.17L675.092 121.85L673.37 113.721L669.846 112.359L662.919 109.716L652.187 106.953L647.022 105.272L643.177 104.711C638.773 107.033 635.009 110.998 632.366 116.003Z" fill="#0181FE"/>
<path d="M636.851 106.433C636.851 106.433 659.796 126.615 683.181 120.808C683.181 120.808 679.937 80.2843 636.851 106.433Z" fill="#280204"/>
<path d="M683.181 111.278C671.46 111.278 661.958 101.776 661.958 90.0551C661.958 78.3339 671.46 68.832 683.181 68.832C694.902 68.832 704.404 78.3339 704.404 90.0551C704.404 101.776 694.902 111.278 683.181 111.278Z" fill="#280204"/>
<path d="M637.691 107.634C639.053 109.356 640.534 110.917 642.096 112.439C643.658 113.961 645.3 115.402 646.981 116.764C650.385 119.487 654.149 121.849 658.194 123.611C658.714 123.811 659.195 124.052 659.715 124.252L661.277 124.812C662.358 125.133 663.399 125.453 664.52 125.653L665.321 125.814C665.602 125.854 665.882 125.894 666.162 125.934L667.003 126.054C667.283 126.094 667.564 126.134 667.844 126.134L669.526 126.214L671.208 126.174C671.488 126.174 671.768 126.134 672.049 126.094L672.89 125.974C673.17 125.934 673.45 125.894 673.73 125.854L674.571 125.653C675.693 125.453 676.734 125.013 677.775 124.652C679.857 123.771 681.739 122.57 683.381 121.169C683.541 121.008 683.581 120.768 683.421 120.608C683.301 120.448 683.061 120.408 682.9 120.528C681.058 121.569 679.176 122.53 677.214 123.131C675.212 123.691 673.17 124.052 671.128 124.052C669.085 124.132 667.043 123.811 665.001 123.371C662.999 122.93 660.997 122.25 659.075 121.449C657.152 120.648 655.27 119.687 653.428 118.646L652.067 117.845C651.626 117.565 651.186 117.284 650.746 117.004C649.865 116.443 648.984 115.843 648.103 115.242C644.659 112.799 641.335 110.077 638.212 107.153C638.052 106.993 637.811 106.993 637.651 107.153C637.571 107.273 637.571 107.514 637.691 107.634Z" fill="#280204"/>
<path d="M663.98 134.966C661.708 129.397 665.062 122.762 671.471 120.147C677.88 117.533 684.918 119.929 687.19 125.498C689.462 131.068 686.108 137.702 679.699 140.317C673.289 142.931 666.252 140.536 663.98 134.966Z" fill="#F29971"/>
<g opacity="0.3">
<g opacity="0.3">
<g opacity="0.3">
<path opacity="0.3" d="M672.489 134.183C672.729 133.422 672.929 132.661 673.37 131.981C673.45 131.86 673.57 131.7 673.65 131.58C674.131 130.939 674.691 130.419 675.372 129.978C677.134 128.777 679.577 128.016 681.619 127.496C681.659 127.496 681.659 127.295 681.619 127.095C681.579 126.895 681.579 126.695 681.619 126.695C679.577 127.215 677.134 127.736 675.372 128.977C674.731 129.418 674.131 129.938 673.65 130.579C673.13 131.42 672.809 132.381 672.489 133.302C672.369 133.582 672.489 133.943 672.489 134.183Z" fill="#0181FE"/>
</g>
</g>
</g>
<path d="M687.265 110.517C688.867 109.716 690.669 110.517 691.99 111.518C693.352 112.519 694.553 113.8 695.554 115.162C697.556 117.885 698.918 121.128 699.358 124.492C699.599 126.134 699.599 127.856 699.478 129.537C699.478 129.297 699.438 128.857 699.478 128.576C699.679 125.533 698.878 122.33 697.596 119.607C696.315 116.924 694.433 114.361 692.07 112.599C690.709 111.598 688.907 110.757 687.305 111.558C687.385 111.478 687.105 110.597 687.265 110.517Z" fill="#280204"/>
<path d="M664.4 97.8634C663.439 96.2216 662.478 94.5798 661.798 92.7778C661.157 91.096 660.877 89.4142 660.877 87.6122C660.877 83.8481 661.878 80.1641 663.199 76.6804C664 74.6381 664.921 72.636 666.002 70.7139C665.842 70.9541 666.162 71.4747 666.002 71.715C664.32 74.7182 662.959 77.9217 661.998 81.2453C661.517 82.9271 661.117 84.649 660.957 86.3709C660.796 88.2129 661.117 90.0148 661.798 91.7367C662.478 93.4986 663.439 95.1804 664.4 96.8222C664.52 97.1426 664.24 97.6231 664.4 97.8634Z" fill="#280204"/>
<path d="M663.76 97.1826C662.959 96.4618 661.718 96.622 660.877 97.2627C659.956 97.9834 659.555 99.2248 659.395 100.346C659.435 100.026 659.355 99.6653 659.395 99.3449C659.555 98.2237 659.956 96.9824 660.877 96.2616C661.678 95.6209 662.919 95.4607 663.76 96.1815C663.8 96.2215 663.76 96.622 663.76 96.7021C663.76 96.8222 663.76 96.9423 663.76 97.0624V97.1826Z" fill="#280204"/>
<path d="M621.514 117.364C621.474 117.044 621.554 116.684 621.514 116.363C621.354 115.242 621.113 114.081 621.193 113C621.274 111.958 621.554 110.917 622.074 110.036C623.756 107.193 627.2 105.431 630.323 104.751C633.567 104.03 637.011 104.35 640.054 105.712C639.934 105.672 640.174 104.791 640.054 104.711C638.172 103.83 636.09 103.389 634.007 103.349C630.323 103.309 626.599 104.55 623.836 106.993C622.315 108.314 621.394 109.996 621.193 112.039C621.033 113.8 621.234 115.602 621.514 117.364Z" fill="#280204"/>
<path d="M638.172 131.98C639.533 133.222 640.935 134.583 641.656 136.305C642.016 137.106 642.096 137.947 642.136 138.828C642.136 139.869 642.176 140.95 641.976 141.951C641.576 143.953 640.454 145.715 639.373 147.397C639.093 147.798 638.853 148.238 638.652 148.719C638.612 148.839 638.572 148.919 638.572 149.039C638.372 149.68 638.372 147.237 638.572 147.878C638.652 148.118 638.733 148.278 638.853 148.478C639.373 149.159 640.214 149.439 641.015 149.6C643.097 150.04 645.3 149.56 647.022 148.398C646.941 148.438 647.022 149.279 647.022 149.399C647.022 149.52 647.102 150.32 647.022 150.4C645.46 151.442 643.578 151.922 641.736 151.722C640.895 151.642 640.014 151.442 639.333 150.961C638.532 150.4 638.492 149.64 638.492 148.759C638.492 148.278 638.452 147.798 638.532 147.317C638.572 146.797 638.853 146.316 639.093 145.876C639.613 144.995 640.174 144.194 640.655 143.313C641.135 142.432 641.576 141.511 641.856 140.55C641.976 140.109 642.056 139.669 642.136 139.228C642.216 138.267 642.136 140.029 642.136 140.029C642.096 139.909 642.096 139.749 642.096 139.589C642.056 139.348 642.016 139.108 641.936 138.868C641.335 136.866 639.734 135.344 638.212 133.943C638.092 133.863 638.212 133.102 638.212 132.942C638.212 132.701 638.212 132.461 638.212 132.221C638.172 132.221 638.212 132.021 638.172 131.98Z" fill="#280204"/>
<path d="M672.489 134.183C672.489 134.223 672.489 134.263 672.449 134.303C672.77 133.382 673.09 132.421 673.61 131.58C673.65 131.54 673.65 131.5 673.691 131.42C674.211 130.619 674.892 129.978 675.693 129.417C677.455 128.216 679.537 127.655 681.579 127.135C681.579 127.135 681.579 127.135 681.619 127.095C681.619 127.015 681.619 126.855 681.619 126.694C681.619 126.414 681.579 126.174 681.619 126.134C679.577 126.654 677.495 127.175 675.733 128.416C674.972 128.937 674.251 129.618 673.731 130.418C673.691 130.458 673.691 130.499 673.65 130.579C673.13 131.42 672.81 132.381 672.489 133.302C672.369 133.582 672.489 133.942 672.489 134.183Z" fill="#280204"/>
<path d="M622.635 280.902C622.675 280.902 622.675 280.902 622.715 280.902L667.964 273.654C672.129 272.973 675.372 269.69 676.013 265.525L683.861 213.909C683.902 213.709 683.741 213.469 683.541 213.469C683.341 213.429 683.101 213.589 683.101 213.789L675.252 265.405C674.652 269.249 671.688 272.252 667.844 272.853L622.595 280.101C622.395 280.141 622.235 280.341 622.275 280.541C622.275 280.782 622.435 280.902 622.635 280.902Z" fill="#0181FE"/>
<path d="M593.403 269.089C593.523 269.089 593.603 269.049 593.683 268.969L609.461 252.511C610.622 251.31 611.343 249.748 611.463 248.106L612.103 241.099C612.183 240.458 612.143 239.737 612.023 239.056C608.219 217.713 619.471 205.58 619.592 205.46C619.752 205.3 619.752 205.06 619.592 204.899C619.431 204.739 619.191 204.739 619.031 204.899C618.911 205.02 607.378 217.393 611.262 239.177C611.383 239.817 611.383 240.418 611.343 241.019L610.702 248.026C610.582 249.508 609.941 250.909 608.9 251.991L593.123 268.448C592.963 268.609 592.963 268.849 593.123 269.009C593.203 269.049 593.283 269.089 593.403 269.089Z" fill="#0181FE"/>
<path d="M790.497 326.312C790.777 326.592 791.018 326.872 791.298 327.192C798.986 327.793 815.885 329.034 822.692 329.034H822.852C824.414 329.034 825.976 329.275 827.417 329.795C837.508 333.319 859.692 340.847 867.621 341.168C867.461 340.887 867.26 340.647 867.1 340.367C860.373 339.806 843.194 334.48 827.698 329.034C826.176 328.474 824.534 328.234 822.852 328.234H822.692C815.604 328.234 797.665 326.872 790.497 326.312Z" fill="#BC921D"/>
<path opacity="0.5" d="M667.684 320.786L667.724 336.923L676.053 340.967V324.63L735.398 309.974L757.502 380.611L767.392 385.416L741.604 302.966C740.964 300.844 738.721 299.683 736.599 300.323C736.559 300.323 736.519 300.363 736.479 300.363C736.399 300.363 736.359 300.363 736.279 300.403L671.048 316.501C669.086 316.981 667.724 318.743 667.684 320.705C667.684 320.746 667.684 320.786 667.684 320.786Z" fill="#BABABA"/>
<path opacity="0.3" d="M393.787 488.968C370.698 488.968 351.981 488.09 351.981 487.006C351.981 485.922 370.698 485.044 393.787 485.044C416.875 485.044 435.592 485.922 435.592 487.006C435.592 488.09 416.875 488.968 393.787 488.968Z" fill="#A8745D"/>
<path d="M620.273 281.743C620.273 282.023 621.154 303.046 621.154 303.046Z" fill="#A8745D"/>
<path opacity="0.3" d="M620.953 299.162H622.635L621.955 283.825C621.874 283.865 620.953 299.162 620.953 299.162Z" fill="#0181FE"/>
<g opacity="0.5">
<path opacity="0.5" d="M322.99 102.308C322.371 102.308 321.869 101.806 321.869 101.187C321.869 100.567 322.371 100.065 322.99 100.065C323.609 100.065 324.111 100.567 324.111 101.187C324.111 101.806 323.609 102.308 322.99 102.308Z" fill="#FFEDE7"/>
<path opacity="0.5" d="M304.089 121.889C303.47 121.889 302.968 121.387 302.968 120.768C302.968 120.148 303.47 119.646 304.089 119.646C304.709 119.646 305.211 120.148 305.211 120.768C305.211 121.387 304.709 121.889 304.089 121.889Z" fill="#FFEDE7"/>
<path opacity="0.5" d="M249.23 237.695C248.611 237.695 248.109 237.193 248.109 236.574C248.109 235.955 248.611 235.453 249.23 235.453C249.849 235.453 250.351 235.955 250.351 236.574C250.351 237.193 249.849 237.695 249.23 237.695Z" fill="#FFEDE7"/>
<path opacity="0.5" d="M309.695 186.039C309.076 186.039 308.574 185.537 308.574 184.918C308.574 184.298 309.076 183.796 309.695 183.796C310.315 183.796 310.817 184.298 310.817 184.918C310.817 185.537 310.315 186.039 309.695 186.039Z" fill="#FFEDE7"/>
<path opacity="0.5" d="M195.571 152.002C194.952 152.002 194.45 151.5 194.45 150.88C194.45 150.261 194.952 149.759 195.571 149.759C196.191 149.759 196.693 150.261 196.693 150.88C196.693 151.5 196.191 152.002 195.571 152.002Z" fill="#FFEDE7"/>
<path opacity="0.5" d="M111.881 225.682C111.261 225.682 110.759 225.18 110.759 224.561C110.759 223.941 111.261 223.439 111.881 223.439C112.5 223.439 113.002 223.941 113.002 224.561C113.002 225.18 112.5 225.682 111.881 225.682Z" fill="#FFEDE7"/>
<path opacity="0.5" d="M228.007 109.156C227.387 109.156 226.885 108.654 226.885 108.034C226.885 107.415 227.387 106.913 228.007 106.913C228.626 106.913 229.128 107.415 229.128 108.034C229.128 108.654 228.626 109.156 228.007 109.156Z" fill="#FFEDE7"/>
<path opacity="0.5" d="M252.033 188.041C251.414 188.041 250.912 187.539 250.912 186.92C250.912 186.3 251.414 185.798 252.033 185.798C252.652 185.798 253.154 186.3 253.154 186.92C253.154 187.539 252.652 188.041 252.033 188.041Z" fill="#FFEDE7"/>
<path opacity="0.5" d="M239.619 217.273C239 217.273 238.498 216.771 238.498 216.152C238.498 215.532 239 215.03 239.619 215.03C240.238 215.03 240.74 215.532 240.74 216.152C240.74 216.771 240.238 217.273 239.619 217.273Z" fill="#FFEDE7"/>
<path opacity="0.5" d="M246.827 97.5427C246.208 97.5427 245.706 97.0407 245.706 96.4215C245.706 95.8023 246.208 95.3003 246.827 95.3003C247.446 95.3003 247.948 95.8023 247.948 96.4215C247.948 97.0407 247.446 97.5427 246.827 97.5427Z" fill="#FFEDE7"/>
<path opacity="0.5" d="M258.039 150.4C257.42 150.4 256.918 149.898 256.918 149.279C256.918 148.66 257.42 148.158 258.039 148.158C258.659 148.158 259.161 148.66 259.161 149.279C259.161 149.898 258.659 150.4 258.039 150.4Z" fill="#FFEDE7"/>
<path opacity="0.5" d="M149.922 152.402C149.303 152.402 148.801 151.9 148.801 151.281C148.801 150.662 149.303 150.16 149.922 150.16C150.541 150.16 151.043 150.662 151.043 151.281C151.043 151.9 150.541 152.402 149.922 152.402Z" fill="#FFEDE7"/>
<path opacity="0.5" d="M284.067 252.511C283.448 252.511 282.946 252.009 282.946 251.39C282.946 250.771 283.448 250.269 284.067 250.269C284.687 250.269 285.189 250.771 285.189 251.39C285.189 252.009 284.687 252.511 284.067 252.511Z" fill="#FFEDE7"/>
<path opacity="0.5" d="M328.516 161.212C327.897 161.212 327.395 160.71 327.395 160.09C327.395 159.471 327.897 158.969 328.516 158.969C329.135 158.969 329.637 159.471 329.637 160.09C329.637 160.71 329.135 161.212 328.516 161.212Z" fill="#FFEDE7"/>
<path opacity="0.5" d="M324.752 143.673C324.464 143.673 324.231 143.44 324.231 143.152C324.231 142.865 324.464 142.632 324.752 142.632C325.039 142.632 325.272 142.865 325.272 143.152C325.272 143.44 325.039 143.673 324.752 143.673Z" fill="#FFEDE7"/>
<path opacity="0.5" d="M289.914 103.229C289.626 103.229 289.393 102.996 289.393 102.709C289.393 102.421 289.626 102.188 289.914 102.188C290.201 102.188 290.434 102.421 290.434 102.709C290.434 102.996 290.201 103.229 289.914 103.229Z" fill="#FFEDE7"/>
<path opacity="0.5" d="M280.303 180.913C280.016 180.913 279.783 180.68 279.783 180.393C279.783 180.105 280.016 179.872 280.303 179.872C280.591 179.872 280.824 180.105 280.824 180.393C280.824 180.68 280.591 180.913 280.303 180.913Z" fill="#FFEDE7"/>
<path opacity="0.5" d="M257.078 121.249C256.791 121.249 256.558 121.016 256.558 120.728C256.558 120.441 256.791 120.208 257.078 120.208C257.366 120.208 257.599 120.441 257.599 120.728C257.599 121.016 257.366 121.249 257.078 121.249Z" fill="#FFEDE7"/>
<path opacity="0.5" d="M193.009 256.195C192.721 256.195 192.488 255.962 192.488 255.674C192.488 255.387 192.721 255.154 193.009 255.154C193.296 255.154 193.529 255.387 193.529 255.674C193.529 255.962 193.296 256.195 193.009 256.195Z" fill="#FFEDE7"/>
<path opacity="0.5" d="M279.903 218.955C279.615 218.955 279.382 218.722 279.382 218.434C279.382 218.147 279.615 217.914 279.903 217.914C280.19 217.914 280.423 218.147 280.423 218.434C280.423 218.722 280.19 218.955 279.903 218.955Z" fill="#FFEDE7"/>
</g>
<path opacity="0.5" d="M108.197 274.815C108.757 277.538 109.398 280.261 110.159 282.904C112.401 291.233 115.485 299.162 119.569 306.53C120.85 308.852 122.252 311.135 123.734 313.337H194.17C197.974 313.337 201.057 310.254 201.057 306.49V84.2485H143.475C137.308 91.3362 132.183 99.1047 127.898 107.394C124.695 113.56 121.932 120.047 119.569 126.695C110.96 151.081 107.636 178.11 105.714 204.179C103.952 227.404 103.512 252.191 108.197 274.815Z" fill="#0181FE"/>
<path d="M180.755 84.2886H189.084V313.417H180.755V84.2886Z" fill="#FFB020"/>
<path d="M119.529 126.695V306.57C120.81 308.892 122.212 311.175 123.693 313.377H127.858V107.394C124.654 113.6 121.891 120.047 119.529 126.695Z" fill="#FFB020"/>
<path d="M150.122 84.2886H158.451V313.417H150.122V84.2886Z" fill="#FFB020"/>
<path d="M81.9279 206.942C81.9279 206.942 74.3598 370.6 189.084 370.76C189.084 370.76 54.7384 412.205 81.9279 206.942Z" fill="#CCE6FF"/>
<path d="M617.83 84.4087C617.83 84.4087 535.421 1.83905 438.355 1.11827C438.355 1.11827 558.606 -15.2595 617.83 84.4087Z" fill="#CCE6FF"/>
<path d="M432.429 218.955H451.449V223.319H432.429V218.955Z" fill="#FFEDE7"/>
<path d="M564.011 110.637H581.15V116.083H564.011V110.637Z" fill="#FFEDE7"/>
<path d="M252.033 35.0752H273.016V42.283H252.033V35.0752Z" fill="#FFEDE7"/>
<path d="M238.498 323.588H254.996V329.275H238.498V323.588Z" fill="#FFEDE7"/>
<rect x="416.963" y="174.833" width="66.4568" height="66.4568" rx="18.3631" fill="white"/>
<path d="M462.433 228.465H437.949C435.695 228.465 433.868 226.638 433.868 224.385V191.739C433.868 189.485 435.695 187.659 437.949 187.659H452.231C452.25 187.656 452.268 187.656 452.287 187.659H452.299C452.318 187.665 452.338 187.669 452.358 187.671C452.538 187.682 452.716 187.717 452.886 187.775H452.917H452.948H452.972C453.01 187.801 453.045 187.831 453.078 187.863C453.3 187.961 453.503 188.1 453.676 188.271L465.918 200.513C466.089 200.686 466.227 200.888 466.326 201.11C466.344 201.155 466.359 201.198 466.373 201.245V201.274V201.302C466.43 201.472 466.464 201.65 466.473 201.829C466.475 201.849 466.48 201.869 466.487 201.888V201.9C466.498 201.913 466.507 201.926 466.514 201.941V224.385C466.514 226.638 464.687 228.465 462.433 228.465ZM437.949 191.739V224.385H462.433V203.981H452.231C451.105 203.981 450.191 203.068 450.191 201.941V191.739H437.949ZM454.272 194.624V199.901H459.548L454.272 194.624ZM452.231 220.304H448.151V216.223H444.07V212.143H448.151V208.062H452.231V212.143H456.312V216.223H452.231V220.304Z" fill="#14B8A6"/>
</svg>
